<?xml version="1.0" encoding="UTF-8"?>
<!DOCTYPE X3D PUBLIC "ISO//Web3D//DTD X3D 3.1//EN" "http://www.web3d.org/specifications/x3d-3.1.dtd">
<X3D xmlns:xsd="http://www.w3.org/2001/XMLSchema-instance" xsd:noNamespaceSchemaLocation="http://www.web3d.org/specifications/x3d-3.1.xsd" profile="Immersive" version="3.1">
 <head>
  <meta name="title" content="Mesh_Lion2.x3d"/>
  <meta name="description" content="Generated from Meshlab X3D Exported"/>
  <meta name="created" content="7 December 2024"/>
  <meta name="generator" content="Meshlab X3D Exported, http://www.meshlab.net"/>
 </head>
 <Scene>
  <Shape>
   <IndexedFaceSet coordIndex="0 1 2 -1 0 2 3 -1 4 5 6 -1 4 6 7 -1 8 9 10 -1 8 10 11 -1 10 9 2 -1 10 2 1 -1 8 11 0 -1 8 0 3 -1 3 2 12 -1 3 12 13 -1 2 9 14 -1 2 14 12 -1 9 8 15 -1 9 15 14 -1 8 3 13 -1 8 13 15 -1 13 12 16 -1 13 16 17 -1 12 14 18 -1 12 18 16 -1 14 15 19 -1 14 19 18 -1 15 13 17 -1 15 17 19 -1 17 16 20 -1 17 20 21 -1 16 18 22 -1 16 22 20 -1 18 19 23 -1 18 23 22 -1 19 17 21 -1 19 21 23 -1 21 20 24 -1 21 24 25 -1 20 22 26 -1 20 26 24 -1 22 23 27 -1 22 27 26 -1 23 21 25 -1 23 25 27 -1 25 24 28 -1 25 28 29 -1 24 26 30 -1 24 30 28 -1 26 27 31 -1 26 31 30 -1 27 25 29 -1 27 29 31 -1 29 28 32 -1 29 32 33 -1 28 30 34 -1 28 34 32 -1 30 31 35 -1 30 35 34 -1 31 29 33 -1 31 33 35 -1 33 32 36 -1 33 36 37 -1 32 34 38 -1 32 38 36 -1 34 35 39 -1 34 39 38 -1 35 33 37 -1 35 37 39 -1 37 36 5 -1 37 5 4 -1 36 38 6 -1 36 6 5 -1 38 39 7 -1 38 7 6 -1 39 37 4 -1 39 4 7 -1 40 41 42 -1 40 42 43 -1 44 45 46 -1 44 46 47 -1 45 48 49 -1 45 49 46 -1 48 40 43 -1 48 43 49 -1 50 51 52 -1 50 52 53 -1 40 48 54 -1 40 54 55 -1 48 45 56 -1 48 56 54 -1 45 44 57 -1 45 57 56 -1 41 40 55 -1 41 55 58 -1 55 54 59 -1 55 59 60 -1 61 62 63 -1 61 63 64 -1 61 64 65 -1 61 65 66 -1 56 57 67 -1 56 67 68 -1 58 55 60 -1 58 60 69 -1 60 59 70 -1 60 70 71 -1 68 67 72 -1 68 72 73 -1 69 60 71 -1 69 71 74 -1 43 42 75 -1 43 75 76 -1 47 46 77 -1 47 77 78 -1 46 49 79 -1 46 79 77 -1 49 43 76 -1 49 76 79 -1 80 81 82 -1 80 82 83 -1 78 77 84 -1 78 84 85 -1 77 79 86 -1 77 86 84 -1 79 76 87 -1 79 87 86 -1 83 82 88 -1 83 88 89 -1 85 84 90 -1 85 90 91 -1 92 83 89 -1 92 89 93 -1 89 88 94 -1 89 94 95 -1 91 90 96 -1 91 96 97 -1 98 99 100 -1 98 100 101 -1 98 101 102 -1 98 102 103 -1 93 89 95 -1 93 95 104 -1 95 94 105 -1 95 105 106 -1 107 108 109 -1 107 109 110 -1 108 104 111 -1 108 111 109 -1 104 95 106 -1 104 106 111 -1 106 105 112 -1 106 112 113 -1 110 109 114 -1 110 114 115 -1 109 111 116 -1 109 116 114 -1 111 106 113 -1 111 113 116 -1 113 112 117 -1 113 117 118 -1 115 114 119 -1 115 119 120 -1 114 116 121 -1 114 121 119 -1 116 113 118 -1 116 118 121 -1 122 123 124 -1 122 124 125 -1 126 127 128 -1 126 128 129 -1 127 130 131 -1 127 131 128 -1 130 122 125 -1 130 125 131 -1 125 124 132 -1 125 132 133 -1 129 128 134 -1 129 134 135 -1 128 131 136 -1 128 136 134 -1 131 125 133 -1 131 133 136 -1 133 132 137 -1 133 137 138 -1 135 134 139 -1 135 139 140 -1 134 136 141 -1 134 141 139 -1 136 133 138 -1 136 138 141 -1 138 137 142 -1 138 142 143 -1 140 139 53 -1 140 53 52 -1 139 141 50 -1 139 50 53 -1 141 138 143 -1 141 143 50 -1 143 142 51 -1 143 51 50 -1 54 56 144 -1 54 144 145 -1 56 68 146 -1 56 146 144 -1 59 54 145 -1 59 145 147 -1 68 73 148 -1 68 148 146 -1 73 70 149 -1 73 149 148 -1 70 59 147 -1 70 147 149 -1 147 145 150 -1 147 150 151 -1 145 144 152 -1 145 152 150 -1 144 146 153 -1 144 153 152 -1 146 148 154 -1 146 154 153 -1 148 149 155 -1 148 155 154 -1 149 147 151 -1 149 151 155 -1 151 150 156 -1 151 156 157 -1 150 152 158 -1 150 158 156 -1 152 153 159 -1 152 159 158 -1 153 154 160 -1 153 160 159 -1 154 155 161 -1 154 161 160 -1 155 151 157 -1 155 157 161 -1 157 156 162 -1 157 162 163 -1 156 158 164 -1 156 164 162 -1 158 159 165 -1 158 165 164 -1 159 160 166 -1 159 166 165 -1 160 161 167 -1 160 167 166 -1 161 157 163 -1 161 163 167 -1 163 162 168 -1 163 168 169 -1 162 164 170 -1 162 170 168 -1 164 165 171 -1 164 171 170 -1 165 166 172 -1 165 172 171 -1 166 167 173 -1 166 173 172 -1 167 163 169 -1 167 169 173 -1 169 168 62 -1 169 62 61 -1 168 170 63 -1 168 63 62 -1 170 171 64 -1 170 64 63 -1 171 172 65 -1 171 65 64 -1 172 173 66 -1 172 66 65 -1 173 169 61 -1 173 61 66 -1 174 70 73 -1 174 73 72 -1 71 70 174 -1 71 174 74 -1 84 86 175 -1 84 175 176 -1 86 177 178 -1 86 178 175 -1 90 84 176 -1 90 176 179 -1 177 180 181 -1 177 181 178 -1 180 96 182 -1 180 182 181 -1 96 90 179 -1 96 179 182 -1 178 181 183 -1 178 183 184 -1 181 182 185 -1 181 185 183 -1 182 179 186 -1 182 186 185 -1 179 176 187 -1 179 187 186 -1 176 175 188 -1 176 188 187 -1 175 178 184 -1 175 184 188 -1 184 183 189 -1 184 189 190 -1 183 185 191 -1 183 191 189 -1 185 186 192 -1 185 192 191 -1 186 187 193 -1 186 193 192 -1 187 188 194 -1 187 194 193 -1 188 184 190 -1 188 190 194 -1 190 189 195 -1 190 195 196 -1 189 191 197 -1 189 197 195 -1 191 192 198 -1 191 198 197 -1 192 193 199 -1 192 199 198 -1 193 194 200 -1 193 200 199 -1 194 190 196 -1 194 196 200 -1 196 195 99 -1 196 99 98 -1 195 197 100 -1 195 100 99 -1 197 198 101 -1 197 101 100 -1 198 199 102 -1 198 102 101 -1 199 200 103 -1 199 103 102 -1 200 196 98 -1 200 98 103 -1 76 75 81 -1 76 81 80 -1 87 76 80 -1 87 80 83 -1 86 87 83 -1 86 83 92 -1 177 86 92 -1 177 92 93 -1 180 177 93 -1 180 93 104 -1 97 96 108 -1 97 108 107 -1 96 180 104 -1 96 104 108 -1 123 122 118 -1 123 118 117 -1 127 126 120 -1 127 120 119 -1 130 127 119 -1 130 119 121 -1 122 130 121 -1 122 121 118 -1 201 202 42 -1 201 42 41 -1 44 47 203 -1 44 203 204 -1 204 203 205 -1 204 205 206 -1 206 205 202 -1 206 202 201 -1 207 208 52 -1 207 52 51 -1 201 209 210 -1 201 210 206 -1 206 210 211 -1 206 211 204 -1 204 211 57 -1 204 57 44 -1 41 58 209 -1 41 209 201 -1 209 212 213 -1 209 213 210 -1 214 215 216 -1 214 216 217 -1 214 217 218 -1 214 218 219 -1 211 220 67 -1 211 67 57 -1 58 69 212 -1 58 212 209 -1 212 221 222 -1 212 222 213 -1 220 223 72 -1 220 72 67 -1 69 74 221 -1 69 221 212 -1 202 224 75 -1 202 75 42 -1 47 78 225 -1 47 225 203 -1 203 225 226 -1 203 226 205 -1 205 226 224 -1 205 224 202 -1 227 228 82 -1 227 82 81 -1 78 85 229 -1 78 229 225 -1 225 229 230 -1 225 230 226 -1 226 230 231 -1 226 231 224 -1 228 232 88 -1 228 88 82 -1 85 91 233 -1 85 233 229 -1 234 235 232 -1 234 232 228 -1 232 236 94 -1 232 94 88 -1 91 97 237 -1 91 237 233 -1 238 239 240 -1 238 240 241 -1 238 241 242 -1 238 242 243 -1 235 244 236 -1 235 236 232 -1 236 245 105 -1 236 105 94 -1 107 110 246 -1 107 246 247 -1 247 246 248 -1 247 248 244 -1 244 248 245 -1 244 245 236 -1 245 249 112 -1 245 112 105 -1 110 115 250 -1 110 250 246 -1 246 250 251 -1 246 251 248 -1 248 251 249 -1 248 249 245 -1 249 252 117 -1 249 117 112 -1 115 120 253 -1 115 253 250 -1 250 253 254 -1 250 254 251 -1 251 254 252 -1 251 252 249 -1 255 256 124 -1 255 124 123 -1 126 129 257 -1 126 257 258 -1 258 257 259 -1 258 259 260 -1 260 259 256 -1 260 256 255 -1 256 261 132 -1 256 132 124 -1 129 135 262 -1 129 262 257 -1 257 262 263 -1 257 263 259 -1 259 263 261 -1 259 261 256 -1 261 264 137 -1 261 137 132 -1 135 140 265 -1 135 265 262 -1 262 265 266 -1 262 266 263 -1 263 266 264 -1 263 264 261 -1 264 267 142 -1 264 142 137 -1 140 52 208 -1 140 208 265 -1 265 208 207 -1 265 207 266 -1 266 207 267 -1 266 267 264 -1 267 207 51 -1 267 51 142 -1 210 268 269 -1 210 269 211 -1 211 269 270 -1 211 270 220 -1 213 271 268 -1 213 268 210 -1 220 270 272 -1 220 272 223 -1 223 272 273 -1 223 273 222 -1 222 273 271 -1 222 271 213 -1 271 274 275 -1 271 275 268 -1 268 275 276 -1 268 276 269 -1 269 276 277 -1 269 277 270 -1 270 277 278 -1 270 278 272 -1 272 278 279 -1 272 279 273 -1 273 279 274 -1 273 274 271 -1 274 280 281 -1 274 281 275 -1 275 281 282 -1 275 282 276 -1 276 282 283 -1 276 283 277 -1 277 283 284 -1 277 284 278 -1 278 284 285 -1 278 285 279 -1 279 285 280 -1 279 280 274 -1 280 286 287 -1 280 287 281 -1 281 287 288 -1 281 288 282 -1 282 288 289 -1 282 289 283 -1 283 289 290 -1 283 290 284 -1 284 290 291 -1 284 291 285 -1 285 291 286 -1 285 286 280 -1 286 292 293 -1 286 293 287 -1 287 293 294 -1 287 294 288 -1 288 294 295 -1 288 295 289 -1 289 295 296 -1 289 296 290 -1 290 296 297 -1 290 297 291 -1 291 297 292 -1 291 292 286 -1 292 214 219 -1 292 219 293 -1 293 219 218 -1 293 218 294 -1 294 218 217 -1 294 217 295 -1 295 217 216 -1 295 216 296 -1 296 216 215 -1 296 215 297 -1 297 215 214 -1 297 214 292 -1 174 72 223 -1 174 223 222 -1 221 74 174 -1 221 174 222 -1 229 298 299 -1 229 299 230 -1 230 299 300 -1 230 300 301 -1 233 302 298 -1 233 298 229 -1 301 300 303 -1 301 303 304 -1 304 303 305 -1 304 305 237 -1 237 305 302 -1 237 302 233 -1 300 306 307 -1 300 307 303 -1 303 307 308 -1 303 308 305 -1 305 308 309 -1 305 309 302 -1 302 309 310 -1 302 310 298 -1 298 310 311 -1 298 311 299 -1 299 311 306 -1 299 306 300 -1 306 312 313 -1 306 313 307 -1 307 313 314 -1 307 314 308 -1 308 314 315 -1 308 315 309 -1 309 315 316 -1 309 316 310 -1 310 316 317 -1 310 317 311 -1 311 317 312 -1 311 312 306 -1 312 318 319 -1 312 319 313 -1 313 319 320 -1 313 320 314 -1 314 320 321 -1 314 321 315 -1 315 321 322 -1 315 322 316 -1 316 322 323 -1 316 323 317 -1 317 323 318 -1 317 318 312 -1 318 238 243 -1 318 243 319 -1 319 243 242 -1 319 242 320 -1 320 242 241 -1 320 241 321 -1 321 241 240 -1 321 240 322 -1 322 240 239 -1 322 239 323 -1 323 239 238 -1 323 238 318 -1 224 227 81 -1 224 81 75 -1 231 228 227 -1 231 227 224 -1 230 234 228 -1 230 228 231 -1 301 235 234 -1 301 234 230 -1 304 244 235 -1 304 235 301 -1 97 107 247 -1 97 247 237 -1 237 247 244 -1 237 244 304 -1 123 117 252 -1 123 252 255 -1 258 253 120 -1 258 120 126 -1 260 254 253 -1 260 253 258 -1 255 252 254 -1 255 254 260 -1 324 325 326 -1 324 326 327 -1 327 326 328 -1 327 328 329 -1 329 328 330 -1 329 330 331 -1 331 330 325 -1 331 325 324 -1 325 330 328 -1 325 328 326 -1 331 324 327 -1 331 327 329 -1 332 333 334 -1 332 334 335 -1 333 336 337 -1 333 337 334 -1 336 338 339 -1 336 339 337 -1 338 332 335 -1 338 335 339 -1 335 334 337 -1 335 337 339 -1 338 336 333 -1 338 333 332 -1" solid="false">
    <Coordinate point="0 32.9023 -80.3735 5.48649 27.6157 -78.906 4.99744 24.1577 -86.4346 0 28.9286 -87.922 0 -65.8165 -105.302 1.08507 -66.444 -104.417 0 -67.0716 -103.531 -1.08507 -66.444 -104.417 -4.99744 24.1577 -86.4346 0 19.3867 -84.9472 0 22.3291 -77.4386 -5.48649 27.6157 -78.906 4.99744 14.014 -92.8896 0 17.4246 -96.5423 0 10.6034 -89.2369 -4.99744 14.014 -92.8896 3.69332 -5.35129 -96.3477 0 -5.81121 -100.012 0 -4.89136 -92.6831 -3.69332 -5.35129 -96.3477 3.36729 -24.9471 -93.5813 0 -25.3664 -96.9223 0 -24.5277 -90.2402 -3.36729 -24.9471 -93.5813 2.38919 -44.0818 -92.4286 0 -43.5718 -94.7627 0 -44.5917 -90.0944 -2.38919 -44.0818 -92.4286 2.06316 -56.5309 -98.4226 0 -55.3376 -100.106 0 -57.7241 -96.7395 -2.06316 -56.5309 -98.4226 3.36728 -58.1446 -99.8058 0 -56.1971 -102.553 0 -60.0921 -97.0588 -3.36728 -58.1446 -99.8058 3.36728 -61.6027 -101.881 0 -59.6552 -104.628 0 -63.5502 -99.1337 -3.36728 -61.6027 -101.881 20.7498 29.9882 -30.7255 0 36.7156 -30.7255 0 38.0145 0.901026 20.7498 30.9508 0.901026 0 -18.2389 -30.7255 20.7498 -11.5115 -30.7255 20.7498 -12.6239 0.901026 0 -19.6877 0.901026 27.4772 9.23832 -30.7255 27.4772 9.16341 0.901026 5.70009 34.1625 103.687 0 31.5333 105.302 0 22.4611 101.06 5.83202 24.7206 101.203 25.818 14.7135 -49.6539 19.4969 34.2103 -49.6539 19.4969 -4.7834 -49.6539 0 -11.1046 -49.6539 0 40.5314 -49.6539 25.818 17.3728 -68.7387 19.4969 32.862 -68.7387 21.4064 -70.1877 -88.196 20.4914 -70.1877 -78.3511 9.43545 -70.1877 -78.351 7.25773 -70.1877 -88.196 11.872 -70.1878 -97.7601 17.4027 -70.1878 -97.7601 0 -3.13817 -68.7387 4.60871 -1.9511 -68.7387 0 37.8838 -68.7387 22.7576 17.5293 -86.7285 18.866 27.7099 -81.9723 0 10.1547 -88.1876 5.0203 5.51315 -88.029 0 31.0105 -85.2692 0 39.043 5.56906 20.7498 32.1487 7.10717 20.7498 -10.3804 16.5955 0 -17.2746 18.1336 27.4772 10.8842 11.8513 19.4258 39.8895 6.14999 0 45.7897 5.34245 0 50.6915 10.2139 21.1115 43.0199 16.5617 17.9506 -11.3591 27.4457 0 -18.1352 29.072 27.4772 13.8564 21.3937 26.427 23.8916 18.9852 0 56.6498 18.8604 24.6248 47.5013 22.0716 8.16035 -9.48839 36.373 0 -12.6132 37.0482 32.3632 19.6296 22.3001 31.9679 24.8539 28.5353 0 62.2285 29.5423 22.8502 53.6115 32.4648 17.4913 -11.545 44.7175 0 -8.95812 40.0358 24.812 -71.4664 43.7294 23.173 -71.4663 54.2283 14.2164 -71.4666 54.2283 11.2184 -71.4666 43.7294 15.0483 -71.4667 34.5338 22.8473 -71.4664 34.5337 28.923 14.1395 43.5767 0 69.0881 44.5467 20.1457 61.3522 46.5268 0 -18.4502 55.81 21.669 -11.0311 53.7972 21.201 7.97669 61.9192 0 0.499904 63.8992 30.3654 39.1923 52.0836 0 71.4667 67.9431 17.5827 64.5225 68.5513 19.1899 15.4547 75.631 0 8.10147 76.3089 26.6901 44.6907 70.1761 0 70.7736 83.8432 17.0664 62.752 79.4026 17.0113 15.4449 83.3513 0 8.78504 82.798 24.487 42.586 76.6309 11.4357 55.9924 79.8254 0 60.4229 80.1056 0 54.8711 87.6571 10.2998 50.8807 87.4047 0 24.2314 77.8162 11.4357 28.6619 78.0964 10.2998 26.2648 85.8475 0 22.2744 85.5951 15.1433 42.3271 78.961 13.6391 38.5727 86.6262 0 48.5271 94.0833 8.86102 45.0941 93.8661 8.86102 23.9168 92.5265 0 20.4839 92.3093 11.7339 34.5055 93.1963 0 44.493 98.7963 7.49797 41.5881 98.6125 7.49797 23.6685 97.4789 0 20.7635 97.2952 9.92892 32.6283 98.0457 0 40.7618 104.105 4.74258 38.5023 103.962 15.0059 -16.1142 -61.3329 21.327 -16.114 -61.3329 9.64433 -16.1142 -75.8401 25.2921 -16.114 -75.8401 14.7475 -11.9124 -89.3857 20.8641 -11.9123 -89.3857 18.9793 -34.7475 -78.3447 21.9878 -33.1034 -85.6121 14.1833 -34.7477 -78.3447 10.1153 -33.1035 -85.6121 13.9873 -32.1901 -92.8341 18.6282 -32.19 -92.8341 16.8424 -47.3526 -88.3905 19.4219 -42.4202 -93.6712 12.7302 -47.3527 -88.3905 9.24226 -42.4202 -93.6712 12.5621 -39.8627 -101.604 16.5413 -39.8626 -101.604 16.411 -61.2871 -86.9656 18.5472 -62.3475 -92.3338 13.0055 -61.2871 -86.9656 10.1169 -62.3476 -92.3338 12.8663 -63.3778 -97.549 16.1616 -63.3778 -97.549 20.4914 -63.9766 -78.3511 21.4064 -63.9766 -88.196 9.43545 -63.9765 -78.351 7.25773 -63.9766 -88.196 11.872 -63.9766 -97.7601 17.4027 -63.9766 -97.7601 0 17.4635 -87.1649 19.5561 -18.1235 27.8489 17.3048 -18.1238 27.8489 27.0546 10.5943 31.0411 25.7269 -18.1235 35.7809 14.0012 -18.1237 35.781 24.4284 -2.66413 42.946 23.761 -18.1234 44.8372 17.1393 -18.1236 44.8372 20.3947 -51.7368 41.7123 21.595 -51.7368 36.1825 16.3514 -51.7369 41.7123 14.4353 -51.737 36.1825 16.4525 -51.737 31.3392 20.5603 -51.7369 31.3392 20.3947 -62.515 44.4525 21.595 -62.515 38.9227 16.3514 -62.5151 44.4525 14.4353 -62.5152 38.9228 16.4525 -62.5152 34.0794 20.5603 -62.5151 34.0794 23.173 -64.8897 54.2283 24.812 -64.8899 43.7294 14.2164 -64.89 54.2283 11.2184 -64.8901 43.7294 15.0483 -64.8902 34.5338 22.8473 -64.8899 34.5337 -20.7498 29.9882 -30.7255 -20.7498 30.9508 0.901026 -20.7498 -12.6239 0.901026 -20.7498 -11.5115 -30.7255 -27.4772 9.16341 0.901026 -27.4772 9.23832 -30.7255 -5.70009 34.1625 103.687 -5.83202 24.7206 101.203 -19.4969 34.2103 -49.6539 -25.818 14.7135 -49.6539 -19.4969 -4.7834 -49.6539 -19.4969 32.862 -68.7387 -25.818 17.3728 -68.7387 -21.4064 -70.1877 -88.196 -17.4027 -70.1878 -97.7601 -11.872 -70.1878 -97.7601 -7.25773 -70.1877 -88.196 -9.43545 -70.1877 -78.351 -20.4914 -70.1877 -78.3511 -4.60871 -1.9511 -68.7387 -18.866 27.7099 -81.9723 -22.7576 17.5293 -86.7285 -5.0203 5.51315 -88.029 -20.7498 32.1487 7.10717 -20.7498 -10.3804 16.5955 -27.4772 10.8842 11.8513 -19.4258 39.8895 6.14999 -21.1115 43.0199 16.5617 -17.9506 -11.3591 27.4457 -27.4772 13.8564 21.3937 -26.427 23.8916 18.9852 -24.6248 47.5013 22.0716 -8.16035 -9.48839 36.373 -32.3632 19.6296 22.3001 -31.9679 24.8539 28.5353 -22.8502 53.6115 32.4648 -17.4913 -11.545 44.7175 -24.812 -71.4664 43.7294 -22.8473 -71.4664 34.5337 -15.0483 -71.4667 34.5338 -11.2184 -71.4666 43.7294 -14.2164 -71.4666 54.2283 -23.173 -71.4663 54.2283 -28.923 14.1395 43.5767 -20.1457 61.3522 46.5268 -21.201 7.97669 61.9192 -21.669 -11.0311 53.7972 -30.3654 39.1923 52.0836 -17.5827 64.5225 68.5513 -19.1899 15.4547 75.631 -26.6901 44.6907 70.1761 -17.0664 62.752 79.4026 -17.0113 15.4449 83.3513 -24.487 42.586 76.6309 -11.4357 55.9924 79.8254 -10.2998 50.8807 87.4047 -10.2998 26.2648 85.8475 -11.4357 28.6619 78.0964 -13.6391 38.5727 86.6262 -15.1433 42.3271 78.961 -8.86102 45.0941 93.8661 -8.86102 23.9168 92.5265 -11.7339 34.5055 93.1963 -7.49797 41.5881 98.6125 -7.49797 23.6685 97.4789 -9.92892 32.6283 98.0457 -4.74258 38.5023 103.962 -21.327 -16.114 -61.3329 -15.0059 -16.1142 -61.3329 -9.64433 -16.1142 -75.8401 -25.2921 -16.114 -75.8401 -14.7475 -11.9124 -89.3857 -20.8641 -11.9123 -89.3857 -21.9878 -33.1034 -85.6121 -18.9793 -34.7475 -78.3447 -14.1833 -34.7477 -78.3447 -10.1153 -33.1035 -85.6121 -13.9873 -32.1901 -92.8341 -18.6282 -32.19 -92.8341 -19.4219 -42.4202 -93.6712 -16.8424 -47.3526 -88.3905 -12.7302 -47.3527 -88.3905 -9.24226 -42.4202 -93.6712 -12.5621 -39.8627 -101.604 -16.5413 -39.8626 -101.604 -18.5472 -62.3475 -92.3338 -16.411 -61.2871 -86.9656 -13.0055 -61.2871 -86.9656 -10.1169 -62.3476 -92.3338 -12.8663 -63.3778 -97.549 -16.1616 -63.3778 -97.549 -21.4064 -63.9766 -88.196 -20.4914 -63.9766 -78.3511 -9.43545 -63.9765 -78.351 -7.25773 -63.9766 -88.196 -11.872 -63.9766 -97.7601 -17.4027 -63.9766 -97.7601 -17.3048 -18.1238 27.8489 -19.5561 -18.1235 27.8489 -25.7269 -18.1235 35.7809 -27.0546 10.5943 31.0411 -14.0012 -18.1237 35.781 -23.761 -18.1234 44.8372 -24.4284 -2.66413 42.946 -17.1393 -18.1236 44.8372 -21.595 -51.7368 36.1825 -20.3947 -51.7368 41.7123 -16.3514 -51.7369 41.7123 -14.4353 -51.737 36.1825 -16.4525 -51.737 31.3392 -20.5603 -51.7369 31.3392 -21.595 -62.515 38.9227 -20.3947 -62.515 44.4525 -16.3514 -62.5151 44.4525 -14.4353 -62.5152 38.9228 -16.4525 -62.5152 34.0794 -20.5603 -62.5151 34.0794 -24.812 -64.8899 43.7294 -23.173 -64.8897 54.2283 -14.2164 -64.89 54.2283 -11.2184 -64.8901 43.7294 -15.0483 -64.8902 34.5338 -22.8473 -64.8899 34.5337 7.91333 43.3542 88.4348 11.9587 44.333 89.5088 10.9477 48.5109 89.5088 6.90241 47.532 88.4348 11.9917 48.7635 85.3468 7.94637 47.7846 84.2727 13.0026 44.5856 85.3468 8.95728 43.6068 84.2727 -7.91333 43.3542 88.4348 -6.90242 47.532 88.4348 -10.9477 48.5109 89.5089 -11.9587 44.333 89.5089 -7.94637 47.7846 84.2727 -11.9917 48.7635 85.3468 -8.95729 43.6068 84.2727 -13.0026 44.5856 85.3468"/>
    <Normal vector="2.98023e-08 1.79358 -0.948833 2.14563 0.101892 -0.186178 4.19955 0.300393 -0.692161 0.0190783 3.16598 -2.56358 -8.28505e-05 -0.96689 -3.78557 2.49949 -2.22865 -1.35064 -0.000155568 -3.26941 0.684154 -2.49938 -2.22841 -1.35035 -4.26329 0.276843 -0.595593 -0.149358 -3.59606 3.75492 -5.96046e-08 -2.16891 0.847642 -2.14563 0.101892 -0.186178 4.1194 -0.0413108 -0.488294 0.0482778 1.61968 -3.70281 -0.0544668 -1.60077 4.61646 -4.10758 -0.0444084 -0.369245 4.41681 -0.0896577 -0.333419 0.0132427 -0.0740716 -4.14454 -0.0149626 -0.322328 4.78699 -4.43427 -0.119955 -0.305638 4.40302 -0.142719 0.0960557 -0.00343132 -0.607873 -4.44323 0.000958964 0.291786 4.31765 -4.40096 -0.146996 0.0922414 4.40159 -0.252881 0.468569 -0.00662088 0.718463 -4.83779 4.2066e-05 -0.887996 3.8068 -4.3984 -0.25194 0.463178 4.7571 1.06301 1.13102 0.000411749 3.91759 -3.23877 -0.00152916 -1.326 4.68694 -4.75525 1.06478 1.13461 3.75952 0.840473 0.453018 -2.28882e-05 2.78621 -2.4325 -2.75373e-05 -1.43125 3.80751 -3.75946 0.840441 0.452997 3.96298 -0.602652 -0.42907 -2.63453e-05 1.38372 -3.79922 -5.26607e-05 -2.65258 3.08109 -3.96288 -0.602676 -0.429055 4.1597 3.8772 0.212283 0 6.05915 0.491013 0 5.99295 -0.771782 4.13688 3.87756 -0.4262 2.98023e-08 -5.62562 -1.10479 3.66641 -3.80039 -0.819977 3.85659 -3.89034 0.20022 4.47035e-08 -5.80604 0.269382 5.90342 -0.163303 -0.310103 5.99862 -0.100397 0.00221511 3.34747 -0.387527 4.58785 2.98023e-08 -1.26627 5.23421 0 -3.76647 3.63509 2.58742 -2.27233 3.45102 6.05158 0.258761 -0.032597 3.69584 4.02525 0.237732 3.98523 -3.83725 -0.94718 2.98023e-08 -5.57522 -2.20535 -2.98023e-08 5.74282 0.259104 5.9503 0.970411 -0.349277 3.45071 4.05117 -0.996072 3.01302 -2.65247 -0.461186 1.56407 -1.66348 1.71616 -1.53371 -1.78848 1.91006 -2.94848 -2.47438 -0.343289 -1.41474 -2.02031 -2.25333 1.44895 -1.96725 -2.17733 0 -5.31451 -2.72916 -1.85434 -4.7141 -1.23787 0 5.73918 -1.51733 2.78051 1.16243 -3.18283 2.55739 3.21089 -2.98139 0 -1.15397 -5.32182 -2.20945 -1.59558 -4.23457 -2.98023e-08 3.05067 -3.87755 7.45058e-09 2.78783 -4.4044 4.83919 2.23684 -2.47569 4.14098 -3.68071 0.631823 7.45058e-08 -6.03022 0.233586 6.03289 -0.258755 -0.0856378 2.2629 1.48812 -3.14455 -7.45058e-09 2.26019 -4.95497 0 4.5979 -3.38363 3.97382 3.06154 -3.3485 0.218299 -3.09943 -3.2839 0 -4.95437 1.32632 5.73379 -1.54141 -1.23128 4.62051 1.35307 1.66304 5.96046e-08 4.81764 -3.04514 3.76791 2.77674 -2.27936 -0.0508363 -4.3648 0.22769 1.49012e-08 -5.12178 3.13438 3.62219 -0.806294 -1.90103 5.79017 0.590062 0.629079 -5.96046e-08 5.22242 -2.54362 4.16699 3.31131 -0.98132 0.0388995 -3.58841 3.32624 7.45058e-09 -4.31235 1.44308 3.08818 -2.77624 -0.0859026 1.55207 -1.72566 1.81314 -1.51038 -1.84895 2.00208 -2.96045 -2.4688 -0.17262 -1.45002 -1.96545 -2.17468 1.53618 -1.78127 -1.89905 6.00871 -0.797984 0.816194 5.96046e-08 5.35253 -1.4585 3.83528 3.82025 -0.945343 0 -3.20398 1.01735 2.40884 -2.56852 1.10997 4.30365 -2.3638 3.21666 -1.49012e-08 -3.78851 4.7583 5.13418 0.644782 -0.891043 -5.96046e-08 5.73031 -0.165272 3.85957 4.23409 0.249309 4.42692 -3.15364 1.82323 -2.98023e-08 -5.69539 2.01659 5.66937 0.839198 1.31152 3.72529e-08 1.75013 2.2582 2.48444 1.91729 2.90239 1.4884 -1.34455 2.59138 7.45058e-09 -2.28841 2.62694 3.94409 0.173541 3.53211 1.99619 1.44817 5.27964 -1.67638e-08 1.1504 5.28823 -2.98023e-08 4.52551 3.7853 3.70453 2.96188 2.94616 0 -1.80253 2.86115 0.706852 -0.991144 3.27461 4.15621 -3.62746 -0.427354 -1.49012e-08 -5.69199 -1.47675 3.44717 0.453648 4.2241 5.82053 -0.0892621 1.37524 2.98023e-08 4.43434 4.12019 3.77817 2.85568 3.27763 3.85784 -3.68381 0.159238 -4.47035e-08 -5.55519 -0.562655 5.74491 -0.248614 1.71967 0 4.74232 3.73083 3.77911 2.83632 3.27304 3.64562 -3.45473 1.69202 -1.49012e-08 -5.4225 1.2578 5.21753 -0.42912 2.71282 7.45058e-09 2.99151 4.28856 2.53546 1.76761 4.29552 -2.63944 -1.8407 3.47453 2.66099 -2.0797 3.24786 -5.8286 -0.98401 0.0995533 5.8256 -0.811752 0.0727961 -2.78716 0.03642 -4.57831 3.05847 0.308852 -4.13544 2.87279 -3.15721 3.25343 5.66258 -1.1215 -0.300292 -2.73232 -3.03158 3.71956 -5.51605 -0.0307972 0.163561 -3.03927 2.93354 -3.96557 3.46839 1.52469 -4.06819 3.4458 -1.39013 4.19456 5.93017 -0.515635 -0.847101 -3.3411 -1.0767 4.55952 -5.54626 0.101689 -0.225764 -2.00222 1.18848 -3.29118 1.99077 1.0732 -3.40934 2.63383 3.95719 2.88992 5.62898 1.65781 -1.25229 -2.39154 4.00166 3.10654 -5.41715 2.21688 -1.03323 -1.97251 1.6515 -5.21604 2.11392 1.68206 -5.01859 1.85022 1.61581 2.07875 4.36295 2.33654 -0.505098 -1.82526 1.73345 2.33039 -4.22384 2.19024 -0.304833 -2.29693 1.57399 -3.49045 2.16791 1.75343 -2.92429 -1.86265e-09 1.04483 -6.15643 2.24284 -0.923713 -5.16789 -2.64908 -0.626851 -4.66017 5.94418 -1.50266 -0.245019 5.5865 -0.751234 -0.964304 -5.73575 -1.53054 0.225626 4.37601 -0.609079 3.48573 2.86858 -0.133024 3.68385 -2.78038 0.0683083 4.09388 3.36165 0.1386 3.91507 6.15009 -0.233057 -0.21353 -3.27451 0.379787 4.19781 -5.85494 -0.103313 -0.335207 -2.7793 -0.704838 -4.21724 2.93742 -0.603989 -3.68275 2.42597 4.57959 2.4834 5.37848 2.53372 -0.221972 -2.35897 4.50225 2.72291 -5.61658 2.04608 -0.718877 -2.67288 -0.434993 -4.69514 2.70853 -0.0567664 -4.38793 1.78622 1.68788 2.16177 4.66527 2.34278 0.0160815 -1.74374 1.8071 2.39018 -4.27724 2.15768 -0.0238309 -3.05361 0.624004 -3.86866 2.88076 1.08717 -2.98501 -4.1597 3.8772 0.212283 -4.13688 3.87756 -0.4262 -3.85659 -3.89034 0.20022 -3.66641 -3.80039 -0.819977 -5.99862 -0.100397 0.00221511 -5.90342 -0.163303 -0.310103 -3.34747 -0.387527 4.58785 -2.58742 -2.27233 3.45103 -3.69584 4.02525 0.237732 -6.05158 0.258761 -0.032597 -3.98523 -3.83725 -0.94718 -3.45071 4.05117 -0.996072 -5.9503 0.970411 -0.349277 -3.01302 -2.65247 -0.461186 -1.44895 -1.96725 -2.17733 1.41474 -2.02031 -2.25333 2.94848 -2.47438 -0.343289 1.53371 -1.78848 1.91006 -1.56407 -1.66348 1.71616 1.85434 -4.7141 -1.23787 -2.55739 3.21089 -2.98139 -2.78051 1.16243 -3.18283 2.20945 -1.59558 -4.23457 -4.83919 2.23684 -2.47569 -4.14098 -3.68071 0.631823 -6.03289 -0.258755 -0.0856378 -2.2629 1.48812 -3.14455 -3.97382 3.06154 -3.3485 -0.218299 -3.09943 -3.2839 -5.73379 -1.54141 -1.23128 -4.62051 1.35307 1.66304 -3.76791 2.77674 -2.27936 0.0508363 -4.3648 0.22769 -3.62219 -0.806294 -1.90103 -5.79017 0.590062 0.629079 -4.16699 3.31131 -0.98132 -0.0388996 -3.58841 3.32624 -3.08818 -2.77624 -0.0859026 -1.53618 -1.78127 -1.89905 1.45002 -1.96545 -2.17468 2.96045 -2.4688 -0.17262 1.51038 -1.84895 2.00208 -1.55207 -1.72566 1.81314 -6.00871 -0.797984 0.816194 -3.83528 3.82025 -0.945343 -4.30365 -2.3638 3.21666 -2.40884 -2.56852 1.10997 -5.13418 0.644782 -0.891043 -3.85957 4.23409 0.249309 -4.42692 -3.15364 1.82323 -5.66937 0.839198 1.31152 -2.48444 1.91729 2.90239 -1.4884 -1.34455 2.59138 -3.94409 0.173541 3.53211 -1.99619 1.44817 5.27964 -3.70453 2.96188 2.94616 -4.15621 -3.62746 -0.427354 -0.706852 -0.991144 3.27461 -5.82052 -0.0892621 1.37524 -3.44717 0.453648 4.2241 -3.77817 2.85568 3.27763 -3.85784 -3.68381 0.159238 -5.74491 -0.248614 1.71967 -3.77911 2.83632 3.27304 -3.64562 -3.45473 1.69202 -5.21753 -0.42912 2.71282 -2.53546 1.76761 4.29552 -2.66099 -2.0797 3.24786 2.63944 -1.8407 3.47453 5.8286 -0.98401 0.0995533 -5.8256 -0.811752 0.0727961 2.78716 0.03642 -4.57831 -3.05847 0.308852 -4.13544 -5.66258 -1.1215 -0.300292 -2.87279 -3.15721 3.25343 2.73232 -3.03158 3.71956 5.51605 -0.0307972 0.163561 3.03927 2.93354 -3.96557 -3.46839 1.52469 -4.06819 -5.93017 -0.515635 -0.847101 -3.4458 -1.39013 4.19456 3.3411 -1.0767 4.55952 5.54626 0.101689 -0.225764 2.00222 1.18848 -3.29118 -1.99077 1.0732 -3.40934 -5.62898 1.65781 -1.25229 -2.63383 3.95719 2.88992 2.39154 4.00166 3.10654 5.41715 2.21688 -1.03323 1.97251 1.6515 -5.21604 -2.11392 1.68206 -5.01859 -4.36295 2.33654 -0.505098 -1.85022 1.61581 2.07875 1.82526 1.73345 2.33039 4.22384 2.19024 -0.304833 2.29693 1.57399 -3.49045 -2.16791 1.75343 -2.92429 2.64908 -0.626851 -4.66017 -2.24284 -0.923713 -5.16789 -5.5865 -0.751234 -0.964304 -5.94418 -1.50266 -0.245019 5.73575 -1.53054 0.225626 -2.86858 -0.133024 3.68385 -4.37601 -0.609079 3.48573 2.78038 0.0683083 4.09388 -6.15009 -0.233057 -0.21353 -3.36165 0.1386 3.91507 3.27451 0.379787 4.19781 5.85494 -0.103313 -0.335207 2.7793 -0.704838 -4.21724 -2.93742 -0.603989 -3.68275 -5.37848 2.53372 -0.221972 -2.42597 4.57959 2.4834 2.35897 4.50225 2.72291 5.61657 2.04608 -0.718877 2.67288 -0.434993 -4.69514 -2.70853 -0.0567664 -4.38793 -4.66527 2.34278 0.0160815 -1.78622 1.68788 2.16177 1.74374 1.8071 2.39018 4.27724 2.15768 -0.0238309 3.05361 0.624004 -3.86866 -2.88076 1.08717 -2.98501 -1.49038 -1.97675 1.12848 1.46626 -1.26135 1.91345 0.727367 1.79218 1.91349 -2.22921 1.0767 1.12847 1.49036 1.97675 -1.12844 -1.46624 1.26133 -1.91349 2.22923 -1.07674 -1.12847 -0.727388 -1.79213 -1.91348 1.49041 -1.97677 1.12847 2.22926 1.07672 1.12846 -0.72734 1.79214 1.91347 -1.46622 -1.26133 1.91344 1.46624 1.26133 -1.91348 -1.49037 1.97675 -1.12845 0.727386 -1.79213 -1.91349 -2.22924 -1.07675 -1.12848"/>
   </IndexedFaceSet>
  </Shape>
 </Scene>
</X3D>
