<?xml version="1.0" encoding="UTF-8"?>
<!DOCTYPE X3D PUBLIC "ISO//Web3D//DTD X3D 3.1//EN" "http://www.web3d.org/specifications/x3d-3.1.dtd">
<X3D xsd:noNamespaceSchemaLocation="http://www.web3d.org/specifications/x3d-3.1.xsd" profile="Immersive" version="3.1" xmlns:xsd="http://www.w3.org/2001/XMLSchema-instance">
 <head>
  <meta content="Mesh_Lion.x3d" name="title"/>
  <meta content="Generated from Meshlab X3D Exported" name="description"/>
  <meta content="7 December 2024" name="created"/>
  <meta content="Meshlab X3D Exported, http://www.meshlab.net" name="generator"/>
 </head>
 <Scene>
  <Shape>
   <IndexedFaceSet solid="false" coordIndex="0 1 2 -1 0 2 3 -1 4 5 6 -1 4 6 7 -1 8 9 10 -1 8 10 11 -1 10 9 2 -1 10 2 1 -1 8 11 0 -1 8 0 3 -1 3 2 12 -1 3 12 13 -1 2 9 14 -1 2 14 12 -1 9 8 15 -1 9 15 14 -1 8 3 13 -1 8 13 15 -1 13 12 16 -1 13 16 17 -1 12 14 18 -1 12 18 16 -1 14 15 19 -1 14 19 18 -1 15 13 17 -1 15 17 19 -1 17 16 20 -1 17 20 21 -1 16 18 22 -1 16 22 20 -1 18 19 23 -1 18 23 22 -1 19 17 21 -1 19 21 23 -1 21 20 24 -1 21 24 25 -1 20 22 26 -1 20 26 24 -1 22 23 27 -1 22 27 26 -1 23 21 25 -1 23 25 27 -1 25 24 28 -1 25 28 29 -1 24 26 30 -1 24 30 28 -1 26 27 31 -1 26 31 30 -1 27 25 29 -1 27 29 31 -1 29 28 32 -1 29 32 33 -1 28 30 34 -1 28 34 32 -1 30 31 35 -1 30 35 34 -1 31 29 33 -1 31 33 35 -1 33 32 36 -1 33 36 37 -1 32 34 38 -1 32 38 36 -1 34 35 39 -1 34 39 38 -1 35 33 37 -1 35 37 39 -1 37 36 5 -1 37 5 4 -1 36 38 6 -1 36 6 5 -1 38 39 7 -1 38 7 6 -1 39 37 4 -1 39 4 7 -1 40 41 42 -1 40 42 43 -1 44 45 46 -1 44 46 47 -1 45 48 49 -1 45 49 46 -1 48 40 43 -1 48 43 49 -1 50 51 52 -1 50 52 53 -1 40 48 54 -1 40 54 55 -1 48 45 56 -1 48 56 54 -1 45 44 57 -1 45 57 56 -1 41 40 55 -1 41 55 58 -1 55 54 59 -1 55 59 60 -1 61 62 63 -1 61 63 64 -1 61 64 65 -1 61 65 66 -1 56 57 67 -1 56 67 68 -1 58 55 60 -1 58 60 69 -1 60 59 70 -1 60 70 71 -1 68 67 72 -1 68 72 73 -1 69 60 71 -1 69 71 74 -1 43 42 75 -1 43 75 76 -1 47 46 77 -1 47 77 78 -1 46 49 79 -1 46 79 77 -1 49 43 76 -1 49 76 79 -1 80 81 82 -1 80 82 83 -1 78 77 84 -1 78 84 85 -1 77 79 86 -1 77 86 84 -1 79 76 87 -1 79 87 86 -1 83 82 88 -1 83 88 89 -1 85 84 90 -1 85 90 91 -1 92 83 89 -1 92 89 93 -1 89 88 94 -1 89 94 95 -1 91 90 96 -1 91 96 97 -1 98 99 100 -1 98 100 101 -1 98 101 102 -1 98 102 103 -1 93 89 95 -1 93 95 104 -1 95 94 105 -1 95 105 106 -1 107 108 109 -1 107 109 110 -1 108 104 111 -1 108 111 109 -1 104 95 106 -1 104 106 111 -1 106 105 112 -1 106 112 113 -1 110 109 114 -1 110 114 115 -1 109 111 116 -1 109 116 114 -1 111 106 113 -1 111 113 116 -1 113 112 117 -1 113 117 118 -1 115 114 119 -1 115 119 120 -1 114 116 121 -1 114 121 119 -1 116 113 118 -1 116 118 121 -1 122 123 124 -1 122 124 125 -1 126 127 128 -1 126 128 129 -1 127 130 131 -1 127 131 128 -1 130 122 125 -1 130 125 131 -1 125 124 132 -1 125 132 133 -1 129 128 134 -1 129 134 135 -1 128 131 136 -1 128 136 134 -1 131 125 133 -1 131 133 136 -1 133 132 137 -1 133 137 138 -1 135 134 139 -1 135 139 140 -1 134 136 141 -1 134 141 139 -1 136 133 138 -1 136 138 141 -1 138 137 142 -1 138 142 143 -1 140 139 53 -1 140 53 52 -1 139 141 50 -1 139 50 53 -1 141 138 143 -1 141 143 50 -1 143 142 51 -1 143 51 50 -1 54 56 144 -1 54 144 145 -1 56 68 146 -1 56 146 144 -1 59 54 145 -1 59 145 147 -1 68 73 148 -1 68 148 146 -1 73 70 149 -1 73 149 148 -1 70 59 147 -1 70 147 149 -1 147 145 150 -1 147 150 151 -1 145 144 152 -1 145 152 150 -1 144 146 153 -1 144 153 152 -1 146 148 154 -1 146 154 153 -1 148 149 155 -1 148 155 154 -1 149 147 151 -1 149 151 155 -1 151 150 156 -1 151 156 157 -1 150 152 158 -1 150 158 156 -1 152 153 159 -1 152 159 158 -1 153 154 160 -1 153 160 159 -1 154 155 161 -1 154 161 160 -1 155 151 157 -1 155 157 161 -1 157 156 162 -1 157 162 163 -1 156 158 164 -1 156 164 162 -1 158 159 165 -1 158 165 164 -1 159 160 166 -1 159 166 165 -1 160 161 167 -1 160 167 166 -1 161 157 163 -1 161 163 167 -1 163 162 168 -1 163 168 169 -1 162 164 170 -1 162 170 168 -1 164 165 171 -1 164 171 170 -1 165 166 172 -1 165 172 171 -1 166 167 173 -1 166 173 172 -1 167 163 169 -1 167 169 173 -1 169 168 62 -1 169 62 61 -1 168 170 63 -1 168 63 62 -1 170 171 64 -1 170 64 63 -1 171 172 65 -1 171 65 64 -1 172 173 66 -1 172 66 65 -1 173 169 61 -1 173 61 66 -1 174 70 73 -1 174 73 72 -1 71 70 174 -1 71 174 74 -1 84 86 175 -1 84 175 176 -1 86 177 178 -1 86 178 175 -1 90 84 176 -1 90 176 179 -1 177 180 181 -1 177 181 178 -1 180 96 182 -1 180 182 181 -1 96 90 179 -1 96 179 182 -1 178 181 183 -1 178 183 184 -1 181 182 185 -1 181 185 183 -1 182 179 186 -1 182 186 185 -1 179 176 187 -1 179 187 186 -1 176 175 188 -1 176 188 187 -1 175 178 184 -1 175 184 188 -1 184 183 189 -1 184 189 190 -1 183 185 191 -1 183 191 189 -1 185 186 192 -1 185 192 191 -1 186 187 193 -1 186 193 192 -1 187 188 194 -1 187 194 193 -1 188 184 190 -1 188 190 194 -1 190 189 195 -1 190 195 196 -1 189 191 197 -1 189 197 195 -1 191 192 198 -1 191 198 197 -1 192 193 199 -1 192 199 198 -1 193 194 200 -1 193 200 199 -1 194 190 196 -1 194 196 200 -1 196 195 99 -1 196 99 98 -1 195 197 100 -1 195 100 99 -1 197 198 101 -1 197 101 100 -1 198 199 102 -1 198 102 101 -1 199 200 103 -1 199 103 102 -1 200 196 98 -1 200 98 103 -1 76 75 81 -1 76 81 80 -1 87 76 80 -1 87 80 83 -1 86 87 83 -1 86 83 92 -1 177 86 92 -1 177 92 93 -1 180 177 93 -1 180 93 104 -1 97 96 108 -1 97 108 107 -1 96 180 104 -1 96 104 108 -1 123 122 118 -1 123 118 117 -1 127 126 120 -1 127 120 119 -1 130 127 119 -1 130 119 121 -1 122 130 121 -1 122 121 118 -1 201 202 42 -1 201 42 41 -1 44 47 203 -1 44 203 204 -1 204 203 205 -1 204 205 206 -1 206 205 202 -1 206 202 201 -1 207 208 52 -1 207 52 51 -1 201 209 210 -1 201 210 206 -1 206 210 211 -1 206 211 204 -1 204 211 57 -1 204 57 44 -1 41 58 209 -1 41 209 201 -1 209 212 213 -1 209 213 210 -1 214 215 216 -1 214 216 217 -1 214 217 218 -1 214 218 219 -1 211 220 67 -1 211 67 57 -1 58 69 212 -1 58 212 209 -1 212 221 222 -1 212 222 213 -1 220 223 72 -1 220 72 67 -1 69 74 221 -1 69 221 212 -1 202 224 75 -1 202 75 42 -1 47 78 225 -1 47 225 203 -1 203 225 226 -1 203 226 205 -1 205 226 224 -1 205 224 202 -1 227 228 82 -1 227 82 81 -1 78 85 229 -1 78 229 225 -1 225 229 230 -1 225 230 226 -1 226 230 231 -1 226 231 224 -1 228 232 88 -1 228 88 82 -1 85 91 233 -1 85 233 229 -1 234 235 232 -1 234 232 228 -1 232 236 94 -1 232 94 88 -1 91 97 237 -1 91 237 233 -1 238 239 240 -1 238 240 241 -1 238 241 242 -1 238 242 243 -1 235 244 236 -1 235 236 232 -1 236 245 105 -1 236 105 94 -1 107 110 246 -1 107 246 247 -1 247 246 248 -1 247 248 244 -1 244 248 245 -1 244 245 236 -1 245 249 112 -1 245 112 105 -1 110 115 250 -1 110 250 246 -1 246 250 251 -1 246 251 248 -1 248 251 249 -1 248 249 245 -1 249 252 117 -1 249 117 112 -1 115 120 253 -1 115 253 250 -1 250 253 254 -1 250 254 251 -1 251 254 252 -1 251 252 249 -1 255 256 124 -1 255 124 123 -1 126 129 257 -1 126 257 258 -1 258 257 259 -1 258 259 260 -1 260 259 256 -1 260 256 255 -1 256 261 132 -1 256 132 124 -1 129 135 262 -1 129 262 257 -1 257 262 263 -1 257 263 259 -1 259 263 261 -1 259 261 256 -1 261 264 137 -1 261 137 132 -1 135 140 265 -1 135 265 262 -1 262 265 266 -1 262 266 263 -1 263 266 264 -1 263 264 261 -1 264 267 142 -1 264 142 137 -1 140 52 208 -1 140 208 265 -1 265 208 207 -1 265 207 266 -1 266 207 267 -1 266 267 264 -1 267 207 51 -1 267 51 142 -1 210 268 269 -1 210 269 211 -1 211 269 270 -1 211 270 220 -1 213 271 268 -1 213 268 210 -1 220 270 272 -1 220 272 223 -1 223 272 273 -1 223 273 222 -1 222 273 271 -1 222 271 213 -1 271 274 275 -1 271 275 268 -1 268 275 276 -1 268 276 269 -1 269 276 277 -1 269 277 270 -1 270 277 278 -1 270 278 272 -1 272 278 279 -1 272 279 273 -1 273 279 274 -1 273 274 271 -1 274 280 281 -1 274 281 275 -1 275 281 282 -1 275 282 276 -1 276 282 283 -1 276 283 277 -1 277 283 284 -1 277 284 278 -1 278 284 285 -1 278 285 279 -1 279 285 280 -1 279 280 274 -1 280 286 287 -1 280 287 281 -1 281 287 288 -1 281 288 282 -1 282 288 289 -1 282 289 283 -1 283 289 290 -1 283 290 284 -1 284 290 291 -1 284 291 285 -1 285 291 286 -1 285 286 280 -1 286 292 293 -1 286 293 287 -1 287 293 294 -1 287 294 288 -1 288 294 295 -1 288 295 289 -1 289 295 296 -1 289 296 290 -1 290 296 297 -1 290 297 291 -1 291 297 292 -1 291 292 286 -1 292 214 219 -1 292 219 293 -1 293 219 218 -1 293 218 294 -1 294 218 217 -1 294 217 295 -1 295 217 216 -1 295 216 296 -1 296 216 215 -1 296 215 297 -1 297 215 214 -1 297 214 292 -1 174 72 223 -1 174 223 222 -1 221 74 174 -1 221 174 222 -1 229 298 299 -1 229 299 230 -1 230 299 300 -1 230 300 301 -1 233 302 298 -1 233 298 229 -1 301 300 303 -1 301 303 304 -1 304 303 305 -1 304 305 237 -1 237 305 302 -1 237 302 233 -1 300 306 307 -1 300 307 303 -1 303 307 308 -1 303 308 305 -1 305 308 309 -1 305 309 302 -1 302 309 310 -1 302 310 298 -1 298 310 311 -1 298 311 299 -1 299 311 306 -1 299 306 300 -1 306 312 313 -1 306 313 307 -1 307 313 314 -1 307 314 308 -1 308 314 315 -1 308 315 309 -1 309 315 316 -1 309 316 310 -1 310 316 317 -1 310 317 311 -1 311 317 312 -1 311 312 306 -1 312 318 319 -1 312 319 313 -1 313 319 320 -1 313 320 314 -1 314 320 321 -1 314 321 315 -1 315 321 322 -1 315 322 316 -1 316 322 323 -1 316 323 317 -1 317 323 318 -1 317 318 312 -1 318 238 243 -1 318 243 319 -1 319 243 242 -1 319 242 320 -1 320 242 241 -1 320 241 321 -1 321 241 240 -1 321 240 322 -1 322 240 239 -1 322 239 323 -1 323 239 238 -1 323 238 318 -1 224 227 81 -1 224 81 75 -1 231 228 227 -1 231 227 224 -1 230 234 228 -1 230 228 231 -1 301 235 234 -1 301 234 230 -1 304 244 235 -1 304 235 301 -1 97 107 247 -1 97 247 237 -1 237 247 244 -1 237 244 304 -1 123 117 252 -1 123 252 255 -1 258 253 120 -1 258 120 126 -1 260 254 253 -1 260 253 258 -1 255 252 254 -1 255 254 260 -1 324 325 326 -1 324 326 327 -1 327 326 328 -1 327 328 329 -1 329 328 330 -1 329 330 331 -1 331 330 325 -1 331 325 324 -1 325 330 328 -1 325 328 326 -1 331 324 327 -1 331 327 329 -1 332 333 334 -1 332 334 335 -1 333 336 337 -1 333 337 334 -1 336 338 339 -1 336 339 337 -1 338 332 335 -1 338 335 339 -1 335 334 337 -1 335 337 339 -1 338 336 333 -1 338 333 332 -1">
    <Coordinate point="0 32.9023 -80.3735 5.48649 27.6157 -78.906 4.99744 24.1577 -86.4346 0 28.9286 -87.922 0 -65.8165 -105.302 1.08507 -66.444 -104.417 0 -67.0716 -103.531 -1.08507 -66.444 -104.417 -4.99744 24.1577 -86.4346 0 19.3867 -84.9472 0 22.3291 -77.4386 -5.48649 27.6157 -78.906 4.99744 14.014 -92.8896 0 17.4246 -96.5423 0 10.6034 -89.2369 -4.99744 14.014 -92.8896 3.69332 -5.35129 -96.3477 0 -5.81121 -100.012 0 -4.89136 -92.6831 -3.69332 -5.35129 -96.3477 3.36729 -24.9471 -93.5813 0 -25.3664 -96.9223 0 -24.5277 -90.2402 -3.36729 -24.9471 -93.5813 2.38919 -44.0818 -92.4286 0 -43.5718 -94.7627 0 -44.5917 -90.0944 -2.38919 -44.0818 -92.4286 2.06316 -56.5309 -98.4226 0 -55.3376 -100.106 0 -57.7241 -96.7395 -2.06316 -56.5309 -98.4226 3.36728 -58.1446 -99.8058 0 -56.1971 -102.553 0 -60.0921 -97.0588 -3.36728 -58.1446 -99.8058 3.36728 -61.6027 -101.881 0 -59.6552 -104.628 0 -63.5502 -99.1337 -3.36728 -61.6027 -101.881 20.7498 29.9882 -30.7255 0 36.7156 -30.7255 0 38.0145 0.901026 20.7498 30.9508 0.901026 0 -18.2389 -30.7255 20.7498 -11.5115 -30.7255 20.7498 -12.6239 0.901026 0 -19.6877 0.901026 27.4772 9.23832 -30.7255 27.4772 9.16341 0.901026 5.70009 34.1625 103.687 0 31.5333 105.302 0 22.4611 101.06 5.83202 24.7206 101.203 25.818 14.7135 -49.6539 19.4969 34.2103 -49.6539 19.4969 -4.7834 -49.6539 0 -11.1046 -49.6539 0 40.5314 -49.6539 25.818 17.3728 -68.7387 19.4969 32.862 -68.7387 21.4064 -70.1877 -88.196 20.4914 -70.1877 -78.3511 9.43545 -70.1877 -78.351 7.25773 -70.1877 -88.196 11.872 -70.1878 -97.7601 17.4027 -70.1878 -97.7601 0 -3.13817 -68.7387 4.60871 -1.9511 -68.7387 0 37.8838 -68.7387 22.7576 17.5293 -86.7285 18.866 27.7099 -81.9723 0 10.1547 -88.1876 5.0203 5.51315 -88.029 0 31.0105 -85.2692 0 39.043 5.56906 20.7498 32.1487 7.10717 20.7498 -10.3804 16.5955 0 -17.2746 18.1336 27.4772 10.8842 11.8513 19.4258 39.8895 6.14999 0 45.7897 5.34245 0 50.6915 10.2139 21.1115 43.0199 16.5617 17.9506 -11.3591 27.4457 0 -18.1352 29.072 27.4772 13.8564 21.3937 26.427 23.8916 18.9852 0 56.6498 18.8604 24.6248 47.5013 22.0716 8.16035 -9.48839 36.373 0 -12.6132 37.0482 32.3632 19.6296 22.3001 31.9679 24.8539 28.5353 0 62.2285 29.5423 22.8502 53.6115 32.4648 17.4913 -11.545 44.7175 0 -8.95812 40.0358 24.812 -71.4664 43.7294 23.173 -71.4663 54.2283 14.2164 -71.4666 54.2283 11.2184 -71.4666 43.7294 15.0483 -71.4667 34.5338 22.8473 -71.4664 34.5337 28.923 14.1395 43.5767 0 69.0881 44.5467 20.1457 61.3522 46.5268 0 -18.4502 55.81 21.669 -11.0311 53.7972 21.201 7.97669 61.9192 0 0.499904 63.8992 30.3654 39.1923 52.0836 0 71.4667 67.9431 17.5827 64.5225 68.5513 19.1899 15.4547 75.631 0 8.10147 76.3089 26.6901 44.6907 70.1761 0 70.7736 83.8432 17.0664 62.752 79.4026 17.0113 15.4449 83.3513 0 8.78504 82.798 24.487 42.586 76.6309 11.4357 55.9924 79.8254 0 60.4229 80.1056 0 54.8711 87.6571 10.2998 50.8807 87.4047 0 24.2314 77.8162 11.4357 28.6619 78.0964 10.2998 26.2648 85.8475 0 22.2744 85.5951 15.1433 42.3271 78.961 13.6391 38.5727 86.6262 0 48.5271 94.0833 8.86102 45.0941 93.8661 8.86102 23.9168 92.5265 0 20.4839 92.3093 11.7339 34.5055 93.1963 0 44.493 98.7963 7.49797 41.5881 98.6125 7.49797 23.6685 97.4789 0 20.7635 97.2952 9.92892 32.6283 98.0457 0 40.7618 104.105 4.74258 38.5023 103.962 15.0059 -16.1142 -61.3329 21.327 -16.114 -61.3329 9.64433 -16.1142 -75.8401 25.2921 -16.114 -75.8401 14.7475 -11.9124 -89.3857 20.8641 -11.9123 -89.3857 18.9793 -34.7475 -78.3447 21.9878 -33.1034 -85.6121 14.1833 -34.7477 -78.3447 10.1153 -33.1035 -85.6121 13.9873 -32.1901 -92.8341 18.6282 -32.19 -92.8341 16.8424 -47.3526 -88.3905 19.4219 -42.4202 -93.6712 12.7302 -47.3527 -88.3905 9.24226 -42.4202 -93.6712 12.5621 -39.8627 -101.604 16.5413 -39.8626 -101.604 16.411 -61.2871 -86.9656 18.5472 -62.3475 -92.3338 13.0055 -61.2871 -86.9656 10.1169 -62.3476 -92.3338 12.8663 -63.3778 -97.549 16.1616 -63.3778 -97.549 20.4914 -63.9766 -78.3511 21.4064 -63.9766 -88.196 9.43545 -63.9765 -78.351 7.25773 -63.9766 -88.196 11.872 -63.9766 -97.7601 17.4027 -63.9766 -97.7601 0 17.4635 -87.1649 19.5561 -18.1235 27.8489 17.3048 -18.1238 27.8489 27.0546 10.5943 31.0411 25.7269 -18.1235 35.7809 14.0012 -18.1237 35.781 24.4284 -2.66413 42.946 23.761 -18.1234 44.8372 17.1393 -18.1236 44.8372 20.3947 -51.7368 41.7123 21.595 -51.7368 36.1825 16.3514 -51.7369 41.7123 14.4353 -51.737 36.1825 16.4525 -51.737 31.3392 20.5603 -51.7369 31.3392 20.3947 -62.515 44.4525 21.595 -62.515 38.9227 16.3514 -62.5151 44.4525 14.4353 -62.5152 38.9228 16.4525 -62.5152 34.0794 20.5603 -62.5151 34.0794 23.173 -64.8897 54.2283 24.812 -64.8899 43.7294 14.2164 -64.89 54.2283 11.2184 -64.8901 43.7294 15.0483 -64.8902 34.5338 22.8473 -64.8899 34.5337 -20.7498 29.9882 -30.7255 -20.7498 30.9508 0.901026 -20.7498 -12.6239 0.901026 -20.7498 -11.5115 -30.7255 -27.4772 9.16341 0.901026 -27.4772 9.23832 -30.7255 -5.70009 34.1625 103.687 -5.83202 24.7206 101.203 -19.4969 34.2103 -49.6539 -25.818 14.7135 -49.6539 -19.4969 -4.7834 -49.6539 -19.4969 32.862 -68.7387 -25.818 17.3728 -68.7387 -21.4064 -70.1877 -88.196 -17.4027 -70.1878 -97.7601 -11.872 -70.1878 -97.7601 -7.25773 -70.1877 -88.196 -9.43545 -70.1877 -78.351 -20.4914 -70.1877 -78.3511 -4.60871 -1.9511 -68.7387 -18.866 27.7099 -81.9723 -22.7576 17.5293 -86.7285 -5.0203 5.51315 -88.029 -20.7498 32.1487 7.10717 -20.7498 -10.3804 16.5955 -27.4772 10.8842 11.8513 -19.4258 39.8895 6.14999 -21.1115 43.0199 16.5617 -17.9506 -11.3591 27.4457 -27.4772 13.8564 21.3937 -26.427 23.8916 18.9852 -24.6248 47.5013 22.0716 -8.16035 -9.48839 36.373 -32.3632 19.6296 22.3001 -31.9679 24.8539 28.5353 -22.8502 53.6115 32.4648 -17.4913 -11.545 44.7175 -24.812 -71.4664 43.7294 -22.8473 -71.4664 34.5337 -15.0483 -71.4667 34.5338 -11.2184 -71.4666 43.7294 -14.2164 -71.4666 54.2283 -23.173 -71.4663 54.2283 -28.923 14.1395 43.5767 -20.1457 61.3522 46.5268 -21.201 7.97669 61.9192 -21.669 -11.0311 53.7972 -30.3654 39.1923 52.0836 -17.5827 64.5225 68.5513 -19.1899 15.4547 75.631 -26.6901 44.6907 70.1761 -17.0664 62.752 79.4026 -17.0113 15.4449 83.3513 -24.487 42.586 76.6309 -11.4357 55.9924 79.8254 -10.2998 50.8807 87.4047 -10.2998 26.2648 85.8475 -11.4357 28.6619 78.0964 -13.6391 38.5727 86.6262 -15.1433 42.3271 78.961 -8.86102 45.0941 93.8661 -8.86102 23.9168 92.5265 -11.7339 34.5055 93.1963 -7.49797 41.5881 98.6125 -7.49797 23.6685 97.4789 -9.92892 32.6283 98.0457 -4.74258 38.5023 103.962 -21.327 -16.114 -61.3329 -15.0059 -16.1142 -61.3329 -9.64433 -16.1142 -75.8401 -25.2921 -16.114 -75.8401 -14.7475 -11.9124 -89.3857 -20.8641 -11.9123 -89.3857 -21.9878 -33.1034 -85.6121 -18.9793 -34.7475 -78.3447 -14.1833 -34.7477 -78.3447 -10.1153 -33.1035 -85.6121 -13.9873 -32.1901 -92.8341 -18.6282 -32.19 -92.8341 -19.4219 -42.4202 -93.6712 -16.8424 -47.3526 -88.3905 -12.7302 -47.3527 -88.3905 -9.24226 -42.4202 -93.6712 -12.5621 -39.8627 -101.604 -16.5413 -39.8626 -101.604 -18.5472 -62.3475 -92.3338 -16.411 -61.2871 -86.9656 -13.0055 -61.2871 -86.9656 -10.1169 -62.3476 -92.3338 -12.8663 -63.3778 -97.549 -16.1616 -63.3778 -97.549 -21.4064 -63.9766 -88.196 -20.4914 -63.9766 -78.3511 -9.43545 -63.9765 -78.351 -7.25773 -63.9766 -88.196 -11.872 -63.9766 -97.7601 -17.4027 -63.9766 -97.7601 -17.3048 -18.1238 27.8489 -19.5561 -18.1235 27.8489 -25.7269 -18.1235 35.7809 -27.0546 10.5943 31.0411 -14.0012 -18.1237 35.781 -23.761 -18.1234 44.8372 -24.4284 -2.66413 42.946 -17.1393 -18.1236 44.8372 -21.595 -51.7368 36.1825 -20.3947 -51.7368 41.7123 -16.3514 -51.7369 41.7123 -14.4353 -51.737 36.1825 -16.4525 -51.737 31.3392 -20.5603 -51.7369 31.3392 -21.595 -62.515 38.9227 -20.3947 -62.515 44.4525 -16.3514 -62.5151 44.4525 -14.4353 -62.5152 38.9228 -16.4525 -62.5152 34.0794 -20.5603 -62.5151 34.0794 -24.812 -64.8899 43.7294 -23.173 -64.8897 54.2283 -14.2164 -64.89 54.2283 -11.2184 -64.8901 43.7294 -15.0483 -64.8902 34.5338 -22.8473 -64.8899 34.5337 7.91333 43.3542 88.4348 11.9587 44.333 89.5088 10.9477 48.5109 89.5088 6.90241 47.532 88.4348 11.9917 48.7635 85.3468 7.94637 47.7846 84.2727 13.0026 44.5856 85.3468 8.95728 43.6068 84.2727 -7.91333 43.3542 88.4348 -6.90242 47.532 88.4348 -10.9477 48.5109 89.5089 -11.9587 44.333 89.5089 -7.94637 47.7846 84.2727 -11.9917 48.7635 85.3468 -8.95729 43.6068 84.2727 -13.0026 44.5856 85.3468"/>
    <Normal vector="-1.19209e-07 2.52566 -1.33576 1.40558 -0.0284531 -0.07602 4.77241 -0.3818 0.559241 0.664752 2.54362 -2.50704 -0.658015 -1.38586 -3.40234 2.00907 -1.2147 -1.62485 0.693044 -3.31974 0.195042 -2.0441 -1.85933 -0.425723 -4.78892 0.421041 -0.715981 -0.648247 -2.44747 2.50234 0 -2.63947 1.03168 -1.40558 -0.0284531 -0.07602 3.97378 0.241539 0.14225 -0.00416082 1.58308 -4.07102 -0.0194726 -1.63349 4.16172 -3.95015 -0.291952 -0.0515529 4.11005 0.097148 -0.0580585 0.0463369 -0.0288787 -4.32771 -0.0393878 -0.243863 4.2803 -4.11699 -0.36989 0.0106518 4.22406 -0.202664 0.0183624 -0.00784069 -0.575156 -4.22704 0.00510502 0.280114 4.24154 -4.22132 -0.092378 -0.00386786 4.19816 -0.509201 -0.084167 0.000734687 0.6414 -4.08268 0.00292003 -0.953399 4.04891 -4.20182 0.197202 0.0503919 4.05708 0.797289 0.563446 -0.0675868 3.07838 -2.72175 0.0360253 -1.27176 4.13802 -4.02551 1.00933 0.852828 4.04576 0.997617 0.835571 0.0738431 3.28599 -2.59191 -0.0430216 -1.39313 4.04722 -4.07658 0.895236 0.619735 4.16234 -0.679218 -0.454582 -0.0480638 1.3387 -4.06727 0.0130342 -2.78117 3.17342 -4.12731 -0.763255 -0.439269 3.78916 3.74947 0.127935 0 5.63377 0.685534 5.96046e-08 5.65049 -0.515811 3.81548 3.70129 -0.47238 0 -5.58396 -0.82859 3.74 -3.64621 -0.894803 3.81392 -3.72332 0.137567 0 -5.64836 0.453795 5.68632 0.00215119 -0.348461 5.72488 -0.00935739 -0.0715329 3.10382 -0.791426 4.46843 0 -0.343648 5.75285 -2.98023e-08 -3.03869 4.41493 1.70973 -2.24659 2.2473 6.16948 -0.364355 1.06217 3.71576 3.8119 0.305825 1.79407 -4.45154 0.0727019 -2.98023e-08 -5.3631 -2.07039 0 5.69 -0.0234022 5.73464 0.852109 -0.161347 3.53251 3.9344 -0.896385 2.84058 -4 -0.679732 1.99142 -1 1.18509 -0.976382 -2 2.21599 -2.85346 -2 -0.00255391 -1.80132 -2 -1.86904 0.922434 -1 -2.38614 0 -5.24491 -2.34838 -2.9191 -3.62145 -1.35502 2.98023e-08 5.51577 -1.67581 3.90851 1.23818 -3.74584 1.5741 2.76315 -2.81256 1.86265e-08 -3.1905 -3.80637 -1.09945 -0.839164 -4.71093 -7.45058e-09 2.37187 -2.64302 2.23517e-08 3.55682 -2.75309 4.19804 1.7482 -2.75529 3.81172 -3.69879 0.587932 0 -5.64872 0.116463 5.72656 -0.205202 -0.218683 2.62712 1.94354 -2.45848 -1.49012e-08 1.30911 -4.91631 2.98023e-08 4.63637 -3.07758 3.85755 2.54853 -4.14713 0.673501 -3.43933 -1.8808 5.96046e-08 -4.97885 2.06652 6.25738 -1.43845 -3.20168 4.26695 0.735436 -1.83145 -5.96046e-08 4.43612 -3.28771 3.79251 3.09263 -2.09492 -1.6663 -3.34854 0.591998 -2.86382e-08 -5.50646 1.63307 3.99864 -0.43071 -1.54389 5.55141 -0.245111 0.00353399 0 4.99751 -2.49242 3.9259 3.24086 -0.98216 0.443698 -4.2373 1.81337 0 -5.67539 -1.14658 2.94401 -4 -0.263603 1.9761 -1 1.30849 -0.961509 -2 2.2746 -2.84621 -2 0.1647 -1.84621 -2 -1.76896 0.977944 -1 -2.20893 6.54835 -0.608762 -0.110528 8.9407e-08 5.23104 -1.7462 3.91369 3.50426 -0.976458 1.49012e-08 -3.37252 2.88147 3.25838 -2.93538 0.782628 3.58463 -2.1143 3.1299 -5.96046e-08 -3.98966 3.76191 5.56781 0.544446 0.804275 0 5.52404 -0.186411 3.88451 3.96234 0.412582 3.85434 -3.12784 1.85772 0 -5.32506 1.37856 5.55052 0.567754 1.26046 2.98023e-08 3.21856 2.31636 2.5461 1.18078 3.46871 1.40301 -1.42866 3.37347 0 -0.627224 3.95904 3.13356 0.0556001 3.69473 2.01399 1.47303 4.35529 0 0.685365 5.02578 2.98023e-08 4.42935 3.60065 3.61892 2.81452 2.89662 0 -3.00985 0.96867 1.93011 -0.66445 2.75668 3.94578 -3.51356 -0.412756 -5.96046e-08 -5.42413 -1.41914 2.90045 0.47471 3.6018 5.59498 -0.129017 1.31366 2.98023e-08 4.18295 3.93896 3.5456 2.78313 3.11602 3.89266 -3.54105 0.169224 1.19209e-07 -5.53253 -0.272592 5.51059 -0.156175 1.68643 0 4.40827 3.61961 3.55264 2.83415 3.12689 3.58667 -3.38084 1.85712 0 -5.3123 1.65978 5.1946 -0.167272 2.55009 2.98023e-08 3.16858 4.23783 2.29785 1.25837 3.62586 -1.1955 -2.47182 3.03159 3.57933 -2.36108 2.5068 -5.25774 -1.05231 0.28367 5.67396 -0.807389 -0.181918 -2.70549 -0.133397 -3.87969 2.86411 0.313336 -3.91735 2.71056 -2.97102 3.03947 5.51196 -1.00279 -0.382739 -2.65574 -2.71977 3.43491 -5.29268 0.204647 0.155647 -2.6954 2.36674 -3.3401 2.7909 1.27721 -3.7018 2.72604 -1.15824 3.59668 5.51358 -0.243557 -0.0770215 -2.59357 -1.35934 3.99817 -5.27653 -0.202126 0.168164 -2.60792 1.17728 -3.67139 2.77349 1.2895 -3.41747 2.30982 2.88253 2.43453 4.39983 2.25484 -0.620321 -1.72953 2.96249 2.97093 -4.50929 1.95122 -0.111904 -2.53311 0.894009 -4.1241 2.27995 1.22258 -3.9697 1.95669 2.70715 2.46113 4.75148 2.17977 -0.84335 -2.38966 2.8048 2.11104 -4.38103 2.34463 -0.889031 -2.35975 1.43915 -4.1817 2.52344 1.31695 -3.99722 0 1.4866 -7.79256 2.16411 -0.674955 -4.23737 -2.72378 -0.849142 -4.48649 5.6243 -1.38322 0.213176 5.62671 -0.720451 -0.538948 -5.15088 -0.900493 0.046139 3.94148 -0.832258 1.99037 3.00015 -0.241172 3.60755 -2.53585 -0.236588 4.169 2.91694 0.220511 3.56723 5.63664 -0.199721 -0.554516 -2.82808 0.21888 3.94056 -5.59184 -0.14471 -0.168635 -2.76479 -0.726388 -4.08449 2.82203 -0.627847 -3.86585 2.4342 3.16923 1.95042 4.62039 2.36078 -0.189646 -1.80468 3.3322 2.76526 -4.90298 1.81505 -0.29311 -2.67225 -0.389756 -4.0465 2.42901 0.605672 -3.43948 1.95325 2.71504 2.56127 4.88907 2.21107 -0.125282 -2.35469 2.83583 2.15357 -4.50559 2.21175 -0.577458 -2.59262 0.666159 -4.06198 2.68207 0.293889 -3.5374 -3.78916 3.74947 0.127935 -3.81548 3.70129 -0.47238 -3.81392 -3.72332 0.137567 -3.74 -3.64621 -0.894803 -5.72488 -0.00935739 -0.0715329 -5.68632 0.00215119 -0.348461 -3.10382 -0.791426 4.46843 -1.70973 -2.24659 2.2473 -3.71576 3.8119 0.305825 -6.16948 -0.364355 1.06217 -1.79407 -4.45154 0.0727019 -3.53251 3.9344 -0.896385 -5.73464 0.852109 -0.161347 -2.84058 -4 -0.679746 -0.922435 -1 -2.38614 1.80132 -2 -1.86905 2.85345 -2 -0.00256613 0.976382 -2 2.21598 -1.99142 -1 1.18509 2.9191 -3.62145 -1.35502 -1.5741 2.76315 -2.81256 -3.90851 1.23818 -3.74584 1.09945 -0.839164 -4.71093 -4.19804 1.7482 -2.75529 -3.81172 -3.69879 0.587932 -5.72656 -0.205202 -0.218683 -2.62712 1.94354 -2.45848 -3.85755 2.54853 -4.14713 -0.673501 -3.43933 -1.8808 -6.25738 -1.43845 -3.20168 -4.26695 0.735436 -1.83145 -3.79251 3.09263 -2.09492 1.6663 -3.34854 0.591998 -3.99864 -0.43071 -1.54389 -5.55141 -0.245111 0.00353399 -3.9259 3.24086 -0.98216 -0.443698 -4.2373 1.81337 -2.944 -4 -0.263583 -0.977934 -1 -2.20892 1.84624 -2 -1.76894 2.84621 -2 0.164701 0.961488 -2 2.27461 -1.9761 -1 1.3085 -6.54835 -0.608762 -0.110528 -3.91369 3.50426 -0.976458 -3.58463 -2.1143 3.1299 -3.25838 -2.93538 0.782628 -5.56781 0.544446 0.804275 -3.88451 3.96234 0.412582 -3.85434 -3.12784 1.85772 -5.55052 0.567754 1.26046 -2.5461 1.18078 3.46871 -1.40301 -1.42866 3.37347 -3.13356 0.0556001 3.69473 -2.01399 1.47303 4.35529 -3.61892 2.81452 2.89662 -3.94578 -3.51356 -0.412756 -1.93011 -0.66445 2.75668 -5.59498 -0.129017 1.31366 -2.90045 0.47471 3.6018 -3.5456 2.78313 3.11602 -3.89266 -3.54105 0.169224 -5.51059 -0.156175 1.68643 -3.55264 2.83415 3.12689 -3.58667 -3.38084 1.85712 -5.1946 -0.167272 2.55009 -2.29785 1.25837 3.62586 -3.57933 -2.36108 2.5068 1.1955 -2.47182 3.03159 5.25774 -1.05231 0.28367 -5.67396 -0.807389 -0.181918 2.70549 -0.133397 -3.87969 -2.86411 0.313336 -3.91735 -5.51196 -1.00279 -0.382739 -2.71056 -2.97102 3.03947 2.65574 -2.71977 3.43491 5.29268 0.204647 0.155647 2.6954 2.36674 -3.3401 -2.7909 1.27721 -3.7018 -5.51358 -0.243557 -0.0770215 -2.72604 -1.15824 3.59668 2.59357 -1.35934 3.99817 5.27653 -0.202126 0.168164 2.60792 1.17728 -3.67139 -2.77349 1.2895 -3.41747 -4.39983 2.25484 -0.620321 -2.30982 2.88253 2.43453 1.72953 2.96249 2.97093 4.50929 1.95122 -0.111904 2.53311 0.894009 -4.1241 -2.27995 1.22258 -3.9697 -4.75148 2.17977 -0.84335 -1.95669 2.70715 2.46113 2.38966 2.8048 2.11104 4.38103 2.34463 -0.889031 2.35975 1.43915 -4.1817 -2.52344 1.31695 -3.99722 2.72378 -0.849142 -4.48649 -2.16411 -0.674955 -4.23737 -5.62671 -0.720451 -0.538948 -5.6243 -1.38322 0.213176 5.15088 -0.900493 0.046139 -3.00015 -0.241172 3.60755 -3.94148 -0.832258 1.99037 2.53585 -0.236588 4.169 -5.63664 -0.199721 -0.554516 -2.91694 0.220511 3.56723 2.82808 0.21888 3.94056 5.59184 -0.14471 -0.168635 2.76479 -0.726388 -4.08449 -2.82203 -0.627847 -3.86585 -4.62039 2.36078 -0.189646 -2.4342 3.16923 1.95042 1.80468 3.3322 2.76526 4.90298 1.81505 -0.29311 2.67225 -0.389756 -4.0465 -2.42901 0.605672 -3.43948 -4.88907 2.21107 -0.125282 -1.95325 2.71504 2.56127 2.35469 2.83583 2.15357 4.50559 2.21175 -0.577458 2.59262 0.666159 -4.06198 -2.68207 0.293889 -3.5374 -1.19167 -1.31721 1.68668 2.10974 -1.54722 1.46804 0.220201 1.08214 2.18643 -2.59547 1.42969 0.468519 1.65474 2.45811 -0.468522 -0.690567 0.861762 -2.18643 1.66204 -0.626696 -1.68668 -1.169 -2.34058 -1.46803 1.19168 -1.31721 1.68668 2.59547 1.42969 0.468518 -0.220196 1.08214 2.18643 -2.10973 -1.54722 1.46804 0.690564 0.861765 -2.18643 -1.65474 2.45812 -0.468523 1.169 -2.34058 -1.46803 -1.66204 -0.626693 -1.68668"/>
   </IndexedFaceSet>
  </Shape>
 </Scene>
</X3D>
