<?xml version="1.0" encoding="UTF-8"?>
<!DOCTYPE X3D PUBLIC "ISO//Web3D//DTD X3D 3.1//EN" "http://www.web3d.org/specifications/x3d-3.1.dtd">
<X3D xsd:noNamespaceSchemaLocation="http://www.web3d.org/specifications/x3d-3.1.xsd" xmlns:xsd="http://www.w3.org/2001/XMLSchema-instance" profile="Immersive" version="3.1">
 <head>
  <meta name="title" content="model.x3d"/>
  <meta name="description" content="Generated from Meshlab X3D Exported"/>
  <meta name="created" content="7 December 2024"/>
  <meta name="generator" content="Meshlab X3D Exported, http://www.meshlab.net"/>
 </head>
 <Scene>
  <Shape>
   <IndexedFaceSet coordIndex="0 1 2 -1 3 4 5 -1 6 7 2 -1 8 9 10 -1 11 12 2 -1 1 13 6 -1 14 15 8 -1 16 5 17 -1 16 18 7 -1 18 8 7 -1 18 16 14 -1 18 14 19 -1 8 19 14 -1 18 19 8 -1 15 14 16 -1 20 8 10 -1 21 22 7 -1 21 7 8 -1 22 2 7 -1 22 23 24 -1 22 24 25 -1 22 25 26 -1 2 26 11 -1 22 26 2 -1 10 11 20 -1 21 27 23 -1 21 23 22 -1 28 29 30 -1 28 30 31 -1 32 3 28 -1 32 33 9 -1 34 35 1 -1 36 10 33 -1 37 38 39 -1 37 39 10 -1 37 10 36 -1 13 40 41 -1 40 42 41 -1 43 44 45 -1 45 29 42 -1 35 40 13 -1 41 42 3 -1 4 15 17 -1 46 47 48 -1 46 48 49 -1 41 49 48 -1 46 49 41 -1 50 48 47 -1 41 48 51 -1 52 47 46 -1 53 52 5 -1 5 46 3 -1 3 46 41 -1 4 17 5 -1 15 16 17 -1 8 15 54 -1 8 54 55 -1 55 54 4 -1 55 4 3 -1 8 55 9 -1 32 55 3 -1 9 55 32 -1 4 54 15 -1 32 31 33 -1 33 31 30 -1 33 30 43 -1 43 30 44 -1 45 44 29 -1 42 29 28 -1 42 28 3 -1 10 9 33 -1 34 33 43 -1 31 32 28 -1 40 45 42 -1 43 45 40 -1 29 44 30 -1 34 43 35 -1 35 43 40 -1 6 56 53 -1 6 53 5 -1 1 35 13 -1 57 36 34 -1 57 34 1 -1 33 34 36 -1 12 39 38 -1 0 57 1 -1 6 58 56 -1 59 50 60 -1 59 56 50 -1 59 47 52 -1 58 51 61 -1 58 61 56 -1 56 61 51 -1 13 51 58 -1 50 51 48 -1 56 51 50 -1 13 58 6 -1 6 5 7 -1 7 5 16 -1 46 5 52 -1 52 53 62 -1 59 62 56 -1 52 62 59 -1 1 6 2 -1 47 60 50 -1 59 60 47 -1 56 62 53 -1 41 51 13 -1 63 20 11 -1 21 8 63 -1 25 64 26 -1 26 65 11 -1 8 20 63 -1 27 21 63 -1 65 64 66 -1 11 66 63 -1 67 66 64 -1 67 25 24 -1 27 24 23 -1 64 65 26 -1 11 65 66 -1 25 67 64 -1 66 67 24 -1 63 66 27 -1 27 66 24 -1 37 68 38 -1 12 11 10 -1 12 10 39 -1 0 37 36 -1 0 36 57 -1 2 68 0 -1 12 68 2 -1 38 68 12 -1 0 68 37 -1 69 70 71 -1 72 73 74 -1 70 75 76 -1 70 76 71 -1 77 78 79 -1 77 79 80 -1 76 81 71 -1 82 83 84 -1 85 86 83 -1 87 83 86 -1 87 88 89 -1 87 90 84 -1 77 91 92 -1 77 92 90 -1 85 69 86 -1 69 85 70 -1 93 75 94 -1 93 94 91 -1 81 95 96 -1 81 96 97 -1 81 97 98 -1 81 98 99 -1 93 76 75 -1 73 94 74 -1 100 101 84 -1 102 100 103 -1 72 101 73 -1 71 99 98 -1 81 99 71 -1 71 98 69 -1 69 98 97 -1 80 97 96 -1 69 97 80 -1 80 96 77 -1 77 96 95 -1 77 95 93 -1 93 95 81 -1 93 81 76 -1 86 80 79 -1 69 80 86 -1 86 79 87 -1 87 79 78 -1 87 78 90 -1 90 78 77 -1 91 77 93 -1 83 89 88 -1 87 89 83 -1 83 88 84 -1 84 88 87 -1 84 90 92 -1 84 92 100 -1 100 92 103 -1 102 103 91 -1 102 91 94 -1 91 103 92 -1 101 100 102 -1 73 102 94 -1 101 102 73 -1 104 105 75 -1 75 105 74 -1 75 74 94 -1 101 72 104 -1 106 107 75 -1 101 108 109 -1 110 106 75 -1 101 109 82 -1 82 109 70 -1 105 104 72 -1 84 101 82 -1 83 82 85 -1 85 82 70 -1 74 105 72 -1 111 108 112 -1 111 110 109 -1 106 110 107 -1 75 112 104 -1 107 112 75 -1 101 104 108 -1 109 108 111 -1 110 111 107 -1 112 107 111 -1 109 110 75 -1 70 109 75 -1 108 104 112 -1 113 114 115 -1 116 117 118 -1 119 120 115 -1 121 122 123 -1 124 113 115 -1 125 126 127 -1 128 129 125 -1 130 131 132 -1 124 133 113 -1 134 135 118 -1 130 136 134 -1 137 138 139 -1 122 131 137 -1 122 137 140 -1 141 131 142 -1 117 143 144 -1 145 146 147 -1 120 119 148 -1 116 120 117 -1 149 138 148 -1 150 140 139 -1 149 139 138 -1 149 148 119 -1 129 150 149 -1 151 133 123 -1 151 123 152 -1 128 153 114 -1 128 125 127 -1 154 155 124 -1 155 136 130 -1 155 130 132 -1 155 132 121 -1 155 121 156 -1 157 158 135 -1 147 159 160 -1 145 147 142 -1 141 159 161 -1 142 162 163 -1 142 163 141 -1 141 161 138 -1 138 161 164 -1 148 164 146 -1 138 164 148 -1 148 146 120 -1 120 146 145 -1 117 145 142 -1 120 145 117 -1 117 144 118 -1 118 144 165 -1 118 165 134 -1 134 165 143 -1 130 143 142 -1 134 143 130 -1 130 142 131 -1 135 134 157 -1 143 165 144 -1 116 118 135 -1 136 157 134 -1 158 157 136 -1 135 158 154 -1 154 158 136 -1 116 135 154 -1 123 156 121 -1 155 156 133 -1 133 156 123 -1 122 121 132 -1 122 132 131 -1 154 136 155 -1 124 155 133 -1 166 167 168 -1 168 167 152 -1 140 152 123 -1 168 152 140 -1 140 123 122 -1 113 133 151 -1 113 151 114 -1 114 151 166 -1 128 166 168 -1 114 166 128 -1 128 168 129 -1 150 168 140 -1 129 168 150 -1 152 167 166 -1 152 166 151 -1 115 114 153 -1 115 153 127 -1 127 153 128 -1 115 127 126 -1 115 126 119 -1 119 126 169 -1 119 169 149 -1 149 169 129 -1 139 140 137 -1 149 150 139 -1 125 129 169 -1 125 169 126 -1 164 161 159 -1 146 164 159 -1 137 141 138 -1 131 141 137 -1 117 142 143 -1 163 160 170 -1 163 162 160 -1 146 159 147 -1 160 159 170 -1 162 142 147 -1 160 162 147 -1 141 170 159 -1 163 170 141 -1 116 154 115 -1 115 154 124 -1 120 116 115 -1 171 172 173 -1 174 175 176 -1 177 178 173 -1 179 180 181 -1 179 181 182 -1 178 183 171 -1 184 185 186 -1 187 188 189 -1 190 191 192 -1 174 193 194 -1 174 194 175 -1 195 196 197 -1 175 194 198 -1 199 188 197 -1 185 184 200 -1 185 200 201 -1 202 203 198 -1 204 205 186 -1 181 206 182 -1 190 189 207 -1 189 188 199 -1 207 208 206 -1 208 199 209 -1 206 200 210 -1 172 171 211 -1 212 213 182 -1 214 215 216 -1 214 216 217 -1 214 210 184 -1 218 219 213 -1 219 220 221 -1 222 191 223 -1 224 222 220 -1 183 224 218 -1 225 194 193 -1 177 225 193 -1 177 193 174 -1 177 174 224 -1 225 177 205 -1 172 226 173 -1 173 226 217 -1 173 217 177 -1 177 217 216 -1 186 216 215 -1 177 216 186 -1 186 215 184 -1 184 215 214 -1 210 214 227 -1 210 227 228 -1 228 227 229 -1 212 229 172 -1 228 229 212 -1 206 228 182 -1 210 228 206 -1 182 228 212 -1 229 227 214 -1 184 210 200 -1 211 212 172 -1 213 212 211 -1 172 229 214 -1 226 172 214 -1 218 211 171 -1 213 211 218 -1 171 173 178 -1 217 226 214 -1 230 201 209 -1 209 201 200 -1 209 200 206 -1 186 185 204 -1 231 204 230 -1 232 230 209 -1 231 230 232 -1 177 186 205 -1 225 205 231 -1 225 231 198 -1 230 204 185 -1 232 209 199 -1 208 209 206 -1 201 230 185 -1 233 232 197 -1 197 232 199 -1 234 231 232 -1 234 232 233 -1 204 231 205 -1 195 197 188 -1 203 233 196 -1 175 196 195 -1 198 196 175 -1 175 195 187 -1 187 195 188 -1 206 181 180 -1 207 180 179 -1 206 180 207 -1 207 179 223 -1 223 179 235 -1 223 235 222 -1 199 208 207 -1 199 207 189 -1 187 192 176 -1 176 192 191 -1 176 191 222 -1 207 223 190 -1 189 190 187 -1 175 187 176 -1 224 176 222 -1 174 176 224 -1 192 187 190 -1 220 222 235 -1 221 235 179 -1 220 235 221 -1 190 223 191 -1 213 221 179 -1 219 221 213 -1 224 220 219 -1 224 219 218 -1 224 183 178 -1 224 178 177 -1 183 218 171 -1 182 213 179 -1 225 198 194 -1 196 233 197 -1 202 234 233 -1 202 236 234 -1 196 198 203 -1 233 203 202 -1 231 236 202 -1 234 236 231 -1 198 231 202 -1 237 238 239 -1 237 239 240 -1 241 242 243 -1 241 243 244 -1 241 244 245 -1 241 245 246 -1 239 247 240 -1 248 249 250 -1 247 251 237 -1 247 237 240 -1 252 253 254 -1 255 256 257 -1 258 259 239 -1 259 255 260 -1 238 261 262 -1 259 263 256 -1 264 265 266 -1 253 252 257 -1 264 267 268 -1 264 268 269 -1 264 269 270 -1 264 270 271 -1 253 266 272 -1 273 257 263 -1 274 275 273 -1 249 274 273 -1 249 273 262 -1 248 276 249 -1 249 276 277 -1 249 277 274 -1 274 277 278 -1 274 278 275 -1 279 275 278 -1 279 280 266 -1 279 266 265 -1 280 241 281 -1 242 277 276 -1 241 278 277 -1 282 250 261 -1 283 284 285 -1 243 276 248 -1 286 244 282 -1 261 238 251 -1 261 251 286 -1 261 286 282 -1 251 238 237 -1 286 251 247 -1 286 247 245 -1 264 271 265 -1 265 271 270 -1 275 270 269 -1 265 270 275 -1 273 269 268 -1 275 269 273 -1 257 268 267 -1 273 268 257 -1 257 267 253 -1 253 267 264 -1 253 264 266 -1 287 260 254 -1 288 254 260 -1 289 287 290 -1 289 290 272 -1 272 290 253 -1 257 252 288 -1 257 288 255 -1 255 288 260 -1 291 239 260 -1 259 260 239 -1 254 288 252 -1 256 255 259 -1 257 256 263 -1 273 263 292 -1 262 292 293 -1 273 292 262 -1 238 293 258 -1 262 293 238 -1 238 258 239 -1 250 294 285 -1 283 294 250 -1 250 285 248 -1 248 285 284 -1 248 284 244 -1 244 284 283 -1 282 283 250 -1 244 283 282 -1 279 265 275 -1 295 291 296 -1 239 295 296 -1 239 296 281 -1 281 296 280 -1 241 280 279 -1 241 279 278 -1 281 246 247 -1 247 246 245 -1 286 245 244 -1 248 244 243 -1 276 243 242 -1 277 242 241 -1 239 281 247 -1 280 296 272 -1 280 272 266 -1 295 239 291 -1 289 260 287 -1 289 272 291 -1 291 272 296 -1 253 290 254 -1 254 290 287 -1 260 289 291 -1 246 281 241 -1 249 262 250 -1 261 250 262 -1 285 294 283 -1 258 293 292 -1 259 258 292 -1 259 292 263 -1 297 298 299 -1 297 299 300 -1 301 302 303 -1 301 303 304 -1 301 304 305 -1 301 305 306 -1 307 308 309 -1 310 311 312 -1 313 309 314 -1 313 314 315 -1 313 315 316 -1 317 318 319 -1 320 321 322 -1 320 322 323 -1 324 325 326 -1 324 326 327 -1 317 328 329 -1 326 330 331 -1 327 331 332 -1 333 334 335 -1 333 335 336 -1 333 336 301 -1 333 301 306 -1 333 306 315 -1 333 315 314 -1 309 308 334 -1 309 334 333 -1 309 333 314 -1 334 308 307 -1 334 307 319 -1 337 338 328 -1 339 340 338 -1 298 312 311 -1 298 311 340 -1 339 341 342 -1 339 342 343 -1 317 319 307 -1 330 340 311 -1 344 345 346 -1 344 347 348 -1 344 348 349 -1 350 332 331 -1 350 331 330 -1 303 351 348 -1 303 348 347 -1 303 347 304 -1 352 332 349 -1 351 353 352 -1 351 352 349 -1 351 349 348 -1 354 352 353 -1 354 353 351 -1 354 351 303 -1 354 303 302 -1 354 302 301 -1 354 301 336 -1 355 305 304 -1 355 304 347 -1 356 357 310 -1 313 356 312 -1 355 316 315 -1 355 315 306 -1 355 306 305 -1 355 356 313 -1 355 313 316 -1 358 359 360 -1 360 346 345 -1 350 345 344 -1 361 362 350 -1 347 344 363 -1 347 363 357 -1 357 363 364 -1 365 358 360 -1 357 364 310 -1 366 323 318 -1 367 368 369 -1 370 371 335 -1 369 322 372 -1 352 322 321 -1 373 322 352 -1 332 321 320 -1 352 321 332 -1 327 320 366 -1 332 320 327 -1 329 366 318 -1 327 366 329 -1 331 327 326 -1 330 326 325 -1 338 325 324 -1 330 325 338 -1 328 324 329 -1 338 324 328 -1 317 329 318 -1 299 343 300 -1 300 343 342 -1 300 342 307 -1 307 342 341 -1 328 341 337 -1 307 341 328 -1 338 337 339 -1 340 339 299 -1 340 299 298 -1 307 328 317 -1 330 338 340 -1 339 337 341 -1 309 300 307 -1 297 300 309 -1 343 299 339 -1 312 298 297 -1 313 297 309 -1 312 297 313 -1 310 360 311 -1 311 360 330 -1 330 360 361 -1 374 364 363 -1 356 310 312 -1 347 357 355 -1 355 357 356 -1 346 363 344 -1 334 318 335 -1 319 318 334 -1 323 366 320 -1 327 329 324 -1 354 373 352 -1 336 335 354 -1 322 368 323 -1 335 371 375 -1 373 335 376 -1 373 376 372 -1 370 375 371 -1 370 318 323 -1 375 369 372 -1 376 375 372 -1 322 369 368 -1 367 369 375 -1 323 368 367 -1 370 367 375 -1 323 367 370 -1 376 335 375 -1 335 318 370 -1 373 372 322 -1 354 335 373 -1 377 378 374 -1 365 310 364 -1 361 360 345 -1 358 379 346 -1 378 364 374 -1 360 359 346 -1 363 346 379 -1 363 379 374 -1 374 379 377 -1 378 377 380 -1 365 380 358 -1 378 380 365 -1 364 378 365 -1 380 377 379 -1 310 365 360 -1 358 380 379 -1 346 359 358 -1 350 362 345 -1 345 362 361 -1 349 350 344 -1 332 350 349 -1 361 350 330 -1 381 382 383 -1 384 385 386 -1 387 388 386 -1 389 390 391 -1 391 381 392 -1 393 394 395 -1 396 397 398 -1 381 393 382 -1 399 400 401 -1 396 402 400 -1 390 399 401 -1 390 401 403 -1 404 390 389 -1 394 405 406 -1 394 406 407 -1 393 400 402 -1 408 402 405 -1 384 409 397 -1 409 406 405 -1 407 406 409 -1 410 407 411 -1 410 411 388 -1 410 387 395 -1 396 412 402 -1 402 412 413 -1 402 413 405 -1 405 413 398 -1 409 398 397 -1 405 398 409 -1 385 397 414 -1 385 414 389 -1 389 414 404 -1 399 404 396 -1 399 396 400 -1 390 403 391 -1 391 403 415 -1 391 415 393 -1 393 415 401 -1 393 401 400 -1 404 399 390 -1 396 404 414 -1 396 414 397 -1 385 389 391 -1 385 391 392 -1 416 386 385 -1 381 391 393 -1 401 415 403 -1 417 416 392 -1 386 417 387 -1 387 418 383 -1 395 383 382 -1 387 383 395 -1 395 382 393 -1 410 395 419 -1 407 419 394 -1 410 419 407 -1 405 394 408 -1 402 408 393 -1 397 385 384 -1 409 384 420 -1 409 420 411 -1 411 420 388 -1 388 387 410 -1 383 418 392 -1 420 384 386 -1 388 420 386 -1 409 411 407 -1 413 412 396 -1 398 413 396 -1 394 419 395 -1 393 408 394 -1 417 386 416 -1 392 418 417 -1 417 418 387 -1 383 392 381 -1 385 392 416 -1 421 422 423 -1 424 425 426 -1 427 424 426 -1 427 426 423 -1 428 429 430 -1 426 421 423 -1 422 425 427 -1 431 432 421 -1 426 433 421 -1 421 434 422 -1 435 430 422 -1 422 427 423 -1 425 433 426 -1 425 429 436 -1 425 436 433 -1 433 436 421 -1 422 430 425 -1 430 429 425 -1 425 424 427 -1 430 434 436 -1 437 438 436 -1 437 436 434 -1 439 421 436 -1 440 441 442 -1 440 442 439 -1 431 421 439 -1 431 439 442 -1 431 442 443 -1 438 440 439 -1 438 439 436 -1 432 443 437 -1 444 436 429 -1 444 430 436 -1 445 446 428 -1 445 428 447 -1 430 447 428 -1 444 447 430 -1 429 428 444 -1 448 449 444 -1 448 444 428 -1 449 450 447 -1 449 447 444 -1 449 445 451 -1 447 452 451 -1 447 451 445 -1 450 452 447 -1 453 445 449 -1 454 434 430 -1 454 422 434 -1 455 456 457 -1 422 457 456 -1 422 456 458 -1 459 457 422 -1 430 435 454 -1 460 458 456 -1 461 435 458 -1 462 454 435 -1 463 459 454 -1 463 458 459 -1 463 461 464 -1 458 464 461 -1 463 464 458 -1 435 461 462 -1 454 462 463 -1 465 459 458 -1 466 455 459 -1 466 456 455 -1 466 465 460 -1 466 460 467 -1 456 467 460 -1 466 467 456 -1 458 460 465 -1 459 465 466 -1 448 428 446 -1 450 449 451 -1 450 451 452 -1 468 441 440 -1 469 443 442 -1 443 432 470 -1 471 431 443 -1 471 432 431 -1 471 472 470 -1 472 443 470 -1 471 470 432 -1 443 472 471 -1 473 437 441 -1 474 438 437 -1 474 440 438 -1 474 473 468 -1 474 468 475 -1 440 475 468 -1 474 475 440 -1 441 468 473 -1 437 473 474 -1 476 437 443 -1 477 441 437 -1 477 442 441 -1 477 476 469 -1 477 469 478 -1 442 478 469 -1 477 478 442 -1 443 469 476 -1 437 476 477 -1 479 446 445 -1 480 448 446 -1 480 449 448 -1 480 479 453 -1 480 453 481 -1 449 481 453 -1 480 481 449 -1 445 453 479 -1 446 479 480 -1 432 434 421 -1 437 434 432 -1 459 455 457 -1 454 459 422 -1 463 462 461 -1 458 435 422 -1" solid="false">
    <Coordinate point="-0.598979 -0.24464 0.175379 -0.533247 -0.168667 0.0593189 -0.424393 -0.178468 0.331081 -0.425572 0.175082 0.248202 -0.304301 0.212611 0.269705 -0.239265 -0.0677814 0.309405 -0.452371 -0.159947 0.0792655 -0.255143 -0.0317864 0.332841 -0.606541 0.077121 0.46379 -0.670463 0.00321555 0.410414 -0.776941 -0.163047 0.414535 -0.632531 -0.223512 0.550197 -0.64351 -0.261554 0.436033 -0.438692 0.0456176 -0.0420494 -0.288393 0.125524 0.491027 -0.274759 0.17676 0.416736 -0.14533 -0.0354979 0.410374 -0.173053 0.0599916 0.367828 -0.150049 -0.0388286 0.408654 -0.440511 0.0181525 0.435564 -0.696155 -0.0888937 0.564487 -0.46912 0.0692918 0.466485 -0.270761 0.0579908 0.470375 -0.297175 0.0325413 0.51128 -0.345513 -0.0140324 0.586138 -0.301577 -0.150689 0.537588 -0.274152 -0.163572 0.499397 -0.449688 -0.00419736 0.578102 -0.503417 0.225034 0.18574 -0.504064 0.225819 0.182524 -0.677868 0.0751905 0.180716 -0.67386 0.0703273 0.200662 -0.678101 0.133627 0.301854 -0.760849 -0.0207763 0.223667 -0.742554 -0.147593 0.0878959 -0.604542 -0.102083 -0.0571271 -0.630476 -0.162326 0.230818 -0.631982 -0.170453 0.233487 -0.708718 -0.249636 0.337305 -0.774626 -0.165985 0.411914 -0.448384 0.0554991 -0.0376926 -0.359289 0.140086 -0.0349685 -0.432712 0.18414 0.179961 -0.669667 -0.0493035 -0.0312746 -0.679584 0.173294 0.0392944 -0.545584 0.0685184 0.00875962 -0.266867 0.193674 0.189157 -0.140441 0.0478818 0.182024 -0.16572 0.0785596 0.056209 -0.189651 0.106034 0.0677165 -0.20472 -0.0666039 -0.00474495 -0.324921 -0.0642478 -0.0647746 -0.109391 -0.0174904 0.233158 -0.287252 -0.0659244 0.148183 -0.361456 0.239489 0.371467 -0.560335 0.159211 0.363884 -0.297693 -0.0655203 0.113103 -0.628006 -0.162487 0.226461 -0.364496 -0.113781 0.00752366 -0.155298 -0.0838788 0.0942839 -0.11385 -0.0291319 0.0891443 -0.263967 -0.0584569 0.0881706 -0.219749 -0.0651181 0.133802 -0.590739 -0.0986977 0.649964 -0.323495 -0.208338 0.576852 -0.493253 -0.23403 0.614134 -0.41502 -0.078449 0.634966 -0.354843 -0.0802104 0.597114 -0.599012 -0.259516 0.304523 -0.00701977 -0.0405846 0.561584 -0.122973 -0.179252 0.530856 -0.0615101 -0.199565 0.55444 0.203747 -0.224485 0.223333 0.225908 -0.232778 0.388498 0.187532 -0.256272 0.419245 0.127062 -0.262918 0.525957 -0.05565 -0.201534 0.553555 0.255389 -0.0581796 0.77777 0.188919 0.0471129 0.616195 0.141563 0.0386534 0.651529 0.0314773 0.0189881 0.733666 0.0180764 -0.175159 0.718155 -0.148781 0.0199118 0.354537 -0.0297933 0.118635 0.461789 0.199781 0.0911105 0.452587 -0.0768176 -0.0364516 0.518807 0.0324264 0.0811064 0.552071 0.134322 0.0836577 0.586382 0.0866394 0.164379 0.43831 0.0473809 0.189671 0.510698 0.333791 0.00988603 0.547508 0.314317 -0.120694 0.709018 0.321872 -0.0700359 0.64636 0.105141 -0.152133 0.612883 0.227868 -0.114427 0.658167 0.0364811 -0.169504 0.724946 0.0581644 -0.0891454 0.79253 -0.0516169 -0.0522633 0.809112 -0.0545403 -0.0585289 0.803694 -0.0774739 -0.107682 0.761189 0.322925 -0.109525 0.455908 0.103191 0.0801575 0.274977 0.312253 -0.148024 0.470885 0.37736 -0.111463 0.612677 0.113834 -0.145708 0.130644 0.144188 -0.275415 0.286542 -0.0216562 -0.167766 0.419551 0.00348719 -0.250994 0.213017 -0.000433371 -0.177761 0.130738 -0.121909 -0.0349984 0.226035 -0.141162 -0.0583641 0.275589 -0.0141272 -0.207736 0.185911 0.101847 -0.291935 0.215557 0.452291 0.0637119 0.0592971 0.263449 0.0278242 0.0286339 0.34495 -0.00876999 0.00925547 0.427381 -0.106821 -0.239226 0.681246 -0.0413341 -0.192729 0.626649 -0.155076 0.104206 0.37294 0.0398617 -0.311138 0.423752 -0.00636339 -0.260784 0.666798 0.206976 0.143286 0.523199 0.164942 -0.0523893 0.398722 0.283101 0.0941265 0.489366 0.0473228 0.0190545 0.0731919 0.106911 -0.204605 0.12201 0.0909288 -0.32945 0.070132 0.102649 -0.205519 0.237412 0.14633 -0.0457467 0.0977726 0.22071 -0.261396 0.641984 0.130207 0.104032 0.641708 0.0832844 -0.0683723 0.688874 0.196399 0.118707 0.427358 0.226381 0.144254 0.646241 -0.027689 0.185573 0.502289 -0.190518 -0.00314909 0.632037 0.116167 0.100919 0.506632 0.18291 -0.0807042 0.507537 0.209612 -0.208213 0.43877 0.24256 -0.131647 0.379033 0.349708 -0.124501 0.519735 0.237122 -0.104671 0.79463 0.0783052 -0.138522 0.786171 -0.000252962 -0.116169 0.71236 -0.103059 -0.138222 0.610527 0.0578198 -0.316689 0.599887 0.0789273 -0.335328 0.711453 0.113435 -0.249976 0.473866 0.103408 -0.263012 0.422865 0.206951 -0.270706 0.382962 0.226473 -0.220423 0.32672 0.207274 0.062089 0.320662 0.361412 -0.00968117 0.206535 0.0849216 -0.0470528 0.38056 -0.114353 -0.047403 0.610142 0.125846 0.124686 0.613742 0.232396 0.202359 0.537512 -0.00319886 0.10679 0.464626 -0.106086 0.0839806 0.566868 0.186998 -0.35126 0.549503 0.252315 -0.295402 0.546472 0.188223 -0.283231 0.710438 0.171271 -0.264087 0.638187 0.19679 -0.205436 0.497219 0.119621 -0.297947 0.804501 -0.0848355 -0.0459377 0.237349 0.212172 0.0204304 0.26169 0.371103 -0.0260988 0.247865 0.27527 -0.150095 0.185514 0.174892 -0.361939 0.486124 0.259198 -0.204779 -0.541235 0.27193 -0.0716752 -0.673408 0.1526 -0.0505401 -0.516139 0.117831 -0.102411 -0.411197 0.184718 -0.337072 -0.496893 0.164642 -0.459205 -0.379844 0.201955 -0.354313 -0.544162 0.0851541 -0.244762 -0.481201 0.158176 -0.141131 -0.585363 0.417042 -0.399389 -0.682232 0.300217 -0.43499 -0.68819 0.319432 -0.37587 -0.699683 0.3565 -0.261825 -0.438475 0.179192 -0.196285 -0.726096 -0.0130646 -0.405794 -0.695586 0.0354166 -0.484566 -0.578929 -0.0646524 -0.434107 -0.450724 0.294212 -0.492895 -0.662638 0.184975 -0.531758 -0.612102 0.268484 -0.460788 -0.534742 0.352754 -0.441052 -0.428613 0.304268 -0.377313 -0.399077 0.276077 -0.365174 -0.413856 0.180325 -0.340805 -0.486201 0.0607765 -0.442403 -0.36861 0.233912 -0.54507 -0.354038 0.197638 -0.547604 -0.490141 0.224465 -0.642816 -0.283746 0.0132253 -0.458754 -0.675996 0.178404 -0.514514 -0.825644 0.0819468 -0.446707 -0.792532 0.0982344 -0.48945 -0.214725 -0.00571752 -0.597863 -0.212292 0.0549924 -0.559586 -0.654523 0.0111654 -0.621745 -0.560507 -0.0555911 -0.457887 -0.804145 0.21295 -0.38728 -0.680868 0.258395 -0.447483 -0.705272 0.272075 -0.490548 -0.771573 0.218205 -0.514363 -0.845548 0.12268 -0.371569 -0.600806 0.336166 -0.118117 -0.713028 0.330271 -0.164496 -0.694877 0.371108 -0.275808 -0.791772 0.0953636 -0.226963 -0.726368 -0.0419431 -0.228617 -0.70373 -0.0635495 -0.219313 -0.649311 0.0263774 -0.142889 -0.539949 0.330145 -0.149544 -0.523224 0.321432 -0.204216 -0.477094 0.341569 -0.260759 -0.580426 0.494981 -0.298342 -0.461104 0.293942 -0.289544 -0.466752 0.430392 -0.375734 -0.446787 0.172266 -0.279394 -0.500082 0.117348 -0.277251 -0.618634 0.0270686 -0.0812719 -0.820691 0.119377 -0.218448 -0.821918 0.241293 -0.286318 -0.760984 0.12725 -0.169214 -0.635548 0.0438282 -0.622096 -0.345224 -0.0394182 -0.628513 -0.555056 0.120848 -0.677642 -0.300634 0.112822 -0.659001 -0.302434 0.108904 -0.658478 -0.564523 0.447978 -0.327801 -0.233953 -0.0191438 -0.628633 0.268431 0.180224 -0.320249 0.278509 0.20966 -0.343487 0.222649 0.0715199 -0.305346 0.252482 0.133637 -0.283473 0.592628 0.0755413 -0.324086 0.610333 0.12288 -0.305566 0.629542 0.174241 -0.285473 0.621219 0.149929 -0.266281 0.599454 0.0863543 -0.216094 0.58807 0.0531027 -0.189845 0.379829 0.0873444 -0.286886 0.462704 0.253259 -0.425137 0.413509 0.221092 -0.48722 0.276849 0.325841 -0.355537 0.379153 0.143022 -0.325332 0.164037 0.0828774 -0.671152 0.220437 0.0164866 -0.640822 0.119511 -0.0471811 -0.568482 0.0998212 0.19914 -0.468014 0.108098 0.321363 -0.413149 0.260774 0.180176 -0.605289 0.119169 0.207833 -0.327759 0.0867108 0.257181 -0.340616 0.0597174 0.0844073 -0.408193 0.287594 0.236198 -0.364436 0.245157 0.306339 -0.41111 0.120316 0.351746 -0.369361 0.397714 -0.0607605 -0.603098 0.576214 -0.0184967 -0.464112 0.560018 -0.0658066 -0.426765 0.356832 -0.0126359 -0.625083 0.394245 0.0921221 -0.708213 0.428571 0.0796442 -0.709133 0.503818 0.0522909 -0.71115 0.498997 0.0382085 -0.700033 0.554954 -0.0915453 -0.381592 0.350567 0.179936 -0.566651 0.402381 0.213816 -0.501262 0.493277 0.142433 -0.552267 0.528262 0.229428 -0.426894 0.511062 0.186657 -0.488533 0.494681 0.145923 -0.547238 0.624537 0.112035 -0.43158 0.624217 0.11102 -0.429743 0.572577 -0.0111101 -0.19925 0.378457 0.200432 -0.364973 0.363555 0.29671 -0.246124 0.393179 0.285049 -0.246299 0.418104 0.331506 -0.31503 0.378573 0.190897 -0.358389 0.175997 -0.0839744 -0.509799 0.00574779 0.116808 -0.637497 0.351211 -0.0315406 -0.375693 0.191072 -0.102796 -0.529476 0.412965 0.0104346 -0.386718 0.148892 0.332859 -0.328697 0.167887 0.25717 -0.271784 0.324356 0.317765 -0.263994 0.531661 -0.0338602 -0.317107 0.563877 -0.0448468 -0.318333 -0.39247 0.170553 -0.0386001 -0.318094 0.251543 0.0187486 -0.419683 0.299226 -0.11063 -0.437663 0.121342 -0.0734459 -0.185896 -0.0661459 -0.223334 -0.177554 -0.0559556 -0.225779 -0.109845 0.0148346 -0.149989 -0.118185 0.000267744 -0.112409 -0.142718 -0.0264459 -0.131325 -0.199314 -0.0880747 -0.174964 -0.325792 0.139428 -0.33222 -0.284077 0.088881 -0.314937 -0.370579 0.0564499 -0.15695 -0.345962 0.219918 0.0645471 -0.21985 0.237339 -0.110517 -0.236588 0.209984 -0.0501767 -0.234679 0.0233405 -0.134263 -0.30824 0.00384426 -0.163507 -0.282831 -0.0175972 -0.166179 -0.253012 0.00775385 -0.146415 -0.303711 0.16762 -0.348469 -0.190288 -0.105691 -0.466148 -0.318189 0.151855 -0.359632 -0.0956865 0.183546 -0.510268 0.00950231 0.117259 -0.511141 -0.00401575 0.102539 -0.521564 -0.0962857 0.0421906 -0.574519 -0.321835 0.280462 -0.442976 -0.241099 0.368377 -0.380724 -0.223459 0.353492 -0.382579 -0.223862 0.258609 -0.425707 -0.37932 0.30322 -0.502278 -0.371691 0.0604408 -0.515486 -0.131662 0.261057 -0.258384 -0.0647441 0.204587 -0.265422 -0.0050388 0.154204 -0.271702 -0.187885 -0.0276751 -0.275084 -0.241785 0.0376356 -0.297415 0.0459757 -0.148324 -0.326364 -0.173226 -0.0454378 -0.269011 -0.449808 0.338978 -0.360956 -0.279355 0.384499 -0.324625 -0.359121 0.237086 -0.213556 -0.214209 0.246559 -0.130855 -0.369834 0.23468 -0.296112 -0.42542 0.170309 -0.308151 -0.456858 0.118929 -0.194817 0.114195 0.166321 0.048727 0.16012 0.234635 0.0162426 0.0751037 0.329624 -0.0212845 -0.0613759 0.0621288 -0.0686054 -0.0446814 0.0894139 -0.12879 -0.0275983 0.117334 -0.190375 0.052789 0.156351 -0.237018 -0.0980944 0.0353599 -0.20294 -0.0860673 0.0563674 -0.257135 -0.0871437 0.0544872 -0.252285 -0.0977893 0.0414829 -0.249164 -0.143424 -0.013355 -0.125586 -0.227269 0.0296404 -0.129351 -0.194318 0.0113149 -0.0698043 -0.130435 0.290056 0.0625001 -0.0446626 0.309461 -0.0351957 -0.19831 0.25972 -0.0611799 -0.18587 0.252365 -0.0740805 0.048063 0.25697 -0.143511 0.0485229 0.120412 0.122919 -0.11634 0.206121 0.224299 -0.206887 0.277039 0.110101 -0.236175 0.00778866 -0.587851 -0.0900865 -0.0344555 -0.492995 -0.0202132 0.0404475 -0.586342 0.000910096 -0.0253866 -0.535814 -0.110979 -0.0766513 -0.533467 -0.0603172 -0.131144 -0.45553 0.0730073 -0.0237038 -0.388518 0.022638 0.0264041 -0.208292 0.0707508 0.234416 0.193447 -3.19108e-05 -0.10408 -0.435219 0.0712112 -0.0319848 -0.384388 -0.0911107 0.312754 0.116078 -0.0814753 0.293303 0.210297 0.107119 0.310916 0.109319 -0.0941588 0.297914 0.0978795 0.159802 0.121678 0.323502 0.192941 0.155571 0.0141831 0.189996 0.152139 0.00852096 0.518755 -0.127663 0.29561 0.456612 -0.19735 0.392138 0.420658 -0.208344 0.305935 0.290716 -0.083128 0.107187 0.364921 -0.170754 0.119994 0.260638 0.0471716 0.486272 0.340166 0.113134 0.380444 0.226256 0.0560422 0.420464 0.0427912 0.0190821 0.144165 0.3972 0.173278 0.116584 0.474666 0.060441 0.0753542 0.37125 0.0939717 0.0207386 0.530071 0.0375369 0.394978 0.531644 -0.10061 0.477883 0.588667 -0.0364108 0.409324 0.357171 0.114052 0.371045 0.459615 0.109231 0.271417 0.361472 0.2508 0.285932 0.462167 0.106994 0.271445 0.280495 0.189997 0.36489 0.492948 0.0576265 0.475884 0.538013 0.0168817 0.250147 0.502796 -0.0241628 0.182423 0.456136 -0.0785449 0.0926905 0.468641 0.0993905 0.159358 0.469179 -0.0618615 0.234642 0.360884 -0.0740433 0.0859869 0.461641 -0.119238 0.0910626 0.53696 0.0704784 0.303557 0.582354 0.04337 0.322748 0.490631 -0.0621169 0.549659 0.3153 0.272553 0.292224 0.127085 -0.0187061 0.17685 0.161561 -0.0270035 0.110293 0.123178 0.033838 0.0398268 0.45634 0.00933456 0.0664308 0.456066 -0.198961 0.216409 -0.0585271 -0.921568 0.0727499 -0.100729 -0.898847 0.100094 0.0314729 -1.24657 0.12275 -0.228527 -1.24657 -0.0672502 -0.178527 -0.921568 -0.0372502 -0.0485271 -1.24657 -0.0672502 -0.228527 -1.24657 0.11275 -0.372372 -0.284889 -0.320889 -0.258527 -0.596568 -0.0972501 -0.170729 -0.563847 0.0500939 0.119783 -0.290994 -0.0308171 0.0780386 -0.275685 -0.0309246 -0.0585271 -0.921568 -0.0672502 -0.010729 -0.563847 0.0500939 -0.254682 -0.227835 0.189477 -0.108527 -0.576568 -0.12725 0.225635 -0.0952799 -0.202488 0.0314124 -0.375015 -0.158758 0.0738477 -0.441305 -0.0655497 0.0841087 -0.417914 -0.0748069 0.165955 -0.231332 -0.148646 0.138083 -0.22207 -0.062758 0.172221 -0.105554 -0.0612743 -0.309903 -0.401669 -0.400009 -0.323555 0.0476932 -0.287418 -0.344635 -0.0959263 -0.301872 -0.268855 -0.253142 -0.26453 -0.279426 -0.103718 -0.343845 -0.269422 -0.0842183 -0.346316 -0.26939 -0.0940025 -0.341579 -0.216223 0.084554 -0.242461 -0.244607 -0.0975661 -0.254363 -0.627682 0.210652 -0.349225 -0.0952353 -0.226223 0.232526 -0.0982719 -0.354688 0.245291 -0.200291 -0.371409 0.211628 -0.161079 -0.565898 0.176757 -0.207304 -0.344311 0.212238 -0.0805403 -0.263214 0.26031 0.00562882 -0.149662 0.490844 -0.516135 -0.0612838 0.244726 -0.396182 0.0436833 0.25863 -0.383589 0.0282302 0.256228 -0.438608 -0.119732 0.262318 0.125631 -0.0508704 0.519067 0.119478 -0.143095 0.499986 0.0164586 -0.175102 0.48644 0.303177 -0.0174265 -0.364699 0.456194 -0.0109227 -0.0468178 0.245322 -0.0889142 0.120611 0.281206 -0.0705583 0.101838 0.314801 0.00770378 0.277371 0.385108 0.0874634 -0.449884 0.134478 -0.111479 -0.325411 0.190817 -0.161272 -0.247877 0.498634 0.107416 -0.131047 0.439208 -0.0224326 -0.198713 0.418471 -0.0844619 -0.135771 -0.581385 0.0744631 -0.324957 -0.513092 0.0889242 -0.359623 -0.512298 0.109767 -0.366791"/>
    <Normal vector="-1.73335 -0.0587569 -1.00595 -0.0754214 -1.09948 -0.0904455 0.162682 -0.26193 -0.029234 0.0126502 0.128595 0.0106058 0.0428474 0.0631622 -0.0749341 0.60636 -0.826102 -0.155775 1.11839 -1.75295 -0.373259 0.155887 1.55905 -1.05018 -0.0317063 0.932319 -0.401437 -0.0899176 0.0557532 0.0445885 -2.87261 -1.59169 -0.618629 -0.606411 -0.89994 0.369085 -1.18029 -1.55892 0.624097 0.00294051 -0.0414339 -0.0897373 -0.00125792 -0.884235 1.83582 0.0457048 0.086126 0.062543 0.0280741 -0.442101 0.901575 0.0610292 0.0220555 -0.0300684 -0.0210142 -0.941117 1.78478 -0.00627917 -0.461906 0.911059 -0.0763379 0.0222081 0.0543061 0.186597 3.39583 0.0442631 2.61462 1.83399 1.69321 0.894905 1.74526 1.66371 1.64852 0.137936 1.15753 1.65458 0.124823 1.14729 0.875377 -0.0520591 0.514825 0.0320511 0.879081 0.583705 -1.26614 1.48034 0.607107 -0.627405 0.780921 0.280122 -1.33989 1.48023 0.608723 -0.655285 0.746772 0.284617 -0.0689537 0.088519 0.024449 -0.170761 0.0212988 -0.00970225 -0.267939 -2.03128 -0.0631213 0.00147284 -0.0443531 -0.0658302 -2.66948 -1.09846 -1.6373 -3.22523 -0.193109 -2.37033 -0.794547 -0.0929669 -0.627844 -2.16695 -0.873009 -0.935433 -0.0300384 0.0574746 -0.0591865 0.0146634 0.111788 -0.0912649 -0.00643097 0.0653805 -0.0350698 -0.108786 0.0416657 -0.0933592 -0.0458826 0.0567586 -0.0374991 0.0127455 0.0777496 -0.0929474 1.55215 1.42449 0.0777819 0.805429 0.667414 -0.0016791 1.56401 1.32474 -0.0479746 0.772017 0.687845 -0.00822537 0.0355887 -0.0265803 -0.0354645 0.0253118 -0.0143556 -0.0870773 0.0430318 -0.0172835 0.0396313 1.08939 -1.6835 -0.340196 -0.0105668 0.0713999 0.0333886 -0.047867 0.100965 0.0153575 0.546542 -0.878374 -0.167957 -1.08952 -1.9896 -0.544119 6.43926e-05 -0.0467616 -0.0278932 0.0207893 -0.0363173 0.00123948 0.0145638 0.00286506 -0.00676857 0.00871887 -0.00900802 -0.00139907 0.000433259 -0.0259911 0.00971856 -0.0252789 0.0463663 0.103021 0.0203771 -0.0167682 0.0322033 -0.000211832 -0.0456506 0.0284434 0.00732455 -0.00607832 0.100776 0.0182502 0.0010906 0.020452 0.00614172 -0.0728007 -0.00994604 -0.0936157 0.0448677 0.0229983 -0.728493 -1.96881 0.0131786 -0.376206 -0.94863 0.0190897 0.0943856 0.00284977 -0.0365646 0.112853 -0.0224907 -0.0296286 0.0412179 -0.0594741 0.0117684 -0.347813 -1.13573 0.0398134 -0.630289 -1.93506 0.0391513 2.11799 2.41526 1.80847 0.219473 0.895856 0.493445 0.403994 1.74259 0.964039 0.168572 0.919651 0.515198 -0.376404 -2.5486 3.10562 -0.101954 0.120618 -0.0155809 -0.0491321 0.0571792 -0.000821075 0.0828322 0.14468 -0.0616899 -0.0681279 0.0332368 0.0569179 -0.0402326 0.0506659 0.0378125 0.0203144 0.0759336 0.0423167 0.0143125 0.0285249 -0.0108447 -0.0048781 0.01836 0.0115798 0.87109 0.407903 0.405261 0.84911 0.307253 0.412687 1.73777 0.747024 0.773813 0.0150464 -0.10209 0.0487275 0.0373838 -0.0867522 0.0356276 -0.0759327 -0.670307 0.793325 -0.179696 -1.24668 1.59669 -0.201118 -1.22687 1.55691 -0.233202 -1.23202 1.53876 -0.10961 -0.639619 0.779049 0.0907049 0.0478296 -0.0401275 0.125932 0.174921 -0.178691 0.0605885 -0.0662178 -0.035889 0.0216996 -0.00394519 0.000563926 0.0449576 -0.00624886 -0.0763973 -0.0223677 -0.0444342 -0.011311 -0.0610275 -0.0529988 0.0220794 -0.0847949 -0.0998039 0.0146694 -0.0204169 0.0219847 -0.0988252 -0.0935261 -0.0184814 -0.102906 -0.0456585 -0.0110877 0.0135916 -0.0329155 -0.0244148 -0.0224675 0.0330222 -0.0554566 -0.0239406 -0.00922035 -0.029456 0.0683684 -0.0337063 -0.0176269 0.0621941 -0.105825 -0.193045 0.00618911 -0.0138633 -0.13682 -0.0817233 0.055204 -0.139097 -0.116361 0.0532259 -0.167127 -0.0120757 -0.00310993 -0.103831 -0.101353 -0.0334934 -0.056148 -0.0880688 1.05312 -0.961007 1.34149 0.0735943 0.112777 -0.0356325 -1.20785 0.726458 1.4125 -0.0115486 -0.0350568 0.0647918 -0.0465205 0.0178242 0.00181651 -0.043437 -0.128656 -0.0458744 -0.0410869 -0.0539764 0.0170128 -0.0836219 0.0363271 0.0522731 -0.0513439 0.100981 -0.00878978 1.10165 -0.999541 1.40019 0.0370492 0.0623546 0.0100712 1.0546 -1.01 1.35139 -0.661374 0.263904 0.788101 0.0547054 0.00232893 0.109131 -0.0285001 -0.0834163 0.0362689 0.475445 -0.493535 0.725138 0.0141121 0.0237829 0.0073931 -0.000959694 0.0353348 -0.0166996 0.0243072 0.0350583 -0.0134868 0.052783 0.0864757 -0.0238343 0.505778 0.847913 0.298758 1.08342 1.66138 0.522234 0.1122 0.0183037 0.023203 0.0131399 -0.0505786 -0.0260221 0.0336215 -0.0482749 -0.0582804 -0.00247363 -0.00644716 -0.0479707 0.0381031 0.000704994 -0.0462569 0.00276854 0.00466262 -0.0500978 0.0301574 0.0742284 -0.0848418 0.00843943 0.0663002 -0.0456215 -1.30251 0.600649 1.49567 -0.639875 0.352876 0.723901 -0.0322016 -0.0145475 0.0219369 -0.080063 -0.035591 0.0507239 2.03612 -2.10709 2.80263 0.511111 -0.504493 0.712264 -0.0229982 -0.00571901 0.0455268 -0.0357211 0.00367258 0.0337127 -0.00794277 0.00243948 -0.0369146 0.0170608 0.0350025 -0.0167548 -0.0124375 0.0146881 -0.00748058 0.518686 0.828152 0.255052 1.0305 1.68019 0.540524 -0.0207948 0.00479099 -0.0194849 0.0667405 -0.0370815 0.0222599 -0.0681766 0.0115703 0.0405769 -0.0235493 0.0138905 0.00368747 -0.0674784 0.0830867 -0.0248668 -0.0102624 0.0314256 -0.0922829 -0.00408305 0.0179436 0.000792105 0.0344547 0.0166469 0.0611318 -0.0474103 0.00339772 0.113541 0.0438854 -0.0364713 0.0466829 3.02848 -1.34695 -0.577473 0.864466 0.00123994 -0.519442 0.0443119 -0.00652508 -0.00350199 2.17281 -2.08044 0.891531 0.035634 -0.022098 0.0142765 -1.39687 1.3488 -0.606261 -0.702533 0.671442 -0.29727 -1.4046 1.34388 -0.578343 -0.730132 0.699501 -0.295793 0.0365598 0.0129975 0.0103873 -0.487889 -0.767762 -0.596767 -0.870974 -1.42378 -1.19252 0.00214769 -0.101562 0.002173 0.0302505 0.0398674 -0.0505329 -0.0147275 0.0580097 -0.032144 -0.0126878 0.0274947 -0.0351332 0.00754326 0.033764 -0.0361488 0.0285587 0.0116041 -0.00312924 0.0183021 0.0159856 -0.00489198 2.22003 -1.34537 0.00232521 1.66186 0.00655938 -1.13136 0.00733838 0.0476218 -0.00403826 0.0610038 0.0703976 0.0313776 -0.00305972 0.0732972 -0.0552443 0.0413861 -0.00200481 0.0813275 -0.00680861 0.0393794 -0.0335674 -0.87541 -1.3847 -1.18524 -0.449339 -0.706657 -0.616261 0.0252206 -0.0221576 0.000703234 0.0457271 0.0287458 0.0104407 -0.028522 -0.0720379 -0.0321175 0.0402985 -0.12001 0.0264024 -0.0738665 0.0618594 -0.0281402 -0.00544207 0.0308244 -0.0415542 -0.00280311 0.0201115 -0.00828386 -0.0564829 0.0317845 -0.0621528 -0.0685005 -0.0238496 0.00346735 -0.0113005 0.0489332 0.0453575 -0.0726587 0.0473959 0.0606519 -0.0214029 0.0595502 0.0225632 -1.24954 -0.635043 1.54038 -0.625367 -0.332111 0.748081 -1.13179 -0.627568 1.53621 -0.559735 -0.332999 0.76449 0.041883 0.0474183 0.0104185 0.0209567 0.0339958 0.0456903 0.0343936 0.0162352 0.0139619 -0.00536531 0.0367084 0.023909 0.046941 0.0229365 0.0289326 0.0244806 0.035143 -0.0196657 0.750341 -0.664341 0.305093 0.750073 -0.748946 0.339678 -0.0136464 -0.0284558 0.0353325 -0.0298009 -0.00108099 0.0124781 -0.081645 0.0397206 0.0215337 -0.0582585 0.0112623 0.0453664 -0.053697 -0.0266423 -0.0909984 0.0793656 -0.404921 -0.986473 0.0983585 -0.404285 -2.04695 0.100408 -0.167876 -1.02222 0.132772 -0.429766 -1.9691 0.0228277 0.0256783 0.00349912 0.0055559 -0.00522202 -0.0179139 -1.15068 2.46412 2.62242 -0.450255 1.51659 1.75217 -2.45796 -1.07846 0.864333 -0.687869 0.951337 0.920097 3.79421 -1.34807 -0.103889 0.969503 -0.340645 -0.0426159 1.88902 -0.669937 -0.0507089 1.88059 -0.654418 -0.000915854 1.61843 -0.114915 0.770499 0.939481 -0.337542 -0.00402103 -0.074986 2.21959 3.24512 0.299935 0.843865 -0.607156 1.11141 3.93468 -2.91667 -0.0136373 0.0387398 -0.00602065 0.63932 2.77008 4.00048 -0.00444854 -0.00743221 -0.0629829 0.0138946 -0.100038 -0.101834 -0.0630875 -0.0679284 -0.0316525 -0.0786714 0.0686827 -0.0332879 -0.032794 0.0225964 -0.0281414 -0.0215758 0.111632 -0.135847 -0.00627122 -0.00296746 0.0391489 -0.0596398 0.00168463 0.0308977 -0.134756 -0.0874166 0.105051 0.665522 1.66664 2.41501 0.173953 0.852358 -0.547639 0.00942627 0.054656 -0.0188253 -0.881132 -2.29047 -3.21812 1.01849 -0.371281 -0.0720669 1.88349 -0.736428 -0.0563878 -0.23783 -0.561058 -0.846962 -0.459902 -1.09937 -1.62924 -0.434277 -1.07313 -1.62197 -0.406541 -1.08729 -1.61526 -0.202912 -0.589045 -0.815557 -0.175639 -0.858525 0.553146 0.353299 1.73107 -1.15979 0.945149 3.09959 -2.35493 0.324232 0.813027 -0.64793 0.542618 1.52777 -1.20717 0.813353 2.27771 -1.81148 0.532239 1.53626 -1.1966 1.89585 -0.666463 -0.0636185 0.989594 -0.355534 -0.0217821 -0.274146 -0.910451 0.315319 0.193078 0.514195 0.841415 -0.0298541 -0.039842 0.0367405 0.0346227 0.0411936 0.00917771 0.013832 0.0343947 -0.00169377 -0.0665081 2.22191 3.21471 -0.246218 -0.830447 0.62625 -0.0767263 0.0291836 -0.0431611 -0.443463 -1.59128 1.23707 -0.411508 -1.62095 1.11708 -0.0218739 -0.0599595 0.0453918 0.000259319 0.0326406 0.0103354 0.0117257 0.00894037 0.0282895 -0.0017999 0.0119428 0.0046062 -0.308941 -0.937054 0.278939 -0.570658 -1.84781 0.570007 -1.45593 0.373936 1.36086 0.636314 1.38994 1.56708 -1.48301 0.479897 1.28599 -0.770027 0.169444 0.645456 3.37129 -5.1632 -1.4056 2.28538 -1.92854 -0.240375 5.33254 -4.49993 -0.560881 1.79546 -2.72917 1.52569 1.03368 -2.08634 1.60581 -0.927554 -2.74962 0.761081 -1.25535 -1.35634 -0.95961 -1.20689 -1.3142 -0.930576 -2.07452 -2.39829 -0.497436 -0.0972292 -0.0196595 0.036801 1.3432 1.17515 0.896062 0.662303 0.560063 0.468692 -1.22613 -2.03192 4.4605 -1.68935 -2.10677 0.841206 -2.17923 -2.90742 2.60727 -0.73483 -1.20098 2.64909 -0.0694097 -0.0302888 0.0372474 -0.101796 -0.152618 0.0120714 -0.627297 -0.665704 -0.463039 0.51675 0.894876 -1.82485 0.28912 0.401882 -0.880952 0.554947 0.856983 -1.77186 0.248382 0.388019 -0.941669 0.514903 0.819302 -1.8141 0.251028 0.420417 -0.885089 0.517109 0.818768 -1.77991 0.278017 0.506868 -0.996341 -0.0577438 5.35198e-05 -0.0244448 -0.0763188 -0.0186101 -0.0359707 0.456087 0.662478 -0.690383 0.846909 1.16792 -1.44556 0.484126 0.613846 -0.722529 -4.50628 -5.11815 -4.09221 -2.90829 -3.2753 -2.47179 0.0245325 -1.37211 -0.968833 -0.288946 -1.90448 -1.17456 -0.0413703 0.0266993 0.00900996 -0.00107936 0.117489 0.0358586 -1.56517 1.35316 0.180853 0.692018 0.677187 0.479711 -0.810907 0.614182 0.0666975 -1.52668 1.25915 0.145952 -0.790288 0.648677 0.069356 1.23821 -1.61563 -0.365298 0.0466502 0.044471 -0.0332342 0.0347907 0.0404212 -0.013573 1.89632 -2.52251 0.538873 3.46959 -3.49447 -0.621814 2.13618 -2.10624 -0.355429 0.876062 1.16309 -1.46151 4.57075 -3.85709 -0.480757 1.56458 -1.28143 -0.146592 1.52364 -1.28574 -0.160259 3.80255 -3.2367 -0.351158 -1.71432 -2.81461 6.18696 -0.282609 -0.411694 0.868767 -0.0455443 -0.1626 0.096612 -0.0154624 0.0834841 0.00174765 -0.00743551 0.0311079 -0.00354947 -0.0177277 0.0729529 -0.0461203 0.0148712 0.109032 -0.0123573 0.0115612 0.0779312 -0.0289885 0.071348 -0.12136 0.0682157 -0.0515467 -0.106798 0.146034 -0.0338903 0.071164 0.0217233 -0.0278978 0.0174417 -0.117881 0.00593139 -0.0199056 -0.0262719 0.00337164 -0.00610818 -0.0191317 0.0331636 -0.0197044 -0.0306159 0.00369513 -0.0302015 -0.0260925 0.00136108 -0.00755696 -0.00364677 1.01693 -0.050543 0.272477 1.9381 -0.0906023 0.60332 0.0293404 0.0141639 0.0560954 0.0324353 -0.0291666 -0.0335769 1.92324 -0.136006 0.563754 0.00472872 0.0346756 0.0148798 -0.00483591 0.0342377 0.0290714 0.0362468 0.0437682 0.0115366 -0.00531405 0.0277052 -0.00319916 -0.0611206 0.146141 0.0402975 -0.00340603 0.0855833 -0.0102107 -0.0490998 0.0224161 -0.0732845 0.0527098 -0.0214602 -0.00895215 -0.105717 -0.177393 0.109748 -0.0462407 -0.11263 -0.00258102 -0.0347675 -0.0816064 -0.095426 -0.0160691 -0.0424975 -0.0235672 -0.0460644 -0.000459949 0.0867481 0.811472 0.987005 1.59355 -0.156151 -0.0286045 0.0835593 -0.150735 -0.0464731 0.0527762 0.00571019 0.172528 -0.0337672 1.85632 -0.315745 -0.766406 0.0137513 -0.000710319 -0.0951573 0.0524938 0.0620914 0.0330785 0.0628146 -0.023027 0.0128137 0.0438114 -0.021887 -0.005395 0.435215 0.519482 0.802904 0.0452409 0.0447768 0.0185337 0.854853 0.982279 1.57608 0.0275928 0.0308871 -0.00366818 0.405479 0.482881 0.797965 0.0183269 0.0613607 0.0472284 0.965137 -0.164635 -0.392158 1.83614 -0.345881 -0.745171 0.92746 -0.1756 -0.387022 0.0368857 0.0292816 -0.00460048 0.0848281 -0.0304806 -0.0245082 -0.00285105 -0.0185726 -0.0554761 0.0277727 -0.0161187 -0.0217404 0.00429626 0.0113634 0.00402754 0.0213368 0.0123572 -0.00418932 0.00260536 -0.0197954 0.0795667 -0.0506087 0.0178745 -0.0249898 -0.0365419 -0.0587695 0.00273395 -0.0374749 -0.0756897 -0.0247459 -0.0170265 -0.0241804 -0.0473203 0.0078421 -0.00908939 -0.031045 0.0378534 -0.0335933 -0.0152821 1.20656 -0.285283 -0.0761408 -1.87937 -0.510994 0.97215 0.0682956 -0.97776 0.0760782 -0.0585 -0.9856 -0.0585 -0.232191 0.00029305 -0.106297 0.0975001 -1.9804 -0.1235 -0.110022 -1.96789 0.114556 -1.68201 0.17832 1.03267 -0.16221 -0.0849918 -0.0245457 -0.10368 0.140162 -0.00820754 2.9059 -0.853335 -0.143684 -0.0617802 0.0226819 0.0385704 0.0737001 -0.000599991 -0.0804 -0.66091 0.615163 0.375826 -0.0770698 0.0229566 -0.157961 -0.772169 0.617754 -0.0833245 -1.59931 1.26112 0.687526 0.421175 -0.435482 -0.888398 4.05018 -1.87807 -1.11493 2.44867 -1.09702 -0.0256195 0.982579 -0.323393 0.32282 3.76928 -1.16573 0.575253 0.885601 -0.179139 -0.0209938 -0.142041 0.306134 -1.80325 -1.32215 -0.00669375 2.7075 -0.500897 -0.0402629 0.879812 0.781573 -0.176544 2.33808 -1.20735 0.405267 -1.58196 2.33537 -0.0718725 -1.50451 2.89461 -0.354067 -0.751394 1.13573 -0.252159 1.27674 0.579588 -0.13232 0.642506 -0.750355 -0.541726 -1.7542 0.135102 0.0697104 -0.0944646 0.014389 -0.0250489 0.0202761 -1.82506 -0.544206 0.765645 -0.911887 -0.261009 0.41315 -0.992995 -0.236069 0.447476 0.0448296 0.00859994 0.0573714 -0.169813 -0.374308 1.96831 -0.0227971 -0.0052807 -0.0482307 0.00788583 0.0265225 -0.0865158 -7.20038e-05 -0.00645496 0.134142 -0.000347115 -0.00785822 0.0651587 -0.0801074 -0.145203 0.947703 -0.09102 -0.43865 1.95322 -0.0671023 -0.227164 0.998857 0.526951 -1.46239 -1.30003 1.84805 -0.768861 -0.0730407 -0.0354353 0.00501938 0.0225994 0.0468606 -0.0192498 -0.00823231 -0.00365102 0.00789905 0.000744725 0.253329 -0.690958 -0.624021 0.467771 -1.40729 -1.29316 0.257735 -0.745927 -0.679013 0.877353 -0.301758 -0.0757938 1.8642 -0.801475 -0.202213 0.942573 -0.426715 -0.0730675 -0.400372 -0.295266 -0.820922 -0.784031 -0.597245 -1.79216 -0.380049 -0.282194 -0.884666"/>
   </IndexedFaceSet>
  </Shape>
 </Scene>
</X3D>
