#VRML V2.0 utf8

# Generated by VCGLIB, (C)Copyright 1999-2001 VCG, IEI-CNR

NavigationInfo {
	type [ "EXAMINE", "ANY" ]
}
Transform {
  scale 1 1 1
  translation 0 0 0
  children
  [
    Shape
    {
      geometry IndexedFaceSet
      {
        creaseAngle .5
        solid FALSE
        coord Coordinate
        {
          point
          [
            -0.424393 -0.178468 0.331081, -0.533247 -0.168667 0.0593189, -0.598979 -0.24464 0.175379, -0.239265 -0.0677814 0.309405, 
            -0.304301 0.212611 0.269705, -0.425572 0.175082 0.248202, -0.255143 -0.0317864 0.332841, -0.452371 -0.159947 0.0792655, 
            -0.776941 -0.163047 0.414535, -0.670463 0.00321555 0.410414, -0.606541 0.077121 0.46379, -0.64351 -0.261554 0.436033, 
            -0.632531 -0.223512 0.550197, -0.438692 0.0456176 -0.0420494, -0.274759 0.17676 0.416736, -0.288393 0.125524 0.491027, 
            -0.173053 0.0599916 0.367828, -0.14533 -0.0354979 0.410374, -0.150049 -0.0388286 0.408654, -0.440511 0.0181525 0.435564, 
            -0.696155 -0.0888937 0.564487, -0.270761 0.0579908 0.470375, -0.46912 0.0692918 0.466485, -0.274152 -0.163572 0.499397, 
            -0.301577 -0.150689 0.537588, -0.345513 -0.0140324 0.586138, -0.297175 0.0325413 0.51128, -0.449688 -0.00419736 0.578102, 
            -0.67386 0.0703273 0.200662, -0.677868 0.0751905 0.180716, -0.504064 0.225819 0.182524, -0.503417 0.225034 0.18574, 
            -0.678101 0.133627 0.301854, -0.760849 -0.0207763 0.223667, -0.604542 -0.102083 -0.0571271, -0.742554 -0.147593 0.0878959, 
            -0.630476 -0.162326 0.230818, -0.774626 -0.165985 0.411914, -0.708718 -0.249636 0.337305, -0.631982 -0.170453 0.233487, 
            -0.359289 0.140086 -0.0349685, -0.448384 0.0554991 -0.0376926, -0.432712 0.18414 0.179961, -0.545584 0.0685184 0.00875962, 
            -0.679584 0.173294 0.0392944, -0.669667 -0.0493035 -0.0312746, -0.189651 0.106034 0.0677165, -0.16572 0.0785596 0.056209, 
            -0.140441 0.0478818 0.182024, -0.266867 0.193674 0.189157, -0.20472 -0.0666039 -0.00474495, -0.324921 -0.0642478 -0.0647746, 
            -0.109391 -0.0174904 0.233158, -0.287252 -0.0659244 0.148183, -0.361456 0.239489 0.371467, -0.560335 0.159211 0.363884, 
            -0.297693 -0.0655203 0.113103, -0.628006 -0.162487 0.226461, -0.364496 -0.113781 0.00752366, -0.11385 -0.0291319 0.0891443, 
            -0.155298 -0.0838788 0.0942839, -0.263967 -0.0584569 0.0881706, -0.219749 -0.0651181 0.133802, -0.590739 -0.0986977 0.649964, 
            -0.323495 -0.208338 0.576852, -0.493253 -0.23403 0.614134, -0.41502 -0.078449 0.634966, -0.354843 -0.0802104 0.597114, 
            -0.599012 -0.259516 0.304523, 0.0314729 -1.24657 0.12275, -0.100729 -0.898847 0.100094, -0.0585271 -0.921568 0.0727499, 
            -0.0485271 -1.24657 -0.0672502, -0.178527 -0.921568 -0.0372502, -0.228527 -1.24657 -0.0672502, -0.228527 -1.24657 0.11275, 
            -0.170729 -0.563847 0.0500939, -0.258527 -0.596568 -0.0972501, -0.372372 -0.284889 -0.320889, 0.0780386 -0.275685 -0.0309246, 
            0.119783 -0.290994 -0.0308171, -0.0585271 -0.921568 -0.0672502, -0.010729 -0.563847 0.0500939, -0.254682 -0.227835 0.189477, 
            -0.108527 -0.576568 -0.12725, 0.0314124 -0.375015 -0.158758, 0.225635 -0.0952799 -0.202488, 0.0738477 -0.441305 -0.0655497, 
            0.138083 -0.22207 -0.062758, 0.165955 -0.231332 -0.148646, 0.0841087 -0.417914 -0.0748069, 0.172221 -0.105554 -0.0612743, 
            -0.309903 -0.401669 -0.400009, -0.268855 -0.253142 -0.26453, -0.344635 -0.0959263 -0.301872, -0.323555 0.0476932 -0.287418, 
            -0.269422 -0.0842183 -0.346316, -0.279426 -0.103718 -0.343845, -0.26939 -0.0940025 -0.341579, -0.216223 0.084554 -0.242461, 
            -0.244607 -0.0975661 -0.254363, -0.627682 0.210652 -0.349225, -0.0952353 -0.226223 0.232526, -0.161079 -0.565898 0.176757, 
            -0.200291 -0.371409 0.211628, -0.0982719 -0.354688 0.245291, -0.207304 -0.344311 0.212238, -0.0805403 -0.263214 0.26031, 
            0.00562882 -0.149662 0.490844, -0.516135 -0.0612838 0.244726, -0.396182 0.0436833 0.25863, -0.383589 0.0282302 0.256228, 
            -0.438608 -0.119732 0.262318, 0.125631 -0.0508704 0.519067, 0.119478 -0.143095 0.499986, 0.0164586 -0.175102 0.48644, 
            0.303177 -0.0174265 -0.364699, 0.456194 -0.0109227 -0.0468178, 0.245322 -0.0889142 0.120611, 0.281206 -0.0705583 0.101838, 
            0.314801 0.00770378 0.277371, 0.385108 0.0874634 -0.449884, 0.134478 -0.111479 -0.325411, 0.190817 -0.161272 -0.247877, 
            0.498634 0.107416 -0.131047, 0.439208 -0.0224326 -0.198713, 0.418471 -0.0844619 -0.135771, -0.581385 0.0744631 -0.324957, 
            -0.513092 0.0889242 -0.359623, -0.512298 0.109767 -0.366791, -0.0615101 -0.199565 0.55444, -0.122973 -0.179252 0.530856, 
            -0.00701977 -0.0405846 0.561584, 0.187532 -0.256272 0.419245, 0.225908 -0.232778 0.388498, 0.203747 -0.224485 0.223333, 
            -0.05565 -0.201534 0.553555, 0.127062 -0.262918 0.525957, 0.0314773 0.0189881 0.733666, 0.141563 0.0386534 0.651529, 
            0.188919 0.0471129 0.616195, 0.255389 -0.0581796 0.77777, 0.0180764 -0.175159 0.718155, 0.199781 0.0911105 0.452587, 
            -0.0297933 0.118635 0.461789, -0.148781 0.0199118 0.354537, 0.0324264 0.0811064 0.552071, -0.0768176 -0.0364516 0.518807, 
            0.134322 0.0836577 0.586382, 0.0473809 0.189671 0.510698, 0.0866394 0.164379 0.43831, 0.333791 0.00988603 0.547508, 
            0.321872 -0.0700359 0.64636, 0.314317 -0.120694 0.709018, 0.227868 -0.114427 0.658167, 0.105141 -0.152133 0.612883, 
            -0.0774739 -0.107682 0.761189, -0.0545403 -0.0585289 0.803694, -0.0516169 -0.0522633 0.809112, 0.0581644 -0.0891454 0.79253, 
            0.0364811 -0.169504 0.724946, 0.103191 0.0801575 0.274977, 0.322925 -0.109525 0.455908, 0.37736 -0.111463 0.612677, 
            0.312253 -0.148024 0.470885, 0.144188 -0.275415 0.286542, 0.113834 -0.145708 0.130644, 0.00348719 -0.250994 0.213017, 
            -0.0216562 -0.167766 0.419551, -0.121909 -0.0349984 0.226035, -0.000433371 -0.177761 0.130738, -0.141162 -0.0583641 0.275589, 
            0.101847 -0.291935 0.215557, -0.0141272 -0.207736 0.185911, 0.34495 -0.00876999 0.00925547, 0.263449 0.0278242 0.0286339, 
            0.452291 0.0637119 0.0592971, 0.626649 -0.155076 0.104206, 0.681246 -0.0413341 -0.192729, 0.427381 -0.106821 -0.239226, 
            0.423752 -0.00636339 -0.260784, 0.37294 0.0398617 -0.311138, 0.398722 0.283101 0.0941265, 0.523199 0.164942 -0.0523893, 
            0.666798 0.206976 0.143286, 0.489366 0.0473228 0.0190545, 0.070132 0.102649 -0.205519, 0.12201 0.0909288 -0.32945, 
            0.0731919 0.106911 -0.204605, 0.0977726 0.22071 -0.261396, 0.237412 0.14633 -0.0457467, 0.688874 0.196399 0.118707, 
            0.641708 0.0832844 -0.0683723, 0.641984 0.130207 0.104032, 0.427358 0.226381 0.144254, 0.502289 -0.190518 -0.00314909, 
            0.646241 -0.027689 0.185573, 0.632037 0.116167 0.100919, 0.43877 0.24256 -0.131647, 0.507537 0.209612 -0.208213, 
            0.506632 0.18291 -0.0807042, 0.379033 0.349708 -0.124501, 0.79463 0.0783052 -0.138522, 0.519735 0.237122 -0.104671, 
            0.71236 -0.103059 -0.138222, 0.786171 -0.000252962 -0.116169, 0.711453 0.113435 -0.249976, 0.599887 0.0789273 -0.335328, 
            0.610527 0.0578198 -0.316689, 0.473866 0.103408 -0.263012, 0.422865 0.206951 -0.270706, 0.382962 0.226473 -0.220423, 
            0.320662 0.361412 -0.00968117, 0.32672 0.207274 0.062089, 0.206535 0.0849216 -0.0470528, 0.610142 0.125846 0.124686, 
            0.38056 -0.114353 -0.047403, 0.613742 0.232396 0.202359, 0.464626 -0.106086 0.0839806, 0.537512 -0.00319886 0.10679, 
            0.549503 0.252315 -0.295402, 0.566868 0.186998 -0.35126, 0.546472 0.188223 -0.283231, 0.638187 0.19679 -0.205436, 
            0.710438 0.171271 -0.264087, 0.497219 0.119621 -0.297947, 0.804501 -0.0848355 -0.0459377, 0.247865 0.27527 -0.150095, 
            0.26169 0.371103 -0.0260988, 0.237349 0.212172 0.0204304, 0.185514 0.174892 -0.361939, 0.486124 0.259198 -0.204779, 
            -0.516139 0.117831 -0.102411, -0.673408 0.1526 -0.0505401, -0.541235 0.27193 -0.0716752, -0.379844 0.201955 -0.354313, 
            -0.496893 0.164642 -0.459205, -0.411197 0.184718 -0.337072, -0.481201 0.158176 -0.141131, -0.544162 0.0851541 -0.244762, 
            -0.699683 0.3565 -0.261825, -0.68819 0.319432 -0.37587, -0.682232 0.300217 -0.43499, -0.585363 0.417042 -0.399389, 
            -0.438475 0.179192 -0.196285, -0.578929 -0.0646524 -0.434107, -0.695586 0.0354166 -0.484566, -0.726096 -0.0130646 -0.405794, 
            -0.612102 0.268484 -0.460788, -0.662638 0.184975 -0.531758, -0.450724 0.294212 -0.492895, -0.399077 0.276077 -0.365174, 
            -0.428613 0.304268 -0.377313, -0.534742 0.352754 -0.441052, -0.486201 0.0607765 -0.442403, -0.413856 0.180325 -0.340805, 
            -0.490141 0.224465 -0.642816, -0.354038 0.197638 -0.547604, -0.36861 0.233912 -0.54507, -0.283746 0.0132253 -0.458754, 
            -0.675996 0.178404 -0.514514, -0.792532 0.0982344 -0.48945, -0.825644 0.0819468 -0.446707, -0.212292 0.0549924 -0.559586, 
            -0.214725 -0.00571752 -0.597863, -0.560507 -0.0555911 -0.457887, -0.654523 0.0111654 -0.621745, -0.804145 0.21295 -0.38728, 
            -0.680868 0.258395 -0.447483, -0.705272 0.272075 -0.490548, -0.771573 0.218205 -0.514363, -0.845548 0.12268 -0.371569, 
            -0.600806 0.336166 -0.118117, -0.694877 0.371108 -0.275808, -0.713028 0.330271 -0.164496, -0.649311 0.0263774 -0.142889, 
            -0.70373 -0.0635495 -0.219313, -0.726368 -0.0419431 -0.228617, -0.791772 0.0953636 -0.226963, -0.523224 0.321432 -0.204216, 
            -0.539949 0.330145 -0.149544, -0.580426 0.494981 -0.298342, -0.477094 0.341569 -0.260759, -0.466752 0.430392 -0.375734, 
            -0.461104 0.293942 -0.289544, -0.446787 0.172266 -0.279394, -0.500082 0.117348 -0.277251, -0.618634 0.0270686 -0.0812719, 
            -0.820691 0.119377 -0.218448, -0.821918 0.241293 -0.286318, -0.760984 0.12725 -0.169214, -0.635548 0.0438282 -0.622096, 
            -0.345224 -0.0394182 -0.628513, -0.555056 0.120848 -0.677642, -0.300634 0.112822 -0.659001, -0.302434 0.108904 -0.658478, 
            -0.564523 0.447978 -0.327801, -0.233953 -0.0191438 -0.628633, 0.252482 0.133637 -0.283473, 0.222649 0.0715199 -0.305346, 
            0.278509 0.20966 -0.343487, 0.268431 0.180224 -0.320249, 0.58807 0.0531027 -0.189845, 0.599454 0.0863543 -0.216094, 
            0.621219 0.149929 -0.266281, 0.629542 0.174241 -0.285473, 0.610333 0.12288 -0.305566, 0.592628 0.0755413 -0.324086, 
            0.379829 0.0873444 -0.286886, 0.276849 0.325841 -0.355537, 0.413509 0.221092 -0.48722, 0.462704 0.253259 -0.425137, 
            0.379153 0.143022 -0.325332, 0.119511 -0.0471811 -0.568482, 0.220437 0.0164866 -0.640822, 0.164037 0.0828774 -0.671152, 
            0.260774 0.180176 -0.605289, 0.108098 0.321363 -0.413149, 0.0998212 0.19914 -0.468014, 0.0867108 0.257181 -0.340616, 
            0.119169 0.207833 -0.327759, 0.0597174 0.0844073 -0.408193, 0.245157 0.306339 -0.41111, 0.287594 0.236198 -0.364436, 
            0.120316 0.351746 -0.369361, 0.560018 -0.0658066 -0.426765, 0.576214 -0.0184967 -0.464112, 0.397714 -0.0607605 -0.603098, 
            0.498997 0.0382085 -0.700033, 0.503818 0.0522909 -0.71115, 0.428571 0.0796442 -0.709133, 0.394245 0.0921221 -0.708213, 
            0.356832 -0.0126359 -0.625083, 0.554954 -0.0915453 -0.381592, 0.350567 0.179936 -0.566651, 0.493277 0.142433 -0.552267, 
            0.402381 0.213816 -0.501262, 0.494681 0.145923 -0.547238, 0.511062 0.186657 -0.488533, 0.528262 0.229428 -0.426894, 
            0.624537 0.112035 -0.43158, 0.624217 0.11102 -0.429743, 0.572577 -0.0111101 -0.19925, 0.378457 0.200432 -0.364973, 
            0.418104 0.331506 -0.31503, 0.393179 0.285049 -0.246299, 0.363555 0.29671 -0.246124, 0.378573 0.190897 -0.358389, 
            0.175997 -0.0839744 -0.509799, 0.00574779 0.116808 -0.637497, 0.191072 -0.102796 -0.529476, 0.351211 -0.0315406 -0.375693, 
            0.412965 0.0104346 -0.386718, 0.148892 0.332859 -0.328697, 0.167887 0.25717 -0.271784, 0.324356 0.317765 -0.263994, 
            0.563877 -0.0448468 -0.318333, 0.531661 -0.0338602 -0.317107, -0.437663 0.121342 -0.0734459, -0.419683 0.299226 -0.11063, 
            -0.318094 0.251543 0.0187486, -0.39247 0.170553 -0.0386001, -0.199314 -0.0880747 -0.174964, -0.142718 -0.0264459 -0.131325, 
            -0.118185 0.000267744 -0.112409, -0.109845 0.0148346 -0.149989, -0.177554 -0.0559556 -0.225779, -0.185896 -0.0661459 -0.223334, 
            -0.370579 0.0564499 -0.15695, -0.284077 0.088881 -0.314937, -0.325792 0.139428 -0.33222, -0.236588 0.209984 -0.0501767, 
            -0.21985 0.237339 -0.110517, -0.345962 0.219918 0.0645471, -0.234679 0.0233405 -0.134263, -0.253012 0.00775385 -0.146415, 
            -0.282831 -0.0175972 -0.166179, -0.30824 0.00384426 -0.163507, -0.318189 0.151855 -0.359632, -0.190288 -0.105691 -0.466148, 
            -0.303711 0.16762 -0.348469, -0.0962857 0.0421906 -0.574519, -0.00401575 0.102539 -0.521564, 0.00950231 0.117259 -0.511141, 
            -0.0956865 0.183546 -0.510268, -0.223862 0.258609 -0.425707, -0.223459 0.353492 -0.382579, -0.241099 0.368377 -0.380724, 
            -0.321835 0.280462 -0.442976, -0.371691 0.0604408 -0.515486, -0.37932 0.30322 -0.502278, -0.0647441 0.204587 -0.265422, 
            -0.131662 0.261057 -0.258384, -0.0050388 0.154204 -0.271702, -0.173226 -0.0454378 -0.269011, 0.0459757 -0.148324 -0.326364, 
            -0.241785 0.0376356 -0.297415, -0.187885 -0.0276751 -0.275084, -0.279355 0.384499 -0.324625, -0.449808 0.338978 -0.360956, 
            -0.214209 0.246559 -0.130855, -0.359121 0.237086 -0.213556, -0.456858 0.118929 -0.194817, -0.42542 0.170309 -0.308151, 
            -0.369834 0.23468 -0.296112, 0.0751037 0.329624 -0.0212845, 0.16012 0.234635 0.0162426, 0.114195 0.166321 0.048727, 
            -0.0275983 0.117334 -0.190375, -0.0446814 0.0894139 -0.12879, -0.0613759 0.0621288 -0.0686054, 0.052789 0.156351 -0.237018, 
            -0.0980944 0.0353599 -0.20294, -0.0860673 0.0563674 -0.257135, -0.0871437 0.0544872 -0.252285, -0.0977893 0.0414829 -0.249164, 
            -0.143424 -0.013355 -0.125586, -0.194318 0.0113149 -0.0698043, -0.227269 0.0296404 -0.129351, -0.19831 0.25972 -0.0611799, 
            -0.0446626 0.309461 -0.0351957, -0.130435 0.290056 0.0625001, 0.048063 0.25697 -0.143511, -0.18587 0.252365 -0.0740805, 
            0.0485229 0.120412 0.122919, -0.11634 0.206121 0.224299, -0.206887 0.277039 0.110101, -0.236175 0.00778866 -0.587851, 
            0.000910096 -0.0253866 -0.535814, -0.0202132 0.0404475 -0.586342, -0.0900865 -0.0344555 -0.492995, -0.0603172 -0.131144 -0.45553, 
            -0.110979 -0.0766513 -0.533467, 0.0730073 -0.0237038 -0.388518, 0.022638 0.0264041 -0.208292, 0.0707508 0.234416 0.193447, 
            -3.19108e-05 -0.10408 -0.435219, 0.0712112 -0.0319848 -0.384388, -0.0814753 0.293303 0.210297, -0.0911107 0.312754 0.116078, 
            0.107119 0.310916 0.109319, -0.0941588 0.297914 0.0978795, 0.189996 0.152139 0.00852096, 0.192941 0.155571 0.0141831, 
            0.159802 0.121678 0.323502, 0.420658 -0.208344 0.305935, 0.456612 -0.19735 0.392138, 0.518755 -0.127663 0.29561, 
            0.364921 -0.170754 0.119994, 0.290716 -0.083128 0.107187, 0.226256 0.0560422 0.420464, 0.340166 0.113134 0.380444, 
            0.260638 0.0471716 0.486272, 0.0427912 0.0190821 0.144165, 0.37125 0.0939717 0.0207386, 0.474666 0.060441 0.0753542, 
            0.3972 0.173278 0.116584, 0.588667 -0.0364108 0.409324, 0.531644 -0.10061 0.477883, 0.530071 0.0375369 0.394978, 
            0.361472 0.2508 0.285932, 0.459615 0.109231 0.271417, 0.357171 0.114052 0.371045, 0.462167 0.106994 0.271445, 
            0.280495 0.189997 0.36489, 0.492948 0.0576265 0.475884, 0.456136 -0.0785449 0.0926905, 0.502796 -0.0241628 0.182423, 
            0.538013 0.0168817 0.250147, 0.468641 0.0993905 0.159358, 0.469179 -0.0618615 0.234642, 0.461641 -0.119238 0.0910626, 
            0.360884 -0.0740433 0.0859869, 0.53696 0.0704784 0.303557, 0.582354 0.04337 0.322748, 0.490631 -0.0621169 0.549659, 
            0.3153 0.272553 0.292224, 0.127085 -0.0187061 0.17685, 0.161561 -0.0270035 0.110293, 0.123178 0.033838 0.0398268, 
            0.45634 0.00933456 0.0664308, 0.456066 -0.198961 0.216409
          ]
        }
        coordIndex
        [
          2,1,0,-1, 5,4,3,-1, 7,6,0,-1, 10,9,8,-1, 12,11,0,-1, 1,13,7,-1, 
          15,14,10,-1, 17,3,16,-1, 17,18,6,-1, 18,10,6,-1, 18,17,15,-1, 18,15,19,-1, 
          10,19,15,-1, 18,19,10,-1, 14,15,17,-1, 20,10,8,-1, 22,21,6,-1, 22,6,10,-1, 
          21,0,6,-1, 21,26,25,-1, 21,25,24,-1, 21,24,23,-1, 0,23,12,-1, 21,23,0,-1, 
          8,12,20,-1, 22,27,26,-1, 22,26,21,-1, 31,30,29,-1, 31,29,28,-1, 32,5,31,-1, 
          32,33,9,-1, 35,34,1,-1, 36,8,33,-1, 39,38,37,-1, 39,37,8,-1, 39,8,36,-1, 
          13,41,40,-1, 41,42,40,-1, 45,44,43,-1, 43,30,42,-1, 34,41,13,-1, 40,42,5,-1, 
          4,14,16,-1, 49,48,47,-1, 49,47,46,-1, 40,46,47,-1, 49,46,40,-1, 50,47,48,-1, 
          40,47,51,-1, 52,48,49,-1, 53,52,3,-1, 3,49,5,-1, 5,49,40,-1, 4,16,3,-1, 
          14,17,16,-1, 10,14,54,-1, 10,54,55,-1, 55,54,4,-1, 55,4,5,-1, 10,55,9,-1, 
          32,55,5,-1, 9,55,32,-1, 4,54,14,-1, 32,28,33,-1, 33,28,29,-1, 33,29,45,-1, 
          45,29,44,-1, 43,44,30,-1, 42,30,31,-1, 42,31,5,-1, 8,9,33,-1, 35,33,45,-1, 
          28,32,31,-1, 41,43,42,-1, 45,43,41,-1, 30,44,29,-1, 35,45,34,-1, 34,45,41,-1, 
          7,56,53,-1, 7,53,3,-1, 1,34,13,-1, 57,36,35,-1, 57,35,1,-1, 33,35,36,-1, 
          11,37,38,-1, 2,57,1,-1, 7,58,56,-1, 60,50,59,-1, 60,56,50,-1, 60,48,52,-1, 
          58,51,61,-1, 58,61,56,-1, 56,61,51,-1, 13,51,58,-1, 50,51,47,-1, 56,51,50,-1, 
          13,58,7,-1, 7,3,6,-1, 6,3,17,-1, 49,3,52,-1, 52,53,62,-1, 60,62,56,-1, 
          52,62,60,-1, 1,7,0,-1, 48,59,50,-1, 60,59,48,-1, 56,62,53,-1, 40,51,13,-1, 
          63,20,12,-1, 22,10,63,-1, 24,64,23,-1, 23,65,12,-1, 10,20,63,-1, 27,22,63,-1, 
          65,64,66,-1, 12,66,63,-1, 67,66,64,-1, 67,24,25,-1, 27,25,26,-1, 64,65,23,-1, 
          12,65,66,-1, 24,67,64,-1, 66,67,25,-1, 63,66,27,-1, 27,66,25,-1, 39,68,38,-1, 
          11,12,8,-1, 11,8,37,-1, 2,39,36,-1, 2,36,57,-1, 0,68,2,-1, 11,68,0,-1, 
          38,68,11,-1, 2,68,39,-1, 132,131,130,-1, 135,134,133,-1, 131,137,136,-1, 131,136,130,-1, 
          141,140,139,-1, 141,139,138,-1, 136,142,130,-1, 145,144,143,-1, 147,146,144,-1, 148,144,146,-1, 
          148,150,149,-1, 148,151,143,-1, 141,153,152,-1, 141,152,151,-1, 147,132,146,-1, 132,147,131,-1, 
          155,137,154,-1, 155,154,153,-1, 142,160,159,-1, 142,159,158,-1, 142,158,157,-1, 142,157,156,-1, 
          155,136,137,-1, 134,154,133,-1, 162,161,143,-1, 164,162,163,-1, 135,161,134,-1, 130,156,157,-1, 
          142,156,130,-1, 130,157,132,-1, 132,157,158,-1, 138,158,159,-1, 132,158,138,-1, 138,159,141,-1, 
          141,159,160,-1, 141,160,155,-1, 155,160,142,-1, 155,142,136,-1, 146,138,139,-1, 132,138,146,-1, 
          146,139,148,-1, 148,139,140,-1, 148,140,151,-1, 151,140,141,-1, 153,141,155,-1, 144,149,150,-1, 
          148,149,144,-1, 144,150,143,-1, 143,150,148,-1, 143,151,152,-1, 143,152,162,-1, 162,152,163,-1, 
          164,163,153,-1, 164,153,154,-1, 153,163,152,-1, 161,162,164,-1, 134,164,154,-1, 161,164,134,-1, 
          166,165,137,-1, 137,165,133,-1, 137,133,154,-1, 161,135,166,-1, 168,167,137,-1, 161,170,169,-1, 
          171,168,137,-1, 161,169,145,-1, 145,169,131,-1, 165,166,135,-1, 143,161,145,-1, 144,145,147,-1, 
          147,145,131,-1, 133,165,135,-1, 173,170,172,-1, 173,171,169,-1, 168,171,167,-1, 137,172,166,-1, 
          167,172,137,-1, 161,166,170,-1, 169,170,173,-1, 171,173,167,-1, 172,167,173,-1, 169,171,137,-1, 
          131,169,137,-1, 170,166,172,-1, 176,175,174,-1, 179,178,177,-1, 181,180,174,-1, 184,183,182,-1, 
          185,176,174,-1, 188,187,186,-1, 190,189,188,-1, 193,192,191,-1, 185,194,176,-1, 196,195,177,-1, 
          193,197,196,-1, 200,199,198,-1, 183,192,200,-1, 183,200,201,-1, 203,192,202,-1, 178,205,204,-1, 
          208,207,206,-1, 180,181,209,-1, 179,180,178,-1, 210,199,209,-1, 211,201,198,-1, 210,198,199,-1, 
          210,209,181,-1, 189,211,210,-1, 213,194,182,-1, 213,182,212,-1, 190,214,175,-1, 190,188,186,-1, 
          216,215,185,-1, 215,197,193,-1, 215,193,191,-1, 215,191,184,-1, 215,184,217,-1, 219,218,195,-1, 
          206,221,220,-1, 208,206,202,-1, 203,221,222,-1, 202,224,223,-1, 202,223,203,-1, 203,222,199,-1, 
          199,222,225,-1, 209,225,207,-1, 199,225,209,-1, 209,207,180,-1, 180,207,208,-1, 178,208,202,-1, 
          180,208,178,-1, 178,204,177,-1, 177,204,226,-1, 177,226,196,-1, 196,226,205,-1, 193,205,202,-1, 
          196,205,193,-1, 193,202,192,-1, 195,196,219,-1, 205,226,204,-1, 179,177,195,-1, 197,219,196,-1, 
          218,219,197,-1, 195,218,216,-1, 216,218,197,-1, 179,195,216,-1, 182,217,184,-1, 215,217,194,-1, 
          194,217,182,-1, 183,184,191,-1, 183,191,192,-1, 216,197,215,-1, 185,215,194,-1, 229,228,227,-1, 
          227,228,212,-1, 201,212,182,-1, 227,212,201,-1, 201,182,183,-1, 176,194,213,-1, 176,213,175,-1, 
          175,213,229,-1, 190,229,227,-1, 175,229,190,-1, 190,227,189,-1, 211,227,201,-1, 189,227,211,-1, 
          212,228,229,-1, 212,229,213,-1, 174,175,214,-1, 174,214,186,-1, 186,214,190,-1, 174,186,187,-1, 
          174,187,181,-1, 181,187,230,-1, 181,230,210,-1, 210,230,189,-1, 198,201,200,-1, 210,211,198,-1, 
          188,189,230,-1, 188,230,187,-1, 225,222,221,-1, 207,225,221,-1, 200,203,199,-1, 192,203,200,-1, 
          178,202,205,-1, 223,220,231,-1, 223,224,220,-1, 207,221,206,-1, 220,221,231,-1, 224,202,206,-1, 
          220,224,206,-1, 203,231,221,-1, 223,231,203,-1, 179,216,174,-1, 174,216,185,-1, 180,179,174,-1, 
          234,233,232,-1, 237,236,235,-1, 239,238,232,-1, 243,242,241,-1, 243,241,240,-1, 238,244,234,-1, 
          247,246,245,-1, 250,249,248,-1, 253,252,251,-1, 237,255,254,-1, 237,254,236,-1, 258,257,256,-1, 
          236,254,259,-1, 260,249,256,-1, 246,247,262,-1, 246,262,261,-1, 264,263,259,-1, 266,265,245,-1, 
          241,267,240,-1, 253,248,268,-1, 248,249,260,-1, 268,269,267,-1, 269,260,270,-1, 267,262,271,-1, 
          233,234,272,-1, 274,273,240,-1, 278,277,276,-1, 278,276,275,-1, 278,271,247,-1, 280,279,273,-1, 
          279,282,281,-1, 284,252,283,-1, 285,284,282,-1, 244,285,280,-1, 286,254,255,-1, 239,286,255,-1, 
          239,255,237,-1, 239,237,285,-1, 286,239,265,-1, 233,287,232,-1, 232,287,275,-1, 232,275,239,-1, 
          239,275,276,-1, 245,276,277,-1, 239,276,245,-1, 245,277,247,-1, 247,277,278,-1, 271,278,288,-1, 
          271,288,289,-1, 289,288,290,-1, 274,290,233,-1, 289,290,274,-1, 267,289,240,-1, 271,289,267,-1, 
          240,289,274,-1, 290,288,278,-1, 247,271,262,-1, 272,274,233,-1, 273,274,272,-1, 233,290,278,-1, 
          287,233,278,-1, 280,272,234,-1, 273,272,280,-1, 234,232,238,-1, 275,287,278,-1, 291,261,270,-1, 
          270,261,262,-1, 270,262,267,-1, 245,246,266,-1, 292,266,291,-1, 293,291,270,-1, 292,291,293,-1, 
          239,245,265,-1, 286,265,292,-1, 286,292,259,-1, 291,266,246,-1, 293,270,260,-1, 269,270,267,-1, 
          261,291,246,-1, 294,293,256,-1, 256,293,260,-1, 295,292,293,-1, 295,293,294,-1, 266,292,265,-1, 
          258,256,249,-1, 263,294,257,-1, 236,257,258,-1, 259,257,236,-1, 236,258,250,-1, 250,258,249,-1, 
          267,241,242,-1, 268,242,243,-1, 267,242,268,-1, 268,243,283,-1, 283,243,296,-1, 283,296,284,-1, 
          260,269,268,-1, 260,268,248,-1, 250,251,235,-1, 235,251,252,-1, 235,252,284,-1, 268,283,253,-1, 
          248,253,250,-1, 236,250,235,-1, 285,235,284,-1, 237,235,285,-1, 251,250,253,-1, 282,284,296,-1, 
          281,296,243,-1, 282,296,281,-1, 253,283,252,-1, 273,281,243,-1, 279,281,273,-1, 285,282,279,-1, 
          285,279,280,-1, 285,244,238,-1, 285,238,239,-1, 244,280,234,-1, 240,273,243,-1, 286,259,254,-1, 
          257,294,256,-1, 264,295,294,-1, 264,297,295,-1, 257,259,263,-1, 294,263,264,-1, 292,297,264,-1, 
          295,297,292,-1, 259,292,264,-1, 301,300,299,-1, 301,299,298,-1, 307,306,305,-1, 307,305,304,-1, 
          307,304,303,-1, 307,303,302,-1, 299,308,298,-1, 311,310,309,-1, 308,312,301,-1, 308,301,298,-1, 
          315,314,313,-1, 318,317,316,-1, 320,319,299,-1, 319,318,321,-1, 300,323,322,-1, 319,324,317,-1, 
          327,326,325,-1, 314,315,316,-1, 327,332,331,-1, 327,331,330,-1, 327,330,329,-1, 327,329,328,-1, 
          314,325,333,-1, 334,316,324,-1, 336,335,334,-1, 310,336,334,-1, 310,334,322,-1, 311,339,310,-1, 
          310,339,338,-1, 310,338,336,-1, 336,338,337,-1, 336,337,335,-1, 340,335,337,-1, 340,341,325,-1, 
          340,325,326,-1, 341,307,342,-1, 306,338,339,-1, 307,337,338,-1, 343,309,323,-1, 346,345,344,-1, 
          305,339,311,-1, 347,304,343,-1, 323,300,312,-1, 323,312,347,-1, 323,347,343,-1, 312,300,301,-1, 
          347,312,308,-1, 347,308,303,-1, 327,328,326,-1, 326,328,329,-1, 335,329,330,-1, 326,329,335,-1, 
          334,330,331,-1, 335,330,334,-1, 316,331,332,-1, 334,331,316,-1, 316,332,314,-1, 314,332,327,-1, 
          314,327,325,-1, 348,321,313,-1, 349,313,321,-1, 351,348,350,-1, 351,350,333,-1, 333,350,314,-1, 
          316,315,349,-1, 316,349,318,-1, 318,349,321,-1, 352,299,321,-1, 319,321,299,-1, 313,349,315,-1, 
          317,318,319,-1, 316,317,324,-1, 334,324,353,-1, 322,353,354,-1, 334,353,322,-1, 300,354,320,-1, 
          322,354,300,-1, 300,320,299,-1, 309,355,344,-1, 346,355,309,-1, 309,344,311,-1, 311,344,345,-1, 
          311,345,304,-1, 304,345,346,-1, 343,346,309,-1, 304,346,343,-1, 340,326,335,-1, 357,352,356,-1, 
          299,357,356,-1, 299,356,342,-1, 342,356,341,-1, 307,341,340,-1, 307,340,337,-1, 342,302,308,-1, 
          308,302,303,-1, 347,303,304,-1, 311,304,305,-1, 339,305,306,-1, 338,306,307,-1, 299,342,308,-1, 
          341,356,333,-1, 341,333,325,-1, 357,299,352,-1, 351,321,348,-1, 351,333,352,-1, 352,333,356,-1, 
          314,350,313,-1, 313,350,348,-1, 321,351,352,-1, 302,342,307,-1, 310,322,309,-1, 323,309,322,-1, 
          344,355,346,-1, 320,354,353,-1, 319,320,353,-1, 319,353,324,-1, 361,360,359,-1, 361,359,358,-1, 
          367,366,365,-1, 367,365,364,-1, 367,364,363,-1, 367,363,362,-1, 370,369,368,-1, 373,372,371,-1, 
          374,368,377,-1, 374,377,376,-1, 374,376,375,-1, 380,379,378,-1, 384,383,382,-1, 384,382,381,-1, 
          388,387,386,-1, 388,386,385,-1, 380,390,389,-1, 386,392,391,-1, 385,391,393,-1, 397,396,395,-1, 
          397,395,394,-1, 397,394,367,-1, 397,367,362,-1, 397,362,376,-1, 397,376,377,-1, 368,369,396,-1, 
          368,396,397,-1, 368,397,377,-1, 396,369,370,-1, 396,370,378,-1, 399,398,390,-1, 401,400,398,-1, 
          360,371,372,-1, 360,372,400,-1, 401,404,403,-1, 401,403,402,-1, 380,378,370,-1, 392,400,372,-1, 
          407,406,405,-1, 407,410,409,-1, 407,409,408,-1, 411,393,391,-1, 411,391,392,-1, 365,412,409,-1, 
          365,409,410,-1, 365,410,364,-1, 413,393,408,-1, 412,414,413,-1, 412,413,408,-1, 412,408,409,-1, 
          415,413,414,-1, 415,414,412,-1, 415,412,365,-1, 415,365,366,-1, 415,366,367,-1, 415,367,394,-1, 
          416,363,364,-1, 416,364,410,-1, 418,417,373,-1, 374,418,371,-1, 416,375,376,-1, 416,376,362,-1, 
          416,362,363,-1, 416,418,374,-1, 416,374,375,-1, 421,420,419,-1, 419,405,406,-1, 411,406,407,-1, 
          423,422,411,-1, 410,407,424,-1, 410,424,417,-1, 417,424,425,-1, 426,421,419,-1, 417,425,373,-1, 
          427,381,379,-1, 430,429,428,-1, 432,431,395,-1, 428,382,433,-1, 413,382,383,-1, 434,382,413,-1, 
          393,383,384,-1, 413,383,393,-1, 385,384,427,-1, 393,384,385,-1, 389,427,379,-1, 385,427,389,-1, 
          391,385,386,-1, 392,386,387,-1, 398,387,388,-1, 392,387,398,-1, 390,388,389,-1, 398,388,390,-1, 
          380,389,379,-1, 359,402,358,-1, 358,402,403,-1, 358,403,370,-1, 370,403,404,-1, 390,404,399,-1, 
          370,404,390,-1, 398,399,401,-1, 400,401,359,-1, 400,359,360,-1, 370,390,380,-1, 392,398,400,-1, 
          401,399,404,-1, 368,358,370,-1, 361,358,368,-1, 402,359,401,-1, 371,360,361,-1, 374,361,368,-1, 
          371,361,374,-1, 373,419,372,-1, 372,419,392,-1, 392,419,423,-1, 435,425,424,-1, 418,373,371,-1, 
          410,417,416,-1, 416,417,418,-1, 405,424,407,-1, 396,379,395,-1, 378,379,396,-1, 381,427,384,-1, 
          385,389,388,-1, 415,434,413,-1, 394,395,415,-1, 382,429,381,-1, 395,431,436,-1, 434,395,437,-1, 
          434,437,433,-1, 432,436,431,-1, 432,379,381,-1, 436,428,433,-1, 437,436,433,-1, 382,428,429,-1, 
          430,428,436,-1, 381,429,430,-1, 432,430,436,-1, 381,430,432,-1, 437,395,436,-1, 395,379,432,-1, 
          434,433,382,-1, 415,395,434,-1, 439,438,435,-1, 426,373,425,-1, 423,419,406,-1, 421,440,405,-1, 
          438,425,435,-1, 419,420,405,-1, 424,405,440,-1, 424,440,435,-1, 435,440,439,-1, 438,439,441,-1, 
          426,441,421,-1, 438,441,426,-1, 425,438,426,-1, 441,439,440,-1, 373,426,419,-1, 421,441,440,-1, 
          405,420,421,-1, 411,422,406,-1, 406,422,423,-1, 408,411,407,-1, 393,411,408,-1, 423,411,392,-1, 
          444,443,442,-1, 447,446,445,-1, 449,448,445,-1, 452,451,450,-1, 450,444,453,-1, 456,455,454,-1, 
          459,458,457,-1, 444,456,443,-1, 462,461,460,-1, 459,463,461,-1, 451,462,460,-1, 451,460,464,-1, 
          465,451,452,-1, 455,468,467,-1, 455,467,466,-1, 456,461,463,-1, 469,463,468,-1, 447,470,458,-1, 
          470,467,468,-1, 466,467,470,-1, 472,466,471,-1, 472,471,448,-1, 472,449,454,-1, 459,473,463,-1, 
          463,473,474,-1, 463,474,468,-1, 468,474,457,-1, 470,457,458,-1, 468,457,470,-1, 446,458,475,-1, 
          446,475,452,-1, 452,475,465,-1, 462,465,459,-1, 462,459,461,-1, 451,464,450,-1, 450,464,476,-1, 
          450,476,456,-1, 456,476,460,-1, 456,460,461,-1, 465,462,451,-1, 459,465,475,-1, 459,475,458,-1, 
          446,452,450,-1, 446,450,453,-1, 477,445,446,-1, 444,450,456,-1, 460,476,464,-1, 478,477,453,-1, 
          445,478,449,-1, 449,479,442,-1, 454,442,443,-1, 449,442,454,-1, 454,443,456,-1, 472,454,480,-1, 
          466,480,455,-1, 472,480,466,-1, 468,455,469,-1, 463,469,456,-1, 458,446,447,-1, 470,447,481,-1, 
          470,481,471,-1, 471,481,448,-1, 448,449,472,-1, 442,479,453,-1, 481,447,445,-1, 448,481,445,-1, 
          470,471,466,-1, 474,473,459,-1, 457,474,459,-1, 455,480,454,-1, 456,469,455,-1, 478,445,477,-1, 
          453,479,478,-1, 478,479,449,-1, 442,453,444,-1, 446,453,477,-1, 71,70,69,-1, 74,73,72,-1, 
          75,74,72,-1, 75,72,69,-1, 78,77,76,-1, 72,71,69,-1, 70,73,75,-1, 80,79,71,-1, 
          72,81,71,-1, 71,82,70,-1, 83,76,70,-1, 70,75,69,-1, 73,81,72,-1, 73,77,84,-1, 
          73,84,81,-1, 81,84,71,-1, 70,76,73,-1, 76,77,73,-1, 73,74,75,-1, 76,82,84,-1, 
          86,85,84,-1, 86,84,82,-1, 87,71,84,-1, 90,89,88,-1, 90,88,87,-1, 80,71,87,-1, 
          80,87,88,-1, 80,88,91,-1, 85,90,87,-1, 85,87,84,-1, 79,91,86,-1, 92,84,77,-1, 
          92,76,84,-1, 95,94,78,-1, 95,78,93,-1, 76,93,78,-1, 92,93,76,-1, 77,78,92,-1, 
          97,96,92,-1, 97,92,78,-1, 96,98,93,-1, 96,93,92,-1, 96,95,99,-1, 93,100,99,-1, 
          93,99,95,-1, 98,100,93,-1, 101,95,96,-1, 102,82,76,-1, 102,70,82,-1, 105,104,103,-1, 
          70,103,104,-1, 70,104,106,-1, 107,103,70,-1, 76,83,102,-1, 108,106,104,-1, 109,83,106,-1, 
          110,102,83,-1, 111,107,102,-1, 111,106,107,-1, 111,109,112,-1, 106,112,109,-1, 111,112,106,-1, 
          83,109,110,-1, 102,110,111,-1, 113,107,106,-1, 114,105,107,-1, 114,104,105,-1, 114,113,108,-1, 
          114,108,115,-1, 104,115,108,-1, 114,115,104,-1, 106,108,113,-1, 107,113,114,-1, 97,78,94,-1, 
          98,96,99,-1, 98,99,100,-1, 116,89,90,-1, 117,91,88,-1, 91,79,118,-1, 119,80,91,-1, 
          119,79,80,-1, 119,120,118,-1, 120,91,118,-1, 119,118,79,-1, 91,120,119,-1, 121,86,89,-1, 
          122,85,86,-1, 122,90,85,-1, 122,121,116,-1, 122,116,123,-1, 90,123,116,-1, 122,123,90,-1, 
          89,116,121,-1, 86,121,122,-1, 124,86,91,-1, 125,89,86,-1, 125,88,89,-1, 125,124,117,-1, 
          125,117,126,-1, 88,126,117,-1, 125,126,88,-1, 91,117,124,-1, 86,124,125,-1, 127,94,95,-1, 
          128,97,94,-1, 128,96,97,-1, 128,127,101,-1, 128,101,129,-1, 96,129,101,-1, 128,129,96,-1, 
          95,101,127,-1, 94,127,128,-1, 79,82,71,-1, 86,82,79,-1, 107,105,103,-1, 102,107,70,-1, 
          111,110,109,-1, 106,83,70,-1
        ]
      }
      appearance Appearance
      {
        material Material
        {
	       ambientIntensity 0.2
	       diffuseColor 0.9 0.9 0.9
	       specularColor .1 .1 .1
	       shininess .5
        }
      }
    }
  ]
}
