<?xml version="1.0" encoding="UTF-8"?>
<!DOCTYPE X3D PUBLIC "ISO//Web3D//DTD X3D 3.0//EN" "http://www.web3d.org/specifications/x3d-3.0.dtd">
<X3D version="3.0" profile="Immersive" xmlns:xsd="http://www.w3.org/2001/XMLSchema-instance" xsd:noNamespaceSchemaLocation="http://www.web3d.org/specifications/x3d-3.0.xsd">
	<head>
		<meta name="filename" content="tree.x3d" />
		<meta name="generator" content="Blender 4.2.1 LTS" />
	</head>
	<Scene>
		<NavigationInfo headlight="false"
		                visibilityLimit="0.0"
		                type='"EXAMINE", "ANY"'
		                avatarSize="0.25, 1.75, 0.75"
		                />
		<Background DEF="WO_World"
		            groundColor="0.051 0.051 0.051"
		            skyColor="0.051 0.051 0.051"
		            />
		<Transform DEF="Light_TRANSFORM"
		           translation="4.076245 5.903862 -1.005454"
		           scale="1.000000 1.000000 1.000000"
		           rotation="-0.333464 0.853055 0.401371 2.040212"
		           >
			<PointLight DEF="LA_Light"
			            ambientIntensity="0.0000"
			            color="1.0000 1.0000 1.0000"
			            intensity="1.0000"
			            radius="40.0000" 
			            location="-0.0000 -0.0000 0.0000"
			            />
		</Transform>
		<Transform DEF="Camera_TRANSFORM"
		           translation="7.358891 4.958309 6.925791"
		           scale="1.000000 1.000000 1.000000"
		           rotation="-0.468195 0.860207 0.202082 0.930113"
		           >
			<Viewpoint DEF="CA_Camera"
			           centerOfRotation="0 0 0"
			           position="-0.00 -0.00 0.00"
			           orientation="-0.00 -0.47 -0.88 0.00"
			           fieldOfView="0.691"
			           />
		</Transform>
		<Transform DEF="model_TRANSFORM"
		           translation="0.000000 0.000000 0.000000"
		           scale="1.000000 1.000000 1.000000"
		           rotation="-0.000000 0.000000 0.000000 0.000000"
		           >
			<Transform DEF="model_ifs_TRANSFORM"
			           translation="0.000000 0.000000 0.000000"
			           scale="1.000000 1.000000 1.000000"
			           rotation="0.000000 1.000000 0.000000 0.000000"
			           >
				<Group DEF="group_ME_model">
					<Shape>
						<Appearance>
							<Material DEF="MA_mat9"
							          diffuseColor="0.270 0.550 0.070"
							          specularColor="0.401 0.401 0.401"
							          emissiveColor="0.000 0.000 0.000"
							          ambientIntensity="0.000"
							          shininess="0.500"
							          transparency="0.0"
							          />
						</Appearance>
						<IndexedFaceSet solid="false"
						                coordIndex="2 1 0 -1 5 4 3 -1 7 6 0 -1 10 9 8 -1 12 11 0 -1 1 13 7 -1 15 14 10 -1 17 3 16 -1 17 18 6 -1 18 10 6 -1 18 17 15 19 -1 10 19 15 -1 18 19 10 -1 14 15 17 -1 20 10 8 -1 22 21 6 10 -1 21 0 6 -1 21 26 25 24 23 -1 0 23 12 -1 21 23 0 -1 8 12 20 -1 22 27 26 21 -1 31 30 29 28 -1 32 5 31 -1 32 33 9 -1 35 34 1 -1 36 8 33 -1 39 38 37 8 36 -1 13 41 40 -1 41 42 40 -1 45 44 43 -1 43 30 42 -1 34 41 13 -1 40 42 5 -1 4 14 16 -1 49 48 47 46 -1 40 46 47 -1 49 46 40 -1 50 47 48 -1 40 47 51 -1 52 48 49 -1 53 52 3 -1 3 49 5 -1 5 49 40 -1 4 16 3 -1 14 17 16 -1 10 14 54 -1 10 54 55 -1 55 54 4 -1 55 4 5 -1 10 55 9 -1 32 55 5 -1 9 55 32 -1 4 54 14 -1 32 28 33 -1 33 28 29 -1 33 29 45 -1 45 29 44 -1 43 44 30 -1 42 30 31 -1 42 31 5 -1 8 9 33 -1 35 33 45 -1 28 32 31 -1 41 43 42 -1 45 43 41 -1 30 44 29 -1 35 45 34 -1 34 45 41 -1 7 56 53 3 -1 1 34 13 -1 57 36 35 1 -1 33 35 36 -1 11 37 38 -1 2 57 1 -1 7 58 56 -1 60 50 59 -1 60 56 50 -1 60 48 52 -1 58 51 61 -1 58 61 56 -1 56 61 51 -1 13 51 58 -1 50 51 47 -1 56 51 50 -1 13 58 7 -1 7 3 6 -1 6 3 17 -1 49 3 52 -1 52 53 62 -1 60 62 56 -1 52 62 60 -1 1 7 0 -1 48 59 50 -1 60 59 48 -1 56 62 53 -1 40 51 13 -1 63 20 12 -1 22 10 63 -1 24 64 23 -1 23 65 12 -1 10 20 63 -1 27 22 63 -1 65 64 66 -1 12 66 63 -1 67 66 64 -1 67 24 25 -1 27 25 26 -1 64 65 23 -1 12 65 66 -1 24 67 64 -1 66 67 25 -1 63 66 27 -1 27 66 25 -1 39 68 38 -1 11 12 8 37 -1 2 39 36 57 -1 0 68 2 -1 11 68 0 -1 38 68 11 -1 2 68 39 -1 132 131 130 -1 135 134 133 -1 131 137 136 130 -1 141 140 139 138 -1 136 142 130 -1 145 144 143 -1 147 146 144 -1 148 144 146 -1 148 150 149 -1 148 151 143 -1 141 153 152 151 -1 147 132 146 -1 132 147 131 -1 155 137 154 -1 155 154 153 -1 142 160 159 158 157 156 -1 155 136 137 -1 134 154 133 -1 162 161 143 -1 164 162 163 -1 135 161 134 -1 130 156 157 -1 142 156 130 -1 130 157 132 -1 132 157 158 -1 138 158 159 -1 132 158 138 -1 138 159 141 -1 141 159 160 -1 141 160 155 -1 155 160 142 -1 155 142 136 -1 146 138 139 -1 132 138 146 -1 146 139 148 -1 148 139 140 -1 148 140 151 -1 151 140 141 -1 153 141 155 -1 144 149 150 -1 148 149 144 -1 144 150 143 -1 143 150 148 -1 143 151 152 -1 143 152 162 -1 162 152 163 -1 164 163 153 -1 164 153 154 -1 153 163 152 -1 161 162 164 -1 134 164 154 -1 161 164 134 -1 166 165 137 -1 137 165 133 -1 137 133 154 -1 161 135 166 -1 168 167 137 -1 161 170 169 -1 171 168 137 -1 161 169 145 -1 145 169 131 -1 165 166 135 -1 143 161 145 -1 144 145 147 -1 147 145 131 -1 133 165 135 -1 173 170 172 -1 173 171 169 -1 168 171 167 -1 137 172 166 -1 167 172 137 -1 161 166 170 -1 169 170 173 -1 171 173 167 -1 172 167 173 -1 169 171 137 -1 131 169 137 -1 170 166 172 -1 176 175 174 -1 179 178 177 -1 181 180 174 -1 184 183 182 -1 185 176 174 -1 188 187 186 -1 190 189 188 -1 193 192 191 -1 185 194 176 -1 196 195 177 -1 193 197 196 -1 200 199 198 -1 183 192 200 -1 183 200 201 -1 203 192 202 -1 178 205 204 -1 208 207 206 -1 180 181 209 -1 179 180 178 -1 210 199 209 -1 211 201 198 -1 210 198 199 -1 210 209 181 -1 189 211 210 -1 213 194 182 212 -1 190 214 175 -1 190 188 186 -1 216 215 185 -1 215 197 193 191 184 217 -1 219 218 195 -1 206 221 220 -1 208 206 202 -1 203 221 222 -1 202 224 223 203 -1 203 222 199 -1 199 222 225 -1 209 225 207 -1 199 225 209 -1 209 207 180 -1 180 207 208 -1 178 208 202 -1 180 208 178 -1 178 204 177 -1 177 204 226 -1 177 226 196 -1 196 226 205 -1 193 205 202 -1 196 205 193 -1 193 202 192 -1 195 196 219 -1 205 226 204 -1 179 177 195 -1 197 219 196 -1 218 219 197 -1 195 218 216 -1 216 218 197 -1 179 195 216 -1 182 217 184 -1 215 217 194 -1 194 217 182 -1 183 184 191 -1 183 191 192 -1 216 197 215 -1 185 215 194 -1 229 228 227 -1 227 228 212 -1 201 212 182 -1 227 212 201 -1 201 182 183 -1 176 194 213 -1 176 213 175 -1 175 213 229 -1 190 229 227 -1 175 229 190 -1 190 227 189 -1 211 227 201 -1 189 227 211 -1 212 228 229 -1 212 229 213 -1 174 175 214 -1 174 214 186 -1 186 214 190 -1 174 186 187 -1 174 187 181 -1 181 187 230 -1 181 230 210 -1 210 230 189 -1 198 201 200 -1 210 211 198 -1 188 189 230 -1 188 230 187 -1 225 222 221 -1 207 225 221 -1 200 203 199 -1 192 203 200 -1 178 202 205 -1 223 220 231 -1 223 224 220 -1 207 221 206 -1 220 221 231 -1 224 202 206 -1 220 224 206 -1 203 231 221 -1 223 231 203 -1 179 216 174 -1 174 216 185 -1 180 179 174 -1 234 233 232 -1 237 236 235 -1 239 238 232 -1 243 242 241 240 -1 238 244 234 -1 247 246 245 -1 250 249 248 -1 253 252 251 -1 237 255 254 236 -1 258 257 256 -1 236 254 259 -1 260 249 256 -1 246 247 262 261 -1 264 263 259 -1 266 265 245 -1 241 267 240 -1 253 248 268 -1 248 249 260 -1 268 269 267 -1 269 260 270 -1 267 262 271 -1 233 234 272 -1 274 273 240 -1 278 277 276 275 -1 278 271 247 -1 280 279 273 -1 279 282 281 -1 284 252 283 -1 285 284 282 -1 244 285 280 -1 286 254 255 -1 239 286 255 237 285 -1 286 239 265 -1 233 287 232 -1 232 287 275 -1 232 275 239 -1 239 275 276 -1 245 276 277 -1 239 276 245 -1 245 277 247 -1 247 277 278 -1 271 278 288 -1 271 288 289 -1 289 288 290 -1 274 290 233 -1 289 290 274 -1 267 289 240 -1 271 289 267 -1 240 289 274 -1 290 288 278 -1 247 271 262 -1 272 274 233 -1 273 274 272 -1 233 290 278 -1 287 233 278 -1 280 272 234 -1 273 272 280 -1 234 232 238 -1 275 287 278 -1 291 261 270 -1 270 261 262 -1 270 262 267 -1 245 246 266 -1 292 266 291 -1 293 291 270 -1 292 291 293 -1 239 245 265 -1 286 265 292 -1 286 292 259 -1 291 266 246 -1 293 270 260 -1 269 270 267 -1 261 291 246 -1 294 293 256 -1 256 293 260 -1 295 292 293 294 -1 266 292 265 -1 258 256 249 -1 263 294 257 -1 236 257 258 -1 259 257 236 -1 236 258 250 -1 250 258 249 -1 267 241 242 -1 268 242 243 -1 267 242 268 -1 268 243 283 -1 283 243 296 -1 283 296 284 -1 260 269 268 -1 260 268 248 -1 250 251 235 -1 235 251 252 -1 235 252 284 -1 268 283 253 -1 248 253 250 -1 236 250 235 -1 285 235 284 -1 237 235 285 -1 251 250 253 -1 282 284 296 -1 281 296 243 -1 282 296 281 -1 253 283 252 -1 273 281 243 -1 279 281 273 -1 285 282 279 -1 285 279 280 -1 285 244 238 -1 285 238 239 -1 244 280 234 -1 240 273 243 -1 286 259 254 -1 257 294 256 -1 264 295 294 -1 264 297 295 -1 257 259 263 -1 294 263 264 -1 292 297 264 -1 295 297 292 -1 259 292 264 -1 301 300 299 298 -1 307 306 305 304 303 302 -1 299 308 298 -1 311 310 309 -1 308 312 301 298 -1 315 314 313 -1 318 317 316 -1 320 319 299 -1 319 318 321 -1 300 323 322 -1 319 324 317 -1 327 326 325 -1 314 315 316 -1 327 332 331 330 329 328 -1 314 325 333 -1 334 316 324 -1 336 335 334 -1 310 336 334 322 -1 336 310 311 339 338 337 335 -1 340 335 337 -1 340 341 325 326 -1 341 307 342 -1 306 338 339 -1 307 337 338 -1 343 309 323 -1 346 345 344 -1 305 339 311 -1 347 304 343 -1 312 347 343 323 300 301 -1 347 312 308 303 -1 327 328 326 -1 326 328 329 -1 335 329 330 -1 326 329 335 -1 334 330 331 -1 335 330 334 -1 316 331 332 -1 334 331 316 -1 316 332 314 -1 314 332 327 -1 314 327 325 -1 348 321 313 -1 349 313 321 -1 351 348 350 333 -1 333 350 314 -1 316 315 349 -1 316 349 318 -1 318 349 321 -1 352 299 321 -1 319 321 299 -1 313 349 315 -1 317 318 319 -1 316 317 324 -1 334 324 353 -1 322 353 354 -1 334 353 322 -1 300 354 320 -1 322 354 300 -1 300 320 299 -1 309 355 344 -1 346 355 309 -1 309 344 311 -1 311 344 345 -1 311 345 304 -1 304 345 346 -1 343 346 309 -1 304 346 343 -1 340 326 335 -1 357 352 356 -1 299 357 356 342 -1 342 356 341 -1 307 341 340 -1 307 340 337 -1 342 302 308 -1 308 302 303 -1 347 303 304 -1 311 304 305 -1 339 305 306 -1 338 306 307 -1 299 342 308 -1 341 356 333 -1 341 333 325 -1 357 299 352 -1 351 321 348 -1 351 333 352 -1 352 333 356 -1 314 350 313 -1 313 350 348 -1 321 351 352 -1 302 342 307 -1 310 322 309 -1 323 309 322 -1 344 355 346 -1 320 354 353 -1 319 320 353 -1 319 353 324 -1 361 360 359 358 -1 367 366 365 364 363 362 -1 370 369 368 -1 373 372 371 -1 368 377 376 375 374 -1 380 379 378 -1 384 383 382 381 -1 388 387 386 385 -1 380 390 389 -1 386 392 391 -1 385 391 393 -1 397 396 395 394 -1 397 394 367 362 376 377 -1 369 396 397 377 368 -1 396 369 370 378 -1 399 398 390 -1 401 400 398 -1 360 371 372 400 -1 401 404 403 402 -1 380 378 370 -1 392 400 372 -1 407 406 405 -1 407 410 409 408 -1 411 393 391 392 -1 365 412 409 410 364 -1 413 393 408 -1 412 414 413 408 409 -1 415 413 414 -1 366 415 414 412 365 -1 415 366 367 394 -1 416 363 364 410 -1 418 417 373 -1 374 418 371 -1 416 375 376 362 363 -1 416 418 374 375 -1 421 420 419 -1 419 405 406 -1 411 406 407 -1 423 422 411 -1 410 407 424 -1 410 424 417 -1 417 424 425 -1 426 421 419 -1 417 425 373 -1 427 381 379 -1 430 429 428 -1 432 431 395 -1 428 382 433 -1 413 382 383 -1 434 382 413 -1 393 383 384 -1 413 383 393 -1 385 384 427 -1 393 384 385 -1 389 427 379 -1 385 427 389 -1 391 385 386 -1 392 386 387 -1 398 387 388 -1 392 387 398 -1 390 388 389 -1 398 388 390 -1 380 389 379 -1 359 402 358 -1 358 402 403 -1 358 403 370 -1 370 403 404 -1 390 404 399 -1 370 404 390 -1 398 399 401 -1 400 401 359 -1 400 359 360 -1 370 390 380 -1 392 398 400 -1 401 399 404 -1 368 358 370 -1 361 358 368 -1 402 359 401 -1 371 360 361 -1 374 361 368 -1 371 361 374 -1 373 419 372 -1 372 419 392 -1 392 419 423 -1 435 425 424 -1 418 373 371 -1 410 417 416 -1 416 417 418 -1 405 424 407 -1 396 379 395 -1 378 379 396 -1 381 427 384 -1 385 389 388 -1 415 434 413 -1 394 395 415 -1 382 429 381 -1 395 431 436 -1 434 395 437 433 -1 432 436 431 -1 432 379 381 -1 436 428 433 -1 437 436 433 -1 382 428 429 -1 430 428 436 -1 381 429 430 -1 432 430 436 -1 381 430 432 -1 437 395 436 -1 395 379 432 -1 434 433 382 -1 415 395 434 -1 439 438 435 -1 426 373 425 -1 423 419 406 -1 421 440 405 -1 438 425 435 -1 419 420 405 -1 424 405 440 -1 424 440 435 -1 435 440 439 -1 438 439 441 -1 426 441 421 -1 438 441 426 -1 425 438 426 -1 441 439 440 -1 373 426 419 -1 421 441 440 -1 405 420 421 -1 411 422 406 -1 406 422 423 -1 408 411 407 -1 393 411 408 -1 423 411 392 -1 444 443 442 -1 447 446 445 -1 449 448 445 -1 452 451 450 -1 450 444 453 -1 456 455 454 -1 459 458 457 -1 444 456 443 -1 462 461 460 -1 459 463 461 -1 451 462 460 464 -1 465 451 452 -1 455 468 467 466 -1 456 461 463 -1 469 463 468 -1 447 470 458 -1 470 467 468 -1 466 467 470 -1 472 466 471 -1 472 471 448 -1 472 449 454 -1 459 473 463 -1 463 473 474 -1 463 474 468 -1 468 474 457 -1 470 457 458 -1 468 457 470 -1 446 458 475 -1 446 475 452 -1 452 475 465 -1 462 465 459 -1 462 459 461 -1 451 464 450 -1 450 464 476 -1 450 476 456 -1 456 476 460 -1 456 460 461 -1 465 462 451 -1 459 465 475 -1 459 475 458 -1 446 452 450 -1 446 450 453 -1 477 445 446 -1 444 450 456 -1 460 476 464 -1 478 477 453 -1 445 478 449 -1 449 479 442 -1 454 442 443 -1 449 442 454 -1 454 443 456 -1 472 454 480 -1 466 480 455 -1 472 480 466 -1 468 455 469 -1 463 469 456 -1 458 446 447 -1 470 447 481 -1 470 481 471 -1 471 481 448 -1 448 449 472 -1 442 479 453 -1 481 447 445 -1 448 481 445 -1 470 471 466 -1 474 473 459 -1 457 474 459 -1 455 480 454 -1 456 469 455 -1 478 445 477 -1 453 479 478 -1 478 479 449 -1 442 453 444 -1 446 453 477 -1 "
						                >
							<Coordinate DEF="coords_ME_model"
							            point="-0.424393 -0.178468 0.331081 -0.533247 -0.168667 0.059319 -0.598979 -0.244640 0.175379 -0.239265 -0.067781 0.309405 -0.304301 0.212611 0.269705 -0.425572 0.175082 0.248202 -0.255143 -0.031786 0.332841 -0.452371 -0.159947 0.079265 -0.776941 -0.163047 0.414535 -0.670463 0.003216 0.410414 -0.606541 0.077121 0.463790 -0.643510 -0.261554 0.436033 -0.632531 -0.223512 0.550197 -0.438692 0.045618 -0.042049 -0.274759 0.176760 0.416736 -0.288393 0.125524 0.491027 -0.173053 0.059992 0.367828 -0.145330 -0.035498 0.410374 -0.150049 -0.038829 0.408654 -0.440511 0.018152 0.435564 -0.696155 -0.088894 0.564487 -0.270761 0.057991 0.470375 -0.469120 0.069292 0.466485 -0.274152 -0.163572 0.499397 -0.301577 -0.150689 0.537588 -0.345513 -0.014032 0.586138 -0.297175 0.032541 0.511280 -0.449688 -0.004197 0.578102 -0.673860 0.070327 0.200662 -0.677868 0.075191 0.180716 -0.504064 0.225819 0.182524 -0.503417 0.225034 0.185740 -0.678101 0.133627 0.301854 -0.760849 -0.020776 0.223667 -0.604542 -0.102083 -0.057127 -0.742554 -0.147593 0.087896 -0.630476 -0.162326 0.230818 -0.774626 -0.165985 0.411914 -0.708718 -0.249636 0.337305 -0.631982 -0.170453 0.233487 -0.359289 0.140086 -0.034968 -0.448384 0.055499 -0.037693 -0.432712 0.184140 0.179961 -0.545584 0.068518 0.008760 -0.679584 0.173294 0.039294 -0.669667 -0.049304 -0.031275 -0.189651 0.106034 0.067716 -0.165720 0.078560 0.056209 -0.140441 0.047882 0.182024 -0.266867 0.193674 0.189157 -0.204720 -0.066604 -0.004745 -0.324921 -0.064248 -0.064775 -0.109391 -0.017490 0.233158 -0.287252 -0.065924 0.148183 -0.361456 0.239489 0.371467 -0.560335 0.159211 0.363884 -0.297693 -0.065520 0.113103 -0.628006 -0.162487 0.226461 -0.364496 -0.113781 0.007524 -0.113850 -0.029132 0.089144 -0.155298 -0.083879 0.094284 -0.263967 -0.058457 0.088171 -0.219749 -0.065118 0.133802 -0.590739 -0.098698 0.649964 -0.323495 -0.208338 0.576852 -0.493253 -0.234030 0.614134 -0.415020 -0.078449 0.634966 -0.354843 -0.080210 0.597114 -0.599012 -0.259516 0.304523 0.031473 -1.246568 0.122750 -0.100729 -0.898847 0.100094 -0.058527 -0.921568 0.072750 -0.048527 -1.246568 -0.067250 -0.178527 -0.921568 -0.037250 -0.228527 -1.246568 -0.067250 -0.228527 -1.246568 0.112750 -0.170729 -0.563847 0.050094 -0.258527 -0.596568 -0.097250 -0.372372 -0.284889 -0.320889 0.078039 -0.275685 -0.030925 0.119783 -0.290994 -0.030817 -0.058527 -0.921568 -0.067250 -0.010729 -0.563847 0.050094 -0.254682 -0.227835 0.189477 -0.108527 -0.576568 -0.127250 0.031412 -0.375015 -0.158758 0.225635 -0.095280 -0.202488 0.073848 -0.441305 -0.065550 0.138083 -0.222070 -0.062758 0.165955 -0.231332 -0.148646 0.084109 -0.417914 -0.074807 0.172221 -0.105554 -0.061274 -0.309903 -0.401669 -0.400009 -0.268855 -0.253142 -0.264530 -0.344635 -0.095926 -0.301872 -0.323555 0.047693 -0.287418 -0.269422 -0.084218 -0.346316 -0.279426 -0.103718 -0.343845 -0.269390 -0.094002 -0.341579 -0.216223 0.084554 -0.242461 -0.244607 -0.097566 -0.254363 -0.627682 0.210652 -0.349225 -0.095235 -0.226223 0.232526 -0.161079 -0.565898 0.176757 -0.200291 -0.371409 0.211628 -0.098272 -0.354688 0.245291 -0.207304 -0.344311 0.212238 -0.080540 -0.263214 0.260310 0.005629 -0.149662 0.490844 -0.516135 -0.061284 0.244726 -0.396182 0.043683 0.258630 -0.383589 0.028230 0.256228 -0.438608 -0.119732 0.262318 0.125631 -0.050870 0.519067 0.119478 -0.143095 0.499986 0.016459 -0.175102 0.486440 0.303177 -0.017426 -0.364699 0.456194 -0.010923 -0.046818 0.245322 -0.088914 0.120611 0.281206 -0.070558 0.101838 0.314801 0.007704 0.277371 0.385108 0.087463 -0.449884 0.134478 -0.111479 -0.325411 0.190817 -0.161272 -0.247877 0.498634 0.107416 -0.131047 0.439208 -0.022433 -0.198713 0.418471 -0.084462 -0.135771 -0.581385 0.074463 -0.324957 -0.513092 0.088924 -0.359623 -0.512298 0.109767 -0.366791 -0.061510 -0.199565 0.554440 -0.122973 -0.179252 0.530856 -0.007020 -0.040585 0.561584 0.187532 -0.256272 0.419245 0.225908 -0.232778 0.388498 0.203747 -0.224485 0.223333 -0.055650 -0.201534 0.553555 0.127062 -0.262918 0.525957 0.031477 0.018988 0.733666 0.141563 0.038653 0.651529 0.188919 0.047113 0.616195 0.255389 -0.058180 0.777770 0.018076 -0.175159 0.718155 0.199781 0.091110 0.452587 -0.029793 0.118635 0.461789 -0.148781 0.019912 0.354537 0.032426 0.081106 0.552071 -0.076818 -0.036452 0.518807 0.134322 0.083658 0.586382 0.047381 0.189671 0.510698 0.086639 0.164379 0.438310 0.333791 0.009886 0.547508 0.321872 -0.070036 0.646360 0.314317 -0.120694 0.709018 0.227868 -0.114427 0.658167 0.105141 -0.152133 0.612883 -0.077474 -0.107682 0.761189 -0.054540 -0.058529 0.803694 -0.051617 -0.052263 0.809112 0.058164 -0.089145 0.792530 0.036481 -0.169504 0.724946 0.103191 0.080158 0.274977 0.322925 -0.109525 0.455908 0.377360 -0.111463 0.612677 0.312253 -0.148024 0.470885 0.144188 -0.275415 0.286542 0.113834 -0.145708 0.130644 0.003487 -0.250994 0.213017 -0.021656 -0.167766 0.419551 -0.121909 -0.034998 0.226035 -0.000433 -0.177761 0.130738 -0.141162 -0.058364 0.275589 0.101847 -0.291935 0.215557 -0.014127 -0.207736 0.185911 0.344950 -0.008770 0.009255 0.263449 0.027824 0.028634 0.452291 0.063712 0.059297 0.626649 -0.155076 0.104206 0.681246 -0.041334 -0.192729 0.427381 -0.106821 -0.239226 0.423752 -0.006363 -0.260784 0.372940 0.039862 -0.311138 0.398722 0.283101 0.094126 0.523199 0.164942 -0.052389 0.666798 0.206976 0.143286 0.489366 0.047323 0.019055 0.070132 0.102649 -0.205519 0.122010 0.090929 -0.329450 0.073192 0.106911 -0.204605 0.097773 0.220710 -0.261396 0.237412 0.146330 -0.045747 0.688874 0.196399 0.118707 0.641708 0.083284 -0.068372 0.641984 0.130207 0.104032 0.427358 0.226381 0.144254 0.502289 -0.190518 -0.003149 0.646241 -0.027689 0.185573 0.632037 0.116167 0.100919 0.438770 0.242560 -0.131647 0.507537 0.209612 -0.208213 0.506632 0.182910 -0.080704 0.379033 0.349708 -0.124501 0.794630 0.078305 -0.138522 0.519735 0.237122 -0.104671 0.712360 -0.103059 -0.138222 0.786171 -0.000253 -0.116169 0.711453 0.113435 -0.249976 0.599887 0.078927 -0.335328 0.610527 0.057820 -0.316689 0.473866 0.103408 -0.263012 0.422865 0.206951 -0.270706 0.382962 0.226473 -0.220423 0.320662 0.361412 -0.009681 0.326720 0.207274 0.062089 0.206535 0.084922 -0.047053 0.610142 0.125846 0.124686 0.380560 -0.114353 -0.047403 0.613742 0.232396 0.202359 0.464626 -0.106086 0.083981 0.537512 -0.003199 0.106790 0.549503 0.252315 -0.295402 0.566868 0.186998 -0.351260 0.546472 0.188223 -0.283231 0.638187 0.196790 -0.205436 0.710438 0.171271 -0.264087 0.497219 0.119621 -0.297947 0.804501 -0.084836 -0.045938 0.247865 0.275270 -0.150095 0.261690 0.371103 -0.026099 0.237349 0.212172 0.020430 0.185514 0.174892 -0.361939 0.486124 0.259198 -0.204779 -0.516139 0.117831 -0.102411 -0.673408 0.152600 -0.050540 -0.541235 0.271930 -0.071675 -0.379844 0.201955 -0.354313 -0.496893 0.164642 -0.459205 -0.411197 0.184718 -0.337072 -0.481201 0.158176 -0.141131 -0.544162 0.085154 -0.244762 -0.699683 0.356500 -0.261825 -0.688190 0.319432 -0.375870 -0.682232 0.300217 -0.434990 -0.585363 0.417042 -0.399389 -0.438475 0.179192 -0.196285 -0.578929 -0.064652 -0.434107 -0.695586 0.035417 -0.484566 -0.726096 -0.013065 -0.405794 -0.612102 0.268484 -0.460788 -0.662638 0.184975 -0.531758 -0.450724 0.294212 -0.492895 -0.399077 0.276077 -0.365174 -0.428613 0.304268 -0.377313 -0.534742 0.352754 -0.441052 -0.486201 0.060776 -0.442403 -0.413856 0.180325 -0.340805 -0.490141 0.224465 -0.642816 -0.354038 0.197638 -0.547604 -0.368610 0.233912 -0.545070 -0.283746 0.013225 -0.458754 -0.675996 0.178404 -0.514514 -0.792532 0.098234 -0.489450 -0.825644 0.081947 -0.446707 -0.212292 0.054992 -0.559586 -0.214725 -0.005718 -0.597863 -0.560507 -0.055591 -0.457887 -0.654523 0.011165 -0.621745 -0.804145 0.212950 -0.387280 -0.680868 0.258395 -0.447483 -0.705272 0.272075 -0.490548 -0.771573 0.218205 -0.514363 -0.845548 0.122680 -0.371569 -0.600806 0.336166 -0.118117 -0.694877 0.371108 -0.275808 -0.713028 0.330271 -0.164496 -0.649311 0.026377 -0.142889 -0.703730 -0.063550 -0.219313 -0.726368 -0.041943 -0.228617 -0.791772 0.095364 -0.226963 -0.523224 0.321432 -0.204216 -0.539949 0.330145 -0.149544 -0.580426 0.494981 -0.298342 -0.477094 0.341569 -0.260759 -0.466752 0.430392 -0.375734 -0.461104 0.293942 -0.289544 -0.446787 0.172266 -0.279394 -0.500082 0.117348 -0.277251 -0.618634 0.027069 -0.081272 -0.820691 0.119377 -0.218448 -0.821918 0.241293 -0.286318 -0.760984 0.127250 -0.169214 -0.635548 0.043828 -0.622096 -0.345224 -0.039418 -0.628513 -0.555056 0.120848 -0.677642 -0.300634 0.112822 -0.659001 -0.302434 0.108904 -0.658478 -0.564523 0.447978 -0.327801 -0.233953 -0.019144 -0.628633 0.252482 0.133637 -0.283473 0.222649 0.071520 -0.305346 0.278509 0.209660 -0.343487 0.268431 0.180224 -0.320249 0.588070 0.053103 -0.189845 0.599454 0.086354 -0.216094 0.621219 0.149929 -0.266281 0.629542 0.174241 -0.285473 0.610333 0.122880 -0.305566 0.592628 0.075541 -0.324086 0.379829 0.087344 -0.286886 0.276849 0.325841 -0.355537 0.413509 0.221092 -0.487220 0.462704 0.253259 -0.425137 0.379153 0.143022 -0.325332 0.119511 -0.047181 -0.568482 0.220437 0.016487 -0.640822 0.164037 0.082877 -0.671152 0.260774 0.180176 -0.605289 0.108098 0.321363 -0.413149 0.099821 0.199140 -0.468014 0.086711 0.257181 -0.340616 0.119169 0.207833 -0.327759 0.059717 0.084407 -0.408193 0.245157 0.306339 -0.411110 0.287594 0.236198 -0.364436 0.120316 0.351746 -0.369361 0.560018 -0.065807 -0.426765 0.576214 -0.018497 -0.464112 0.397714 -0.060761 -0.603098 0.498997 0.038208 -0.700033 0.503818 0.052291 -0.711150 0.428571 0.079644 -0.709133 0.394245 0.092122 -0.708213 0.356832 -0.012636 -0.625083 0.554954 -0.091545 -0.381592 0.350567 0.179936 -0.566651 0.493277 0.142433 -0.552267 0.402381 0.213816 -0.501262 0.494681 0.145923 -0.547238 0.511062 0.186657 -0.488533 0.528262 0.229428 -0.426894 0.624537 0.112035 -0.431580 0.624217 0.111020 -0.429743 0.572577 -0.011110 -0.199250 0.378457 0.200432 -0.364973 0.418104 0.331506 -0.315030 0.393179 0.285049 -0.246299 0.363555 0.296710 -0.246124 0.378573 0.190897 -0.358389 0.175997 -0.083974 -0.509799 0.005748 0.116808 -0.637497 0.191072 -0.102796 -0.529476 0.351211 -0.031541 -0.375693 0.412965 0.010435 -0.386718 0.148892 0.332859 -0.328697 0.167887 0.257170 -0.271784 0.324356 0.317765 -0.263994 0.563877 -0.044847 -0.318333 0.531661 -0.033860 -0.317107 -0.437663 0.121342 -0.073446 -0.419683 0.299226 -0.110630 -0.318094 0.251543 0.018749 -0.392470 0.170553 -0.038600 -0.199314 -0.088075 -0.174964 -0.142718 -0.026446 -0.131325 -0.118185 0.000268 -0.112409 -0.109845 0.014835 -0.149989 -0.177554 -0.055956 -0.225779 -0.185896 -0.066146 -0.223334 -0.370579 0.056450 -0.156950 -0.284077 0.088881 -0.314937 -0.325792 0.139428 -0.332220 -0.236588 0.209984 -0.050177 -0.219850 0.237339 -0.110517 -0.345962 0.219918 0.064547 -0.234679 0.023340 -0.134263 -0.253012 0.007754 -0.146415 -0.282831 -0.017597 -0.166179 -0.308240 0.003844 -0.163507 -0.318189 0.151855 -0.359632 -0.190288 -0.105691 -0.466148 -0.303711 0.167620 -0.348469 -0.096286 0.042191 -0.574519 -0.004016 0.102539 -0.521564 0.009502 0.117259 -0.511141 -0.095687 0.183546 -0.510268 -0.223862 0.258609 -0.425707 -0.223459 0.353492 -0.382579 -0.241099 0.368377 -0.380724 -0.321835 0.280462 -0.442976 -0.371691 0.060441 -0.515486 -0.379320 0.303220 -0.502278 -0.064744 0.204587 -0.265422 -0.131662 0.261057 -0.258384 -0.005039 0.154204 -0.271702 -0.173226 -0.045438 -0.269011 0.045976 -0.148324 -0.326364 -0.241785 0.037636 -0.297415 -0.187885 -0.027675 -0.275084 -0.279355 0.384499 -0.324625 -0.449808 0.338978 -0.360956 -0.214209 0.246559 -0.130855 -0.359121 0.237086 -0.213556 -0.456858 0.118929 -0.194817 -0.425420 0.170309 -0.308151 -0.369834 0.234680 -0.296112 0.075104 0.329624 -0.021285 0.160120 0.234635 0.016243 0.114195 0.166321 0.048727 -0.027598 0.117334 -0.190375 -0.044681 0.089414 -0.128790 -0.061376 0.062129 -0.068605 0.052789 0.156351 -0.237018 -0.098094 0.035360 -0.202940 -0.086067 0.056367 -0.257135 -0.087144 0.054487 -0.252285 -0.097789 0.041483 -0.249164 -0.143424 -0.013355 -0.125586 -0.194318 0.011315 -0.069804 -0.227269 0.029640 -0.129351 -0.198310 0.259720 -0.061180 -0.044663 0.309461 -0.035196 -0.130435 0.290056 0.062500 0.048063 0.256970 -0.143511 -0.185870 0.252365 -0.074081 0.048523 0.120412 0.122919 -0.116340 0.206121 0.224299 -0.206887 0.277039 0.110101 -0.236175 0.007789 -0.587851 0.000910 -0.025387 -0.535814 -0.020213 0.040447 -0.586342 -0.090087 -0.034456 -0.492995 -0.060317 -0.131144 -0.455530 -0.110979 -0.076651 -0.533467 0.073007 -0.023704 -0.388518 0.022638 0.026404 -0.208292 0.070751 0.234416 0.193447 -0.000032 -0.104080 -0.435219 0.071211 -0.031985 -0.384388 -0.081475 0.293303 0.210297 -0.091111 0.312754 0.116078 0.107119 0.310916 0.109319 -0.094159 0.297914 0.097880 0.189996 0.152139 0.008521 0.192941 0.155571 0.014183 0.159802 0.121678 0.323502 0.420658 -0.208344 0.305935 0.456612 -0.197350 0.392138 0.518755 -0.127663 0.295610 0.364921 -0.170754 0.119994 0.290716 -0.083128 0.107187 0.226256 0.056042 0.420464 0.340166 0.113134 0.380444 0.260638 0.047172 0.486272 0.042791 0.019082 0.144165 0.371250 0.093972 0.020739 0.474666 0.060441 0.075354 0.397200 0.173278 0.116584 0.588667 -0.036411 0.409324 0.531644 -0.100610 0.477883 0.530071 0.037537 0.394978 0.361472 0.250800 0.285932 0.459615 0.109231 0.271417 0.357171 0.114052 0.371045 0.462167 0.106994 0.271445 0.280495 0.189997 0.364890 0.492948 0.057626 0.475884 0.456136 -0.078545 0.092691 0.502796 -0.024163 0.182423 0.538013 0.016882 0.250147 0.468641 0.099391 0.159358 0.469179 -0.061862 0.234642 0.461641 -0.119238 0.091063 0.360884 -0.074043 0.085987 0.536960 0.070478 0.303557 0.582354 0.043370 0.322748 0.490631 -0.062117 0.549659 0.315300 0.272553 0.292224 0.127085 -0.018706 0.176850 0.161561 -0.027004 0.110293 0.123178 0.033838 0.039827 0.456340 0.009335 0.066431 0.456066 -0.198961 0.216409 "
							            />
						</IndexedFaceSet>
					</Shape>
					<Shape>
						<Appearance>
							<Material DEF="MA_mat20"
							          diffuseColor="0.190 0.090 0.060"
							          specularColor="0.401 0.401 0.401"
							          emissiveColor="0.000 0.000 0.000"
							          ambientIntensity="0.000"
							          shininess="0.500"
							          transparency="0.0"
							          />
						</Appearance>
						<IndexedFaceSet solid="false"
						                coordIndex="71 70 69 -1 74 73 72 -1 75 74 72 69 -1 78 77 76 -1 72 71 69 -1 70 73 75 -1 80 79 71 -1 72 81 71 -1 71 82 70 -1 83 76 70 -1 70 75 69 -1 73 81 72 -1 73 77 84 -1 73 84 81 -1 81 84 71 -1 70 76 73 -1 76 77 73 -1 73 74 75 -1 76 82 84 -1 86 85 84 82 -1 87 71 84 -1 90 89 88 87 -1 80 71 87 88 91 -1 85 90 87 84 -1 79 91 86 -1 92 84 77 -1 92 76 84 -1 95 94 78 93 -1 76 93 78 -1 92 93 76 -1 77 78 92 -1 97 96 92 78 -1 96 98 93 92 -1 96 95 99 -1 93 100 99 95 -1 98 100 93 -1 101 95 96 -1 102 82 76 -1 102 70 82 -1 105 104 103 -1 70 103 104 106 -1 107 103 70 -1 76 83 102 -1 108 106 104 -1 109 83 106 -1 110 102 83 -1 111 107 102 -1 111 106 107 -1 111 109 112 -1 106 112 109 -1 111 112 106 -1 83 109 110 -1 102 110 111 -1 113 107 106 -1 114 105 107 -1 114 104 105 -1 114 113 108 115 -1 104 115 108 -1 114 115 104 -1 106 108 113 -1 107 113 114 -1 97 78 94 -1 98 96 99 100 -1 116 89 90 -1 117 91 88 -1 91 79 118 -1 119 80 91 -1 119 79 80 -1 119 120 118 -1 120 91 118 -1 119 118 79 -1 91 120 119 -1 121 86 89 -1 122 85 86 -1 122 90 85 -1 122 121 116 123 -1 90 123 116 -1 122 123 90 -1 89 116 121 -1 86 121 122 -1 124 86 91 -1 125 89 86 -1 125 88 89 -1 125 124 117 126 -1 88 126 117 -1 125 126 88 -1 91 117 124 -1 86 124 125 -1 127 94 95 -1 128 97 94 -1 128 96 97 -1 128 127 101 129 -1 96 129 101 -1 128 129 96 -1 95 101 127 -1 94 127 128 -1 79 82 71 -1 86 82 79 -1 107 105 103 -1 102 107 70 -1 111 110 109 -1 106 83 70 -1 "
						                >
							<Coordinate USE="coords_ME_model" />
						</IndexedFaceSet>
					</Shape>
				</Group>
			</Transform>
		</Transform>
	</Scene>
</X3D>